<svg xmlns="http://www.w3.org/2000/svg" viewBox="0 0 395.95 315.78"><defs><style>.cls-1{fill:#fffff8;}.cls-2{fill:#3b3b3b;}.cls-3{fill:none;}</style></defs><g id="Layer_2" data-name="Layer 2"><g id="Layer_1-2" data-name="Layer 1"><path class="cls-1" d="M393.73,301a.34.34,0,0,1-.44-.18q-9-20.6-18.51-40.91-1.65-3.51-3.31-7-6.56-13.75-13.39-27.37-18.48-37.2-39.25-73.15c-6.92-12-14.18-23.73-21.65-35.35S282,94,274.29,82.47l-5.77-8.61q-2.5-3.77-5-7.51c-.24-.37-.49-.73-.74-1.1l-2-3-7.4-10.86-2.27-3.34-.56-.82-6.84-10L239.29,31l-.46-.66-11.4-16.5q-3.17-4.46-6.26-9a.35.35,0,0,1,.54-.44q3.75,4.06,7.42,8.19l.05.07c.49.53,1.11,1.26,1.67,1.9l1.69,2,3.38,4,6.65,8,1.46,1.8h127.4a10,10,0,0,1,10,10V259.88h-4.24l.93,2.15q8.24,19.11,15.81,38.49A.35.35,0,0,1,393.73,301Z"/><path class="cls-2" d="M221.45,4.28a.33.33,0,0,1,.26.11q3.75,4.06,7.42,8.19l.05.07c.49.53,1.11,1.26,1.67,1.9l1.69,2,3.38,4,6.65,8,1.46,1.8h127.4a10,10,0,0,1,10,10V259.88h-4.24l.93,2.15q8.24,19.11,15.81,38.49a.35.35,0,0,1-.2.45l-.13,0a.34.34,0,0,1-.31-.2q-9-20.6-18.51-40.91-1.65-3.51-3.31-7-6.56-13.75-13.39-27.37-18.48-37.2-39.25-73.15c-6.92-12-14.18-23.73-21.65-35.35S282,94,274.29,82.47l-5.77-8.61q-2.5-3.77-5-7.51c-.24-.37-.49-.73-.74-1.1l-2-3-7.4-10.86-2.27-3.34-.56-.82-6.84-10L239.29,31l-.46-.66-11.4-16.5q-3.17-4.46-6.26-9a.35.35,0,0,1,.09-.49.27.27,0,0,1,.19-.06Zm0-2A2.34,2.34,0,0,0,219.52,6c2.38,3.47,4.37,6.33,6.28,9l11.38,16.48.47.67L242,38.45l6.84,10,.56.81,2.26,3.34,7.4,10.86,2,3,.22.32c.17.25.34.49.5.74,1.87,2.75,3.69,5.47,5.06,7.53l5.78,8.62,2,3c6.88,10.29,14,20.93,20.85,31.48,8.09,12.58,15.15,24.12,21.6,35.27,13.31,22.92,26.5,47.49,39.19,73,4.41,8.77,8.91,18,13.37,27.34q1.66,3.48,3.31,7c6.3,13.41,12.52,27.16,18.48,40.85A2.33,2.33,0,0,0,393.6,303a2.25,2.25,0,0,0,.89-.18,2.33,2.33,0,0,0,1.26-1.21,2.37,2.37,0,0,0,0-1.81c-4.68-12.07-9.78-24.48-15.56-37.91h1.2a2,2,0,0,0,2-2V40.32a12,12,0,0,0-12-12H245l-.12-.16-.74-.91-6.66-8-3.4-4-1.69-2-.51-.59c-.39-.45-.79-.91-1.13-1.28a.69.69,0,0,0-.11-.13c-2.54-2.86-5-5.62-7.44-8.22a2.34,2.34,0,0,0-1.73-.75Z"/><path class="cls-2" d="M201.91,149.08h0c-1.5,2.37-3,4.73-4.49,7.11h-2.75c-1.51,0-3,0-4.54,0,1.33-2.3,2.68-4.6,4-6.89v0c1.29,0,2.59-.08,3.88-.1S200.62,149.1,201.91,149.08Z"/><path class="cls-3" d="M194.09,147.26a2.05,2.05,0,0,0-.55.1,2.53,2.53,0,0,1,.55-.09l3-.09Zm7.83-.18h0c-1.27,0-2.54,0-3.82.08l3.82-.07h0Zm0,2h0c-1.5,2.37-3,4.73-4.49,7.11h2.36c1.17-1.87,2.42-3.85,3.79-6a2,2,0,0,0,.36-1.14h0ZM349.63,259l-3.24-6.88-.06-.12c-4.85-10.21-9.72-20.21-14.5-29.7C323,204.62,314,187.38,305,171.09c-.38-.72-.75-1.37-1.1-2a2,2,0,0,0-1.41-1l-1.62-.29c.42.75.84,1.5,1.25,2.25a0,0,0,0,1,0,0h0c.39.67.76,1.34,1.12,2q14,25.26,26.8,51.15,7.41,14.75,14.48,29.66c1.1,2.33,2.2,4.65,3.3,7h0c.28.6.56,1.2.83,1.8h0a1.88,1.88,0,0,0,.85-.73A2,2,0,0,0,349.63,259ZM201.92,149.08h0"/><path class="cls-2" d="M2.15,178.49s.08,0,.12,0A.28.28,0,0,1,2.15,178.49Z"/><path class="cls-2" d="M2.4,178.56h0s-.05,0-.08,0A.28.28,0,0,0,2.4,178.56Z"/><path class="cls-2" d="M2,178.3a.28.28,0,0,0,.14.19A.3.3,0,0,1,2,178.3Z"/><path class="cls-2" d="M235.16,60.11l-10.5-15.42-5.84-8.51-4.81-7a2,2,0,0,0-1.65-.86h-3.81l1,1.52.33.48h2.43l4.81,7,5.84,8.5,10.5,15.42c-1.65,2.16-3.3,4.31-4.93,6.48s-3.26,4.35-4.85,6.55c-4.11,5.6-8.2,11.22-12.14,16.94-13.24,18.92-25.16,38.76-36.48,58.88q-1.79,3.15-3.53,6.31h0l-1.12,2,1.18,0a2,2,0,0,0,1.7-1c1-1.84,2.13-3.84,3.52-6.29C190,127.64,201.6,109,213.23,92.36c4.12-6,8.41-11.86,12.11-16.9,3-4.16,6.08-8.21,9.76-13A2,2,0,0,0,235.16,60.11ZM2.27,178.53s0,0,.08,0h0A.28.28,0,0,1,2.27,178.53Z"/><path class="cls-2" d="M367.75,297.52c-4.71-12.16-9.87-24.73-15.77-38.43l-.05-.11a.08.08,0,0,1,0-.05c-1-2.28-2-4.57-3-6.85-4.6-10.61-9.32-21.1-14-31.18-7.86-16.92-16-33.56-24.28-49.46l-.3-.57-.22-.43a.61.61,0,0,0-.07-.14c-2.08-4-4.21-8-6.34-12l-.8-1.51-.38-.7c-1.56-2.92-3.22-6-5.23-9.64C285.43,124.87,271,99.52,253.81,75l-.75-1.07c-1.14-1.66-2.2-3.17-3.24-4.63-2.11-3-4.39-6.13-7.2-9.95l-.69-.94-.29-.39c-.8-1.1-1.6-2.2-2.41-3.29-3.26-4.4-6.53-8.67-10.17-13.39-1.35-1.75-2.71-3.51-4.07-5.25-2.19-2.76-4-5-5.6-7l-1.65-2-1.66-2-6.66-8-3.4-4-1.69-2-.51-.59L202.69,9.1,202.58,9c-2.44-2.74-4.94-5.51-7.43-8.21A2.32,2.32,0,0,0,193.42,0a2.36,2.36,0,0,0-1.36.43,2.32,2.32,0,0,0-.95,1.5,2.31,2.31,0,0,0,.37,1.75c2.27,3.31,4.34,6.28,6.33,9.08l10.74,15.56H211L199.44,11.6q-3.19-4.5-6.31-9a.35.35,0,0,1,.09-.49.36.36,0,0,1,.46,0q3.73,4.07,7.41,8.19l0,.07c.49.53,1.11,1.26,1.67,1.9l1.69,2,3.38,4,6.65,8,3.3,4.08q2.8,3.48,5.58,7,2,2.61,4.07,5.24c3.41,4.43,6.82,8.87,10.14,13.36.81,1.09,1.61,2.18,2.41,3.28.33.45.66.89,1,1.34q3.63,4.93,7.18,9.92c1.09,1.53,2.16,3.06,3.23,4.61l.75,1.08c16,22.78,30,46.91,43.38,71.24q2.63,4.8,5.22,9.62l1.18,2.21q3.19,6,6.33,12h0l.58,1.13q12.67,24.44,24.25,49.38,7.22,15.48,14,31.14,1.5,3.44,3,6.87l.06.13q8.21,19,15.75,38.36a.35.35,0,0,1-.2.45.25.25,0,0,1-.12,0,.34.34,0,0,1-.32-.21q-4-9.25-8.19-18.46-1.51-3.37-3.06-6.75-1.29-2.84-2.59-5.67t-2.75-5.94h0c-.27-.6-.55-1.2-.83-1.8h0c-1.1-2.34-2.2-4.66-3.3-7Q337.44,238,330,223.22q-12.85-25.87-26.8-51.15c-.36-.67-.73-1.34-1.12-2h0a0,0,0,0,0,0,0c-.41-.75-.83-1.5-1.25-2.25-.82-1.47-1.64-2.95-2.47-4.42s-1.68-3-2.52-4.45c-20.87-1-41.67-2-62.5-2.3q-4.49-.09-9-.15l-5.66-.08-2.15,0c-.87,0-1.74,0-2.61,0l-2.62,0-4.94,0-6.63,0h-5.11c-1.51,0-3,0-4.54,0,1.33-2.3,2.68-4.6,4-6.89v0c1.29,0,2.59-.08,3.88-.1s2.59-.06,3.88-.08h0l2,0c.84,0,1.69,0,2.53,0,1.31,0,2.61,0,3.92,0,7.75,0,15.5.18,23.24.6,6.5.33,13,.79,19.48,1.28s13,1.15,19.41,2c7.23.86,14.45,1.84,21.63,3-1.1-1.94-2.22-3.88-3.34-5.81-6.92-12-14.18-23.73-21.65-35.35-7.25-11.16-14.66-22.22-22.06-33.3l-.83-1.24-2.59-3.87-3.18-4.74Q238.76,69,237,66.4L229.08,78c-2,2.85-3.88,5.73-5.79,8.6l-5.78,8.61c-7.67,11.5-15.37,23-22.89,34.55q-6.35,9.88-12.49,19.93c-1.32,2.17-2.63,4.34-3.94,6.53s-2.63,4.44-3.93,6.68c-.44.73-.86,1.47-1.29,2.21q-1.18,2-2.35,4.06h0q-19.51,33.92-36.9,69.07-3.66,7.28-7.21,14.58-1.73,3.5-3.4,7-12.83,26.6-24.59,53.7a.35.35,0,0,1-.32.21l-.14,0a.34.34,0,0,1-.19-.45c5-12.92,10.33-25.74,15.81-38.48q3.22-7.5,6.53-14.95H44.53a10,10,0,0,1-10-10v-65.4q-16.09,3.14-32.1,6.87H2.34a.35.35,0,0,1-.09-.68q16-4.47,32.28-8.21c2.33-.54,4.67-1.07,7-1.59q18.26-4.05,36.68-7.27c6.4-1.09,12.82-2.12,19.25-3,3.21-.49,6.43-.9,9.65-1.33l9.67-1.26c6.45-.71,12.9-1.55,19.38-2.12l9.71-.92,9.72-.76q6.07-.45,12.16-.83c.15-.29.31-.58.47-.87q1.11-2,2.23-4l1.12-2h0q1.74-3.17,3.53-6.31c11.32-20.12,23.24-40,36.48-58.88,3.94-5.72,8-11.34,12.14-16.94q2.39-3.3,4.85-6.55c1.63-2.17,3.28-4.32,4.93-6.48L223,45.82l-5.84-8.5-4.81-7h-2.43l-.33-.48-1-1.52h-164a12,12,0,0,0-12,12V168.08C22.06,170.52,11.7,173.16,1.71,176a2.35,2.35,0,0,0,.64,4.61,2,2,0,0,0,.49-.05c10.84-2.52,21.62-4.83,32.07-6.86,2.05-.41,4.2-.82,7-1.34C54.2,170,66.69,168,79,166.25c7-1,13.25-1.81,19.18-2.51,2.29-.29,4.6-.53,6.84-.77.93-.1,1.86-.19,2.79-.3l9.64-1c2.06-.17,4.16-.36,6.26-.55,4.25-.38,8.65-.77,13-1l9.69-.66L156,159c3.46-.19,6.81-.3,9.64-.38l2-.06h.46c-.54,1-1.07,1.93-1.6,2.89-3.48.22-7.12.47-11.08.77l-9.73.76-9.74.92c-4.41.39-8.87.91-13.19,1.41l-6.22.71-9.71,1.27-1.91.25c-2.55.34-5.19.69-7.78,1.08-6,.87-12.3,1.87-19.29,3.06-12.34,2.16-24.72,4.61-36.77,7.29-2.34.52-4.69,1.05-7,1.59-11,2.54-21.89,5.31-32.37,8.23a2.35,2.35,0,0,0,.63,4.61,2.51,2.51,0,0,0,.55-.06c10-2.33,19.94-4.47,29.64-6.39v63a12,12,0,0,0,12,12h72.61c-1.69,3.82-3.43,7.82-5.3,12.16-6,13.91-11.16,26.52-15.83,38.55a2.35,2.35,0,0,0,1.28,3,2.38,2.38,0,0,0,.91.18,2.36,2.36,0,0,0,2.15-1.4c8.17-18.74,16.43-36.78,24.56-53.64,1.19-2.47,2.29-4.76,3.39-7,2.46-5.06,4.88-10,7.21-14.57,12-24.1,24.38-47.31,36.84-69a.83.83,0,0,0,.07-.13c.76-1.32,1.51-2.62,2.28-3.93l.36-.63c.3-.52.6-1,.91-1.56,1.4-2.4,2.68-4.58,3.94-6.68s2.61-4.35,3.93-6.52c3.76-6.17,7.83-12.68,12.46-19.89,6.27-9.65,12.78-19.4,19.08-28.83l3.79-5.69L225,87.75c2.32-3.48,4.1-6.12,5.78-8.58L237,70c.61.9,1.21,1.81,1.81,2.72L242,77.43l2.59,3.87.41.61.43.65,2.07,3.1c6.59,9.86,13.4,20.06,20,30.16,8.09,12.58,15.16,24.12,21.6,35.26l1.26,2.18c-5.49-.84-11.28-1.62-17.58-2.37-5-.64-10.08-1.11-15-1.56l-4.45-.42c-5.87-.44-12.75-.94-19.57-1.29-7.5-.4-15.14-.6-23.34-.6-2.68,0-5.46,0-8.25.07h-.24l-3.82.07h-.18l-.83,0-3,.09a2.53,2.53,0,0,0-.55.09,2.07,2.07,0,0,0-.34.15l0,0a1.73,1.73,0,0,0-.31.22l-.19.19a1.71,1.71,0,0,0-.3.44c-1.11,1.88-2.55,4.33-4,6.79-1.18,2.06-2.36,4.11-3.53,6.18s-2.53,4.44-3.77,6.68c-1.84,3.26-3.69,6.59-5.5,9.88C162.6,201.6,150,226.54,138.12,252l0,.07,0,.09a1.47,1.47,0,0,0-.1.22c-1,2.08-2,4.25-3.06,6.63-4.5,9.82-9.06,20.09-13.92,31.4a2,2,0,0,0,1,2.59,2,2,0,0,0,2.63-.82l16.91-30.34H346.54c5.58,12,11.26,24.55,16.88,37.43a2.32,2.32,0,0,0,2.15,1.41,2.22,2.22,0,0,0,.88-.17A2.34,2.34,0,0,0,367.75,297.52Zm-365.4-119s-.05,0-.08,0a.28.28,0,0,0,.13,0Zm270.39-14.88c-5-.64-10.08-1.12-15-1.57l-4.45-.42c-6.93-.51-13.16-1-19.57-1.27-7.42-.4-15.26-.6-23.28-.6-4.2,0-8.57.05-13,.16l1.11-1.77c10.44,0,21.54.17,34.81.41,20.73.28,41.65,1.25,61.34,2.24,1.3,2.3,2.52,4.44,3.66,6.49C290.17,166,281.75,164.74,272.74,163.68Z"/><path class="cls-2" d="M2.27,178.53s0,0,.08,0h0A.28.28,0,0,1,2.27,178.53Z"/><path class="cls-1" d="M365.69,298.69a.25.25,0,0,1-.12,0,.34.34,0,0,1-.32-.21q-4-9.25-8.19-18.46c-1-2.25-2-4.51-3.06-6.75q-1.29-2.84-2.59-5.67t-2.75-5.94h0c-.27-.6-.55-1.2-.83-1.8h0c-1.1-2.34-2.2-4.66-3.3-7Q337.44,238,330,223.22q-12.85-25.87-26.8-51.15c-.36-.67-.73-1.34-1.12-2h0a0,0,0,0,0,0,0c-.41-.75-.83-1.5-1.25-2.25-.82-1.47-1.64-2.95-2.47-4.42s-1.68-3-2.52-4.45c-20.87-1-41.67-2-62.5-2.3q-4.49-.09-9-.15l-5.66-.08-2.15,0c-.87,0-1.74,0-2.61,0l-2.62,0-4.94,0-6.63,0h-5.11c-1.51,0-3,0-4.54,0,1.33-2.3,2.68-4.6,4-6.89h0l3.88-.11,3.87-.07h0l2,0c.84,0,1.69,0,2.53,0,1.31,0,2.61,0,3.92,0,7.75,0,15.5.18,23.24.6,6.5.33,13,.79,19.48,1.28s13,1.15,19.41,2c7.23.86,14.45,1.84,21.63,3-1.1-1.94-2.22-3.88-3.34-5.81-6.92-12-14.18-23.73-21.65-35.35-7.25-11.16-14.66-22.22-22.06-33.3l-.83-1.24-2.59-3.87-3.18-4.74Q238.76,69,237,66.4L229.08,78c-2,2.85-3.88,5.73-5.79,8.6l-5.78,8.61c-7.67,11.5-15.37,23-22.89,34.55q-6.35,9.88-12.49,19.93c-1.32,2.17-2.63,4.34-3.94,6.53s-2.63,4.44-3.93,6.68c-.44.73-.86,1.47-1.29,2.21q-1.18,2-2.35,4.06h0q-19.51,33.92-36.9,69.07-3.66,7.28-7.21,14.58-1.73,3.5-3.4,7-12.83,26.6-24.59,53.7a.35.35,0,0,1-.32.21l-.14,0a.34.34,0,0,1-.19-.45c5-12.92,10.33-25.74,15.81-38.48q3.22-7.5,6.53-14.95H44.53a10,10,0,0,1-10-10v-65.4q-16.09,3.14-32.1,6.87H2.34a.35.35,0,0,1-.09-.68q16-4.47,32.28-8.21c2.33-.54,4.67-1.07,7-1.59q18.26-4.05,36.68-7.27c6.4-1.09,12.82-2.12,19.25-3,3.21-.49,6.43-.9,9.65-1.33l9.67-1.26c6.45-.71,12.9-1.55,19.38-2.12l9.71-.92,9.72-.76q6.07-.45,12.16-.83c.15-.29.31-.58.47-.87q1.11-2,2.23-4l1.12-2h0q1.74-3.17,3.53-6.31c11.32-20.12,23.24-40,36.48-58.88,3.94-5.72,8-11.34,12.14-16.94q2.39-3.3,4.85-6.55c1.63-2.17,3.28-4.32,4.93-6.48L223,45.82l-5.84-8.5-4.81-7-1.11-1.62-.26-.38L199.44,11.6q-3.19-4.5-6.31-9a.35.35,0,0,1,.09-.49.36.36,0,0,1,.46,0q3.73,4.07,7.41,8.19l0,.07c.49.53,1.11,1.26,1.67,1.9l1.69,2,3.38,4,6.65,8,3.3,4.08q2.8,3.48,5.58,7,2,2.61,4.07,5.24c3.41,4.43,6.82,8.87,10.14,13.36.81,1.09,1.61,2.18,2.41,3.28.33.45.66.89,1,1.34q3.63,4.93,7.18,9.92c1.09,1.53,2.16,3.06,3.23,4.61l.75,1.08c16,22.78,30,46.91,43.38,71.24q2.63,4.8,5.22,9.62l1.18,2.21q3.19,6,6.33,12h0l.58,1.13q12.67,24.44,24.25,49.38,7.22,15.48,14,31.14,1.5,3.44,3,6.87l.06.13q8.21,19,15.75,38.36A.35.35,0,0,1,365.69,298.69Z"/><path class="cls-2" d="M347.82,259.88c.28.6.56,1.2.83,1.8h0ZM211,28.32h-2.44l1,1.52.33.48h2.43l-1.11-1.62ZM198,149.16l3.87-.07h0C200.62,149.1,199.33,149.12,198,149.16Zm-3.88.1h0l3.88-.11C196.74,149.18,195.44,149.22,194.15,149.26Z"/></g></g></svg>