<svg xmlns="http://www.w3.org/2000/svg" viewBox="0 0 395.95 315.78"><defs><style>.cls-1{fill:#fffff8;}.cls-2{fill:#3b3b3b;}</style></defs><g id="Layer_2" data-name="Layer 2"><g id="Layer_1-2" data-name="Layer 1"><path class="cls-1" d="M393.6,302a1.34,1.34,0,0,1-1.24-.82c-5.95-13.68-12.18-27.44-18.49-40.87-1.1-2.33-2.19-4.66-3.3-7-4.46-9.35-9-18.55-13.39-27.35-12.7-25.57-25.89-50.16-39.22-73.1-6.45-11.16-13.52-22.71-21.62-35.31-6.86-10.56-14-21.21-20.87-31.52l-7.78-11.61q-2.51-3.77-5.05-7.51l-.52-.78L252.49,52l-2.83-4.16-11.2-16.3L226.61,14.39c-1.91-2.68-3.9-5.54-6.27-9a1.35,1.35,0,0,1,.35-1.87,1.25,1.25,0,0,1,.76-.24,1.39,1.39,0,0,1,1,.43c2.42,2.63,4.85,5.31,7.42,8.2l.07.09c.33.35.75.84,1.17,1.32l.49.57,5.08,5.95,6.66,8,1.16,1.44H371.43a11,11,0,0,1,11,11V259.88a1,1,0,0,1-1,1h-2.72l.33.75c5.89,13.67,11.06,26.27,15.82,38.53a1.36,1.36,0,0,1,0,1,1.34,1.34,0,0,1-.75.71A1.26,1.26,0,0,1,393.6,302Z"/><path class="cls-2" d="M221.45,4.28a.36.36,0,0,1,.26.11q3.75,4.06,7.42,8.19l.05.07c.49.53,1.11,1.26,1.67,1.9l1.69,2,3.38,4,6.65,8,1.46,1.8h127.4a10,10,0,0,1,10,10V259.88h-4.24l.93,2.15q8.24,19.11,15.81,38.49a.35.35,0,0,1-.2.45.3.3,0,0,1-.13,0,.33.33,0,0,1-.31-.2q-9-20.6-18.51-40.91-1.65-3.51-3.31-7-6.56-13.75-13.39-27.37-18.48-37.2-39.25-73.15c-6.92-12-14.18-23.73-21.65-35.35S282,94,274.29,82.47l-5.77-8.61q-2.5-3.77-5-7.51c-.24-.37-.49-.73-.74-1.1l-2-3-7.4-10.86-2.27-3.34-.56-.82-6.84-10L239.29,31l-.46-.66-11.4-16.5q-3.17-4.46-6.26-9a.35.35,0,0,1,.09-.49.33.33,0,0,1,.19-.06m0-2a2.31,2.31,0,0,0-1.35.43A2.34,2.34,0,0,0,219.52,6c2.38,3.47,4.37,6.33,6.28,9l11.38,16.48.47.66L242,38.45l6.84,10,.56.82,2.26,3.33,7.41,10.86,2,3,.21.32.5.75c1.87,2.74,3.69,5.46,5.06,7.53l5.78,8.61,2,3c6.88,10.29,14,20.94,20.85,31.49,8.09,12.58,15.15,24.11,21.6,35.26,13.31,22.92,26.5,47.49,39.19,73,4.41,8.77,8.91,18,13.37,27.34,1.11,2.33,2.21,4.65,3.31,7,6.3,13.42,12.52,27.16,18.48,40.86a2.32,2.32,0,0,0,2.15,1.4,2.43,2.43,0,0,0,.89-.17,2.35,2.35,0,0,0,1.26-1.22,2.32,2.32,0,0,0,0-1.81c-4.68-12.07-9.78-24.48-15.56-37.91h1.2a2,2,0,0,0,2-2V40.32a12,12,0,0,0-12-12H245l-.12-.15-.74-.92-6.66-8-3.4-4-1.69-2-.51-.59-1.13-1.28-.11-.13c-2.54-2.85-5-5.62-7.44-8.22a2.38,2.38,0,0,0-1.73-.75Z"/><path class="cls-2" d="M122.81,292.24a1.06,1.06,0,0,1-.45-.11,1,1,0,0,1-.47-1.29c4.86-11.3,9.41-21.56,13.92-31.38q1.51-3.33,3.06-6.66l.14-.31c11.88-25.51,24.48-50.42,37.46-74.09,1.8-3.29,3.65-6.62,5.5-9.88,1.22-2.21,2.48-4.42,3.73-6.63s2.38-4.17,3.56-6.22c1.32-2.29,2.67-4.58,4-6.86a1,1,0,0,1,.86-.54c2.59-.08,5.19-.14,7.77-.18h0a1,1,0,0,1,.84,1.53q-2.26,3.56-4.5,7.12c-.9,1.42-1.79,2.86-2.68,4.29,5.09-.14,10.07-.21,14.85-.21,8,0,15.82.2,23.24.6,6.38.31,12.61.76,19.5,1.27l4.45.42c4.92.45,10,.92,15,1.56,10.53,1.25,20.24,2.68,29.67,4.39a1,1,0,0,1,.74.57c.38.66.74,1.31,1.09,2,9,16.27,18,33.49,26.81,51.18,4.77,9.48,9.64,19.47,14.49,29.68,0,0,2.24,4.74,3.3,7a1,1,0,0,1-.9,1.43h-207l-17.19,30.84A1,1,0,0,1,122.81,292.24Z"/><path class="cls-2" d="M201.92,149.09h0m0,0q-2.26,3.56-4.5,7.12-1.84,2.92-3.66,5.88,8.33-.27,16.67-.27c7.73,0,15.46.18,23.19.6,6.5.32,13,.79,19.48,1.27s13,1.15,19.41,2c9.92,1.17,19.8,2.6,29.62,4.38h0c.39.67.76,1.34,1.12,2q14,25.26,26.8,51.15,7.41,14.75,14.48,29.66l3.3,7H140.29l-17.48,31.36q6.78-15.76,13.91-31.36,1.51-3.33,3.06-6.65c.05-.12.11-.23.16-.35q17.51-37.57,37.41-74,2.72-4.95,5.49-9.87c1.24-2.23,2.5-4.45,3.76-6.67q1.76-3.09,3.53-6.17c1.33-2.3,2.68-4.6,4-6.89h0q3.89-.12,7.76-.18m0-2h0c-2.59,0-5.21.1-7.8.18a2,2,0,0,0-1.73,1.11c-1.1,1.88-2.54,4.32-4,6.79-1.18,2.05-2.36,4.12-3.53,6.18s-2.53,4.45-3.77,6.68c-1.84,3.27-3.69,6.59-5.5,9.88-13,23.7-25.59,48.63-37.47,74.12l0,.08,0,.08-.1.22c-1,2.09-2,4.26-3,6.64-4.51,9.81-9.07,20.09-13.93,31.4a2,2,0,0,0,1,2.58,2,2,0,0,0,.88.21,2,2,0,0,0,1.75-1l16.91-30.33H347.83a2,2,0,0,0,1.81-2.85l-3.25-6.89-.06-.12c-4.84-10.21-9.72-20.2-14.5-29.7C323,204.62,314,187.39,305,171.1c-.39-.73-.76-1.38-1.11-2a2,2,0,0,0-1.41-1c-9.46-1.72-19.19-3.16-29.74-4.4-5-.64-10.08-1.11-15-1.57l-4.44-.41c-6.94-.52-13.17-1-19.58-1.28-7.42-.4-15.26-.6-23.28-.6-4.2,0-8.57.06-13,.16l1.7-2.71c1.37-2.19,2.83-4.49,4.45-7a2,2,0,0,0-1.64-3.14Zm0,4Z"/><path class="cls-2" d="M2.35,179.57A1.35,1.35,0,0,1,1,178.5a1.32,1.32,0,0,1,1-1.58c10.22-2.86,20.83-5.56,31.54-8V40.32a11,11,0,0,1,11-11H212.36a1,1,0,0,1,.83.43l10.65,15.5,10.5,15.43a1,1,0,0,1,0,1.17c-3.68,4.8-6.75,8.85-9.77,13-3.71,5-8,10.95-12.12,16.92-11.66,16.65-23.23,35.33-36.44,58.8-1.19,2.1-2.36,4.19-3.52,6.3a1,1,0,0,1-.85.52c-1.33,0-2.65.07-4,.12l-2,.06c-2.83.08-6.19.18-9.65.38l-9.68.49-9.65.66c-4.35.25-8.76.65-13,1l-6.29.55-9.62,1-2.79.3c-2.24.24-4.56.48-6.83.77-6,.7-12.23,1.52-19.22,2.51C66.55,167,54,169,41.72,171.33c-2.33.43-4.66.87-7,1.34-10.48,2-21.27,4.35-32.07,6.86A1.55,1.55,0,0,1,2.35,179.57Z"/><path class="cls-2" d="M212.36,30.32l4.81,7,5.84,8.5,10.5,15.42c-3.3,4.31-6.59,8.64-9.78,13-4.11,5.6-8.2,11.22-12.14,16.94-13.24,18.92-25.16,38.76-36.48,58.88q-1.79,3.15-3.53,6.31l-6,.18c-3.22.09-6.45.2-9.68.38l-9.67.49-9.67.66c-6.45.38-12.88,1-19.32,1.58l-9.65,1c-3.21.35-6.43.66-9.64,1.07-6.42.75-12.83,1.6-19.23,2.51q-18.66,2.59-37.22,6.08c-2.33.43-4.66.87-7,1.34q-16.09,3.13-32.1,6.87H2.35A.35.35,0,0,1,2,178.3a.34.34,0,0,1,.24-.42q16-4.47,32.28-8.21V40.32a10,10,0,0,1,10-10H212.36m0-2H44.53a12,12,0,0,0-12,12V168.08c-10.46,2.44-20.82,5.09-30.81,7.87a2.35,2.35,0,0,0,.63,4.62,2.63,2.63,0,0,0,.49,0c10.85-2.53,21.62-4.83,32.08-6.87,2-.41,4.19-.82,7-1.33C54.2,170,66.69,168,79,166.25c7-1,13.25-1.81,19.19-2.5,2.28-.3,4.59-.54,6.83-.78l2.79-.29,9.64-1c2.06-.17,4.16-.36,6.26-.55,4.25-.38,8.65-.77,13-1l9.69-.67L156,159c3.46-.2,6.81-.3,9.64-.38l2-.06c1.32-.05,2.65-.09,4-.12a2,2,0,0,0,1.71-1c1-1.83,2.12-3.83,3.51-6.29C190,127.64,201.6,109,213.23,92.37c4.12-6,8.41-11.86,12.12-16.91,3-4.16,6.08-8.21,9.75-13a2,2,0,0,0,.07-2.34l-10.5-15.42-5.85-8.5-4.81-7a2,2,0,0,0-1.65-.87Z"/><path class="cls-1" d="M98.21,314.78a1.29,1.29,0,0,1-.55-.11,1.34,1.34,0,0,1-.72-1.73c4.67-12,9.84-24.61,15.82-38.51,2.09-4.87,4-9.32,5.91-13.56H44.53a11,11,0,0,1-11-11V185.69c-10.1,2-20.48,4.21-30.87,6.63l-.32,0A1.34,1.34,0,0,1,1,191.29a1.31,1.31,0,0,1,.14-.95,1.37,1.37,0,0,1,.82-.63c10.46-2.92,21.33-5.68,32.32-8.22,2.33-.54,4.67-1.07,7-1.59,12-2.67,24.4-5.12,36.73-7.28,7-1.19,13.28-2.19,19.28-3.06,2.57-.39,5.2-.74,7.74-1.07l1.92-.26,9.67-1.26,6.26-.71c4.31-.51,8.76-1,13.16-1.41l9.71-.92,9.73-.76c4.19-.31,8-.57,11.62-.8l.2-.37c1.13-2,2.25-4.06,3.38-6.08s2.34-4.22,3.53-6.32c13.24-23.52,24.84-42.26,36.53-59,4.13-6,8.44-11.89,12.16-17,3.2-4.41,6.49-8.75,9.35-12.47L222.19,46.39,210.43,29.27l-11.81-17.1c-2-2.78-4-5.74-6.31-9a1.35,1.35,0,0,1,.35-1.88,1.32,1.32,0,0,1,.76-.24,1.39,1.39,0,0,1,1,.43c2.49,2.71,5,5.47,7.42,8.21l.07.08L203.06,11l.5.57,1.7,2,3.38,4,6.66,8,3.31,4.08q2.8,3.5,5.59,7L228.27,42c3.63,4.72,6.9,9,10.16,13.38.81,1.09,1.61,2.18,2.41,3.29l.3.4.69.94c2.78,3.79,5.07,6.95,7.18,9.93,1.09,1.53,2.16,3.06,3.23,4.62l.75,1.07c17.14,24.47,31.57,49.79,43.44,71.33,1.75,3.21,3.49,6.41,5.22,9.63,0,0,.92,1.7,1.19,2.22,2.12,4,4.25,8,6.33,12l0,.09.55,1.07c8.23,15.87,16.4,32.5,24.26,49.4,4.7,10.08,9.41,20.57,14,31.17q1.5,3.44,3,6.87l-.86.52.92-.39c5.9,13.69,11.06,26.25,15.76,38.39a1.36,1.36,0,0,1-.76,1.75,1.58,1.58,0,0,1-.49.09,1.33,1.33,0,0,1-1.24-.84c-5.8-13.28-11.66-26.27-17.41-38.57l-3.3-7c-4.83-10.17-9.7-20.14-14.47-29.64-8.78-17.66-17.79-34.86-26.78-51.11-.36-.67-.73-1.33-1.11-2l-.06-.11c-1.79-3.25-3.73-6.71-5.93-10.57-19.85-1-41-2-61.91-2.27-13.78-.25-25.21-.38-36-.41h-2.75l-4.54,0a1,1,0,0,1-.86-.5,1,1,0,0,1,0-1q2-3.43,4-6.85a1,1,0,0,1,.85-.55q3.9-.12,7.78-.18c2.86,0,5.71-.07,8.47-.07,8.19,0,15.81.2,23.3.6,6.81.35,13.68.85,19.5,1.29l4.48.42c4.91.45,10,.92,15,1.56,7.07.84,13.51,1.72,19.6,2.69q-1.14-2-2.3-4c-6.45-11.15-13.53-22.7-21.63-35.31-6.56-10.09-13.37-20.28-20-30.14l-5.52-8.25-3.18-4.74-2.64-4-7.1,10.42c-1.95,2.84-3.88,5.72-5.79,8.59l-5.78,8.61-3.81,5.72c-6.29,9.42-12.8,19.16-19.07,28.82-4.63,7.21-8.71,13.73-12.47,19.9-1.32,2.17-2.63,4.34-3.94,6.53s-2.63,4.43-3.92,6.67c-.33.54-.64,1.07-.95,1.61l-.34.6c-.78,1.32-1.54,2.64-2.31,4,0,0,0,.05,0,.08-12.47,21.68-24.88,44.9-36.87,69-2.36,4.68-4.71,9.44-7.21,14.57q-1.72,3.49-3.4,7c-8.13,16.88-16.4,34.93-24.57,53.67A1.34,1.34,0,0,1,98.21,314.78Z"/><path class="cls-2" d="M193.42,2a.36.36,0,0,1,.26.11q3.73,4.07,7.41,8.19l0,.07c.49.53,1.11,1.26,1.67,1.9l1.69,2,3.38,4,6.65,8,3.3,4.08q2.8,3.48,5.58,7,2,2.61,4.07,5.24c3.41,4.43,6.82,8.87,10.14,13.36.81,1.09,1.61,2.18,2.41,3.28.33.45.66.89,1,1.34q3.63,4.93,7.18,9.92c1.09,1.53,2.16,3.06,3.23,4.61l.75,1.08c16,22.78,30,46.91,43.38,71.24q2.63,4.8,5.22,9.62l1.18,2.21q3.19,6,6.33,12h0l.58,1.13q12.67,24.44,24.25,49.38,7.22,15.48,14,31.14,1.5,3.44,3,6.87l.06.13q8.21,19,15.75,38.36a.35.35,0,0,1-.2.45l-.12,0a.37.37,0,0,1-.32-.22q-8.47-19.42-17.43-38.62l-3.3-7Q337.44,238,330,223.22q-12.85-25.87-26.8-51.15c-.36-.67-.73-1.34-1.12-2h0q-3.08-5.58-6.25-11.13c-20.87-1-41.67-2-62.5-2.3-12-.22-24-.38-36-.41h-2.75c-1.51,0-3,0-4.54,0,1.33-2.3,2.68-4.6,4-6.89h0q3.89-.12,7.76-.18c2.82,0,5.64-.07,8.46-.07q11.63,0,23.24.6c6.5.33,13,.79,19.48,1.28s13,1.15,19.41,2c7.23.86,14.45,1.84,21.63,3-1.1-1.94-2.22-3.88-3.34-5.81-6.92-12-14.18-23.73-21.65-35.35-7.25-11.16-14.66-22.22-22.06-33.3l-.83-1.24-2.59-3.87-3.18-4.74Q238.76,69,237,66.4L229.08,78c-2,2.85-3.88,5.73-5.79,8.6l-5.78,8.61c-7.67,11.5-15.37,23-22.89,34.55q-6.35,9.88-12.49,19.93c-1.32,2.17-2.63,4.34-3.94,6.53s-2.63,4.44-3.93,6.68c-.44.73-.86,1.47-1.29,2.21q-1.18,2-2.35,4.06h0q-19.51,33.92-36.9,69.07-3.66,7.28-7.21,14.58-1.73,3.5-3.4,7-12.83,26.6-24.59,53.7a.33.33,0,0,1-.31.21l-.15,0a.34.34,0,0,1-.19-.45c5-12.92,10.33-25.74,15.81-38.48q3.22-7.5,6.53-14.95H44.53a10,10,0,0,1-10-10v-65.4q-16.09,3.14-32.1,6.87H2.34a.35.35,0,0,1-.33-.27.33.33,0,0,1,.24-.41q16-4.47,32.28-8.21c2.33-.54,4.67-1.07,7-1.59q18.26-4.05,36.68-7.27c6.4-1.09,12.82-2.12,19.25-3,3.21-.49,6.43-.9,9.65-1.33l9.67-1.26c6.45-.71,12.9-1.55,19.38-2.12l9.71-.92,9.72-.76q6.07-.45,12.16-.83c.15-.29.31-.58.47-.87q1.67-3,3.36-6.06t3.53-6.31c11.32-20.12,23.24-40,36.48-58.88,3.94-5.72,8-11.34,12.14-16.94,3.19-4.4,6.47-8.72,9.78-13L223,45.82l-5.84-8.5-4.81-7-1.11-1.62L199.44,11.6q-3.19-4.5-6.31-9a.35.35,0,0,1,.09-.49.36.36,0,0,1,.2-.06m0-2a2.3,2.3,0,0,0-1.36.44,2.27,2.27,0,0,0-.95,1.49,2.38,2.38,0,0,0,.37,1.76c2.28,3.31,4.35,6.27,6.33,9.07l11.8,17.08,1.1,1.61,4.81,7,5.84,8.5L231,61.17c-2.75,3.59-5.87,7.72-8.93,11.93-3.71,5.06-8,11-12.17,17-11.69,16.72-23.32,35.48-36.57,59-1.4,2.47-2.52,4.48-3.54,6.33s-2.21,4-3.31,6c-3.48.22-7.12.47-11.08.76l-9.72.76-9.75.92c-4.4.39-8.87.91-13.18,1.41-2.08.25-4.15.49-6.23.72l-9.71,1.26-1.91.25c-2.55.34-5.18.69-7.78,1.09-6,.86-12.3,1.86-19.28,3-12.35,2.16-24.72,4.62-36.78,7.29l-7,1.59c-11,2.55-21.88,5.31-32.37,8.24a2.34,2.34,0,0,0,.63,4.6,2.6,2.6,0,0,0,.56-.06c10-2.32,19.93-4.47,29.63-6.39v63a12,12,0,0,0,12,12h72.61c-1.69,3.82-3.43,7.83-5.3,12.16-6,13.92-11.16,26.53-15.83,38.55a2.34,2.34,0,0,0,1.28,3,2.39,2.39,0,0,0,.92.18,2.34,2.34,0,0,0,2.14-1.39c8.17-18.74,16.43-36.79,24.56-53.65,1.19-2.47,2.3-4.75,3.4-7,2.45-5,4.88-9.95,7.2-14.57,12-24.1,24.38-47.3,36.85-69l.06-.13c.76-1.31,1.51-2.62,2.28-3.93l.36-.63c.3-.52.6-1,.91-1.55,1.4-2.41,2.68-4.59,3.94-6.69s2.61-4.35,3.93-6.52c3.76-6.17,7.84-12.67,12.46-19.89,6.27-9.65,12.78-19.4,19.08-28.83l3.8-5.69,5.77-8.6c2.32-3.49,4.1-6.13,5.78-8.59L237,70l1.82,2.72L242,77.44l2.59,3.87.41.61c.14.21.28.43.43.64l2.07,3.1c6.59,9.86,13.4,20.06,20,30.16,8.09,12.58,15.16,24.12,21.6,35.26l1.26,2.19c-5.49-.84-11.28-1.62-17.58-2.37-5-.64-10.08-1.12-15-1.57l-4.45-.42c-5.87-.44-12.75-.94-19.57-1.28-7.5-.41-15.14-.61-23.34-.61-2.76,0-5.62,0-8.49.07-2.59,0-5.21.1-7.79.18a2,2,0,0,0-1.73,1.12c-1.11,1.88-2.55,4.32-4,6.78a2,2,0,0,0,1.73,3l4.52,0h2.75c10.78,0,22.19.16,36,.41,20.72.28,41.64,1.26,61.34,2.25,2.08,3.65,3.92,6.94,5.63,10l.08.16c.34.58.7,1.22,1.09,2,9,16.26,18,33.44,26.77,51.09,4.77,9.48,9.63,19.45,14.47,29.63l0,.1c1.09,2.3,2.17,4.59,3.25,6.89,5.75,12.3,11.61,25.28,17.41,38.57a2.32,2.32,0,0,0,2.15,1.42,2.2,2.2,0,0,0,.88-.18,2.35,2.35,0,0,0,1.31-3c-4.72-12.16-9.88-24.73-15.78-38.43,0,0,0-.07-.05-.1s0,0,0-.06q-1.47-3.42-3-6.85c-4.6-10.6-9.32-21.1-14-31.18-7.86-16.91-16-33.55-24.28-49.46l-.29-.56-.23-.44-.06-.14c-2.09-4-4.22-8-6.34-12l-.81-1.51-.37-.7c-1.57-2.92-3.23-6-5.23-9.64C285.43,124.87,271,99.52,253.81,75l-.75-1.08c-1.14-1.65-2.2-3.17-3.24-4.63-2.1-3-4.39-6.13-7.2-9.94l-.68-.94-.3-.4c-.79-1.1-1.6-2.19-2.41-3.29-3.26-4.4-6.53-8.67-10.16-13.39L225,36.09c-2.18-2.76-4-5-5.6-7l-1.65-2-1.65-2-6.67-8L206,13l-1.69-2-.51-.59c-.39-.45-.78-.9-1.12-1.27a1.34,1.34,0,0,1-.11-.14c-2.45-2.74-5-5.5-7.44-8.21A2.35,2.35,0,0,0,193.42,0Z"/></g></g></svg>