<svg xmlns="http://www.w3.org/2000/svg" viewBox="0 0 391.95 311.78"><defs><style>.cls-1{fill:#48BFCB;}.cls-2{fill:#3b3b3b;}</style></defs><g id="Layer_2" data-name="Layer 2"><g id="Layer_1-2" data-name="Layer 1"><path class="cls-1" d="M391.73,299a.34.34,0,0,1-.44-.18q-9-20.6-18.51-40.91-1.65-3.51-3.31-7-6.56-13.75-13.39-27.37-18.48-37.2-39.25-73.15c-6.92-12-14.18-23.73-21.65-35.35S280,92,272.29,80.47l-5.77-8.61q-2.5-3.77-5-7.51c-.24-.37-.49-.73-.74-1.1l-2-3-7.4-10.86-2.27-3.34-.56-.82-6.84-10L237.29,29l-.46-.66-11.4-16.5q-3.17-4.46-6.26-9a.35.35,0,0,1,.54-.44q3.75,4.06,7.42,8.19l.05.07c.49.53,1.11,1.26,1.67,1.9l1.69,2,3.38,4,6.65,8,1.46,1.8h127.4a10,10,0,0,1,10,10V257.88h-4.24l.93,2.15q8.24,19.11,15.81,38.49A.35.35,0,0,1,391.73,299Z"/><path class="cls-2" d="M345.83,257.88H138.29l-17.48,31.36q6.78-15.76,13.91-31.36,1.51-3.33,3.06-6.65c.05-.12.11-.23.16-.35q17.51-37.57,37.41-74,2.72-4.95,5.49-9.87c1.24-2.23,2.5-4.45,3.76-6.67q1.76-3.09,3.53-6.17c1.33-2.3,2.68-4.6,4-6.89h0q3.89-.12,7.76-.18-2.26,3.56-4.5,7.12-1.84,2.92-3.66,5.88c13.29-.41,26.58-.38,39.86.33,6.5.32,13,.79,19.48,1.27s13,1.15,19.41,2c9.92,1.17,19.8,2.6,29.62,4.38h0c.39.67.76,1.34,1.12,2q14,25.26,26.8,51.15,7.41,14.75,14.48,29.66Z"/><path class="cls-2" d="M231.51,59.24c-3.3,4.31-6.59,8.64-9.78,13-4.11,5.6-8.2,11.22-12.14,16.94-13.24,18.92-25.16,38.76-36.48,58.88q-1.79,3.15-3.53,6.31l-6,.18c-3.22.09-6.45.2-9.68.38l-9.67.49-9.67.66c-6.45.38-12.88,1-19.32,1.58l-9.65,1c-3.21.35-6.43.66-9.64,1.07-6.42.75-12.83,1.6-19.23,2.51q-18.66,2.59-37.22,6.08c-2.33.43-4.66.87-7,1.34q-16.09,3.13-32.1,6.87A.35.35,0,0,1,0,176.3a.34.34,0,0,1,.24-.42q16-4.47,32.28-8.21V38.32a10,10,0,0,1,10-10H210.36l4.81,7,5.84,8.5Z"/><path class="cls-1" d="M363.69,296.69a.34.34,0,0,1-.44-.19q-8.47-19.42-17.43-38.62l-3.3-7Q335.44,236,328,221.22q-12.85-25.87-26.8-51.15c-.36-.67-.73-1.34-1.12-2h0q-3.08-5.58-6.25-11.13c-20.87-1-41.67-2-62.5-2.3-12-.22-24-.38-36-.41h-2.75c-1.51,0-3,0-4.54,0,1.33-2.3,2.68-4.6,4-6.89h0q3.89-.12,7.76-.18c10.57-.17,21.14,0,31.7.53,6.5.33,13,.79,19.48,1.28s13,1.15,19.41,2c7.23.86,14.45,1.84,21.63,3-1.1-1.94-2.22-3.88-3.34-5.81-6.92-12-14.18-23.73-21.65-35.35-7.25-11.16-14.66-22.22-22.06-33.3l-.83-1.24-2.59-3.87-3.18-4.74Q236.76,67,235,64.4L227.08,76c-2,2.85-3.88,5.73-5.79,8.6l-5.78,8.61c-7.67,11.5-15.37,23-22.89,34.55q-6.35,9.88-12.49,19.93c-1.32,2.17-2.63,4.34-3.94,6.53s-2.63,4.44-3.93,6.68c-.44.73-.86,1.47-1.29,2.21q-1.18,2-2.35,4.06h0q-19.51,33.92-36.9,69.07-3.66,7.28-7.21,14.58-1.73,3.49-3.4,7-12.83,26.6-24.59,53.7a.35.35,0,0,1-.65-.27c5-12.92,10.33-25.74,15.81-38.48q3.22-7.5,6.53-14.95H42.53a10,10,0,0,1-10-10v-65.4q-16.09,3.14-32.1,6.87a.34.34,0,0,1-.42-.26.33.33,0,0,1,.24-.41q16-4.47,32.28-8.21c2.33-.54,4.67-1.07,7-1.59q18.26-4.05,36.68-7.27c6.4-1.09,12.82-2.12,19.25-3,3.21-.49,6.43-.9,9.65-1.33l9.67-1.26c6.45-.71,12.9-1.55,19.38-2.12l9.71-.92,9.72-.76q6.07-.45,12.16-.83c.15-.29.31-.58.47-.87q1.67-3,3.36-6.06t3.53-6.31c11.32-20.12,23.24-40,36.48-58.88,3.94-5.72,8-11.34,12.14-16.94,3.19-4.4,6.47-8.72,9.78-13L221,43.82l-5.84-8.5-4.81-7-1.11-1.62L197.44,9.6q-3.19-4.5-6.31-9a.35.35,0,0,1,.55-.44q3.73,4.06,7.41,8.19l0,.07c.49.53,1.11,1.26,1.67,1.9l1.69,2,3.38,4,6.65,8,3.3,4.08q2.8,3.48,5.58,7,2,2.61,4.07,5.24c3.41,4.43,6.82,8.87,10.14,13.36.81,1.09,1.61,2.18,2.41,3.28.33.45.66.89,1,1.34q3.63,4.93,7.18,9.92c1.09,1.53,2.16,3.06,3.23,4.61l.75,1.08c16,22.78,30,46.91,43.38,71.24q2.63,4.8,5.22,9.62l1.18,2.21q3.19,6,6.33,12h0l.58,1.13q12.67,24.44,24.25,49.38,7.22,15.48,14,31.14,1.5,3.44,3,6.87l.06.13q8.21,19,15.75,38.36A.35.35,0,0,1,363.69,296.69Z"/></g></g></svg>