<svg xmlns="http://www.w3.org/2000/svg" viewBox="0 0 397.95 317.78"><defs><style>.cls-1{fill:#fffff8;}.cls-2{fill:#3b3b3b;}</style></defs><g id="Layer_2" data-name="Layer 2"><g id="Layer_1-2" data-name="Layer 1"><path class="cls-1" d="M394.6,303.49a1.83,1.83,0,0,1-1.7-1.13C387,288.72,380.74,275,374.42,261.52q-1.65-3.51-3.31-7c-4.46-9.37-9-18.56-13.37-27.34C345,201.62,331.85,177,318.53,154.11,312.08,143,305,131.4,296.92,118.82c-6.85-10.54-14-21.18-20.84-31.46l-7.81-11.67c-1.67-2.51-3.34-5-5-7.5l-.53-.79-9.62-14.12-2.83-4.16-6.84-9.95-4.36-6.34L227.19,15.67c-1.89-2.66-3.88-5.53-6.26-9a1.87,1.87,0,0,1,.48-2.58,1.78,1.78,0,0,1,1-.32,1.86,1.86,0,0,1,1.36.59c2.42,2.63,4.86,5.31,7.44,8.21l.1.12c.34.38.74.83,1.13,1.29l.5.57,5.08,6,6.66,8,1,1.26H372.43a11.51,11.51,0,0,1,11.5,11.5V260.88a1.5,1.5,0,0,1-1.5,1.5h-2l0,.06c5.89,13.67,11.07,26.28,15.83,38.54a1.83,1.83,0,0,1-1.73,2.51Z"/><path class="cls-2" d="M222.45,5.28a.36.36,0,0,1,.26.11q3.75,4.06,7.42,8.19l.05.07c.49.53,1.11,1.26,1.67,1.9l1.69,2,3.38,4,6.65,8,1.46,1.8h127.4a10,10,0,0,1,10,10V260.88h-4.24l.93,2.15q8.24,19.11,15.81,38.49a.35.35,0,0,1-.2.45.3.3,0,0,1-.13,0,.33.33,0,0,1-.31-.2q-9-20.6-18.51-40.91-1.65-3.51-3.31-7-6.56-13.75-13.39-27.37-18.48-37.2-39.25-73.15c-6.92-12-14.18-23.73-21.65-35.35S283,95,275.29,83.47l-5.77-8.61q-2.5-3.77-5-7.51c-.24-.37-.49-.73-.74-1.1l-2-3-7.4-10.86-2.27-3.34-.56-.82-6.84-10L240.29,32l-.46-.66-11.4-16.5q-3.17-4.46-6.26-9a.35.35,0,0,1,.09-.49.33.33,0,0,1,.19-.06m0-3A3.33,3.33,0,0,0,219.16,5a3.34,3.34,0,0,0,.54,2.51c2.37,3.47,4.37,6.34,6.28,9L237.36,33l.47.67L242.18,40,249,50l.55.81,2.27,3.34L259.24,65l2,3,.21.32L262,69l0,.06c1.85,2.71,3.66,5.42,5,7.48l5.78,8.62,2,3c6.88,10.29,14,20.94,20.84,31.48,8.08,12.56,15.14,24.09,21.57,35.22,13.31,22.9,26.48,47.46,39.16,73,4.41,8.78,8.91,18,13.37,27.33q1.67,3.48,3.3,7c6.3,13.41,12.51,27.14,18.47,40.82a3.33,3.33,0,0,0,3.07,2,3.49,3.49,0,0,0,1.24-.23,3.39,3.39,0,0,0,1.82-1.75,3.3,3.3,0,0,0,.06-2.58c-4.52-11.66-9.43-23.65-15-36.57a3,3,0,0,0,2.69-3V41.32a13,13,0,0,0-13-13h-126l-.57-.7-6.66-8-3.41-4-1.69-2-.52-.6c-.38-.44-.77-.89-1.11-1.26l-.13-.16c-2.55-2.85-5.05-5.62-7.46-8.23a3.33,3.33,0,0,0-2.46-1.07Z"/><path class="cls-2" d="M123.81,293.74a1.47,1.47,0,0,1-.67-.16,1.5,1.5,0,0,1-.71-1.94c4.86-11.3,9.42-21.57,13.92-31.39,1-2.22,2-4.44,3.07-6.66l.13-.29c11.9-25.54,24.5-50.47,37.48-74.15q2.72-5,5.5-9.88c1.24-2.23,2.5-4.45,3.76-6.67q1.76-3.1,3.54-6.18c1.32-2.29,2.66-4.57,4-6.85a1.49,1.49,0,0,1,1.28-.8c2.6-.08,5.2-.14,7.78-.18h0a1.49,1.49,0,0,1,1.26,2.3c-1.51,2.37-3,4.74-4.49,7.11-.74,1.17-1.47,2.34-2.2,3.51,4.78-.13,9.46-.19,13.95-.19,8,0,15.84.2,23.26.6,6.4.31,12.88.78,19.51,1.27l4.48.42c4.92.45,10,.93,15,1.57,10.53,1.24,20.25,2.68,29.69,4.39a1.51,1.51,0,0,1,1.09.83c.38.65.74,1.3,1.09,2,9,16.25,18,33.48,26.82,51.19C337.15,233,342,243,346.88,253.23l3.3,7a1.48,1.48,0,0,1-.09,1.44,1.5,1.5,0,0,1-1.26.7H142.17l-17,30.59A1.52,1.52,0,0,1,123.81,293.74Z"/><path class="cls-2" d="M202.92,150.09h0m0,0q-2.26,3.56-4.5,7.12-1.84,2.92-3.66,5.88,8.33-.27,16.67-.27c7.73,0,15.46.18,23.19.6,6.5.32,13,.79,19.48,1.27s13,1.15,19.41,2c9.92,1.17,19.8,2.6,29.62,4.38h0c.39.67.76,1.34,1.12,2q14,25.26,26.8,51.15,7.41,14.75,14.48,29.66l3.3,7H141.29l-17.48,31.36q6.78-15.76,13.91-31.36,1.51-3.33,3.06-6.65c.05-.12.11-.23.16-.35q17.51-37.57,37.41-74,2.72-4.95,5.49-9.87c1.24-2.23,2.5-4.45,3.76-6.67q1.76-3.09,3.53-6.17c1.33-2.3,2.68-4.6,4-6.89h0q3.89-.12,7.76-.18m0-3h0c-2.59,0-5.22.1-7.81.18a3,3,0,0,0-2.58,1.63c-1.1,1.88-2.54,4.32-3.95,6.76-1.19,2.06-2.37,4.13-3.54,6.19s-2.53,4.46-3.78,6.7c-1.83,3.26-3.69,6.59-5.49,9.88-13,23.71-25.62,48.67-37.5,74.18a.54.54,0,0,0-.05.11l0,0a2.56,2.56,0,0,0-.11.24c-1,2.09-2,4.26-3,6.63-4.51,9.82-9.07,20.1-13.94,31.42a3,3,0,0,0,5.38,2.65l16.62-29.82H348.83a3,3,0,0,0,2.71-4.28l-3.24-6.88-.06-.12c-4.85-10.23-9.74-20.23-14.51-29.73-8.8-17.7-17.84-35-26.86-51.26-.38-.71-.75-1.37-1.1-2a3,3,0,0,0-2.11-1.54c-9.48-1.71-19.23-3.16-29.8-4.4-5-.65-10.1-1.12-15-1.57l-4.45-.42h-.06c-6.9-.51-13.14-.95-19.56-1.27-7.43-.4-15.29-.6-23.33-.6-3.62,0-7.37,0-11.19.12l.71-1.13c1.37-2.19,2.82-4.49,4.44-7a3,3,0,0,0-2.47-4.69Zm0,6Z"/><path class="cls-2" d="M3.35,181.07a1.84,1.84,0,0,1-1.8-1.46,1.81,1.81,0,0,1,1.3-2.18c10.1-2.81,20.59-5.49,31.18-8V41.32a11.51,11.51,0,0,1,11.5-11.5H213.36a1.49,1.49,0,0,1,1.24.65L225.25,46l10.5,15.42a1.49,1.49,0,0,1-.05,1.76C232,68,229,72,226,76.16c-3.72,5.07-8,11-12.12,16.91-11.65,16.64-23.22,35.31-36.41,58.76q-1.78,3.15-3.52,6.3a1.5,1.5,0,0,1-1.28.78c-1.33,0-2.67.07-4,.12l-2,.06c-2.84.08-6.2.18-9.64.38l-9.68.49-9.64.66c-4.35.25-8.75.65-13,1l-6.29.54-9.62,1-2.79.3c-2.24.23-4.55.48-6.82.77-6,.69-12.24,1.51-19.21,2.5-12.35,1.72-24.84,3.76-37.15,6.07-2.33.43-4.65.87-7,1.34-10.46,2-21.25,4.34-32.06,6.86A1.93,1.93,0,0,1,3.35,181.07Z"/><path class="cls-2" d="M213.36,31.32l4.81,7,5.84,8.5,10.5,15.42c-3.3,4.31-6.59,8.64-9.78,13-4.11,5.6-8.2,11.22-12.14,16.94-13.24,18.92-25.16,38.76-36.48,58.88q-1.79,3.15-3.53,6.31l-6,.18c-3.22.09-6.45.2-9.68.38l-9.67.49-9.67.66c-6.45.38-12.88,1-19.32,1.58l-9.65,1c-3.21.35-6.43.66-9.64,1.07-6.42.75-12.83,1.6-19.23,2.51q-18.66,2.59-37.22,6.08c-2.33.43-4.66.87-7,1.34q-16.09,3.13-32.1,6.87H3.36A.35.35,0,0,1,3,179.3a.34.34,0,0,1,.24-.42q16-4.47,32.28-8.21V41.32a10,10,0,0,1,10-10H213.36m0-3H45.53a13,13,0,0,0-13,13v127c-10.22,2.39-20.33,5-30.08,7.7a3.35,3.35,0,0,0,.9,6.58,3.27,3.27,0,0,0,.7-.08h.06c10.79-2.51,21.56-4.81,32-6.85,2-.41,4.19-.82,7-1.33C55.37,172,67.85,170,80.17,168.24c7-1,13.24-1.81,19.16-2.5,2.28-.29,4.59-.54,6.82-.77l2.8-.3,9.6-1,6.28-.55c4.24-.38,8.63-.77,12.94-1l9.67-.66,9.64-.49c3.46-.19,6.8-.29,9.62-.37l2-.06c1.32-.05,2.65-.09,4-.12a3,3,0,0,0,2.55-1.56c1-1.83,2.12-3.82,3.51-6.27,13.18-23.42,24.72-42.05,36.33-58.64,4.11-6,8.4-11.85,12.1-16.89,3-4.15,6.08-8.2,9.75-13a3,3,0,0,0,.09-3.51l-10.5-15.42-5.84-8.51-4.81-7a3,3,0,0,0-2.48-1.3Z"/><path class="cls-1" d="M99.21,316.28a1.83,1.83,0,0,1-1.73-2.52c4.66-12,9.84-24.61,15.82-38.53,2-4.61,3.83-8.83,5.61-12.86H45.53A11.51,11.51,0,0,1,34,250.87V187.3c-9.89,1.94-20.06,4.13-30.26,6.5a2,2,0,0,1-.42,0,1.85,1.85,0,0,1-1.81-1.46,1.78,1.78,0,0,1,.2-1.29,1.82,1.82,0,0,1,1.11-.87c10.47-2.92,21.35-5.69,32.34-8.23l7-1.59c12.07-2.68,24.43-5.13,36.75-7.28,7-1.2,13.31-2.2,19.3-3.06,2.57-.39,5.19-.74,7.73-1.08l1.93-.25,9.68-1.26,6.23-.72c4.32-.5,8.79-1,13.21-1.41l9.7-.92,9.75-.76c4.08-.3,7.8-.56,11.35-.78a1.09,1.09,0,0,1,.08-.15c1.11-2,2.23-4.05,3.36-6.07s2.34-4.21,3.54-6.32c13.24-23.53,24.86-42.28,36.55-59,4.11-6,8.43-11.88,12.16-17,3.12-4.31,6.33-8.54,9.14-12.2l-9.89-14.52L211,30.55,199.21,13.46c-2-2.77-4-5.73-6.31-9.06a1.84,1.84,0,0,1,.47-2.57,1.8,1.8,0,0,1,1-.33,1.87,1.87,0,0,1,1.37.6c2.47,2.69,5,5.45,7.42,8.21a.4.4,0,0,1,.1.12c.34.37.74.83,1.14,1.29l.49.57,1.7,2,3.38,4,6.67,8.05L220,30.38q2.81,3.5,5.59,7,2.06,2.63,4.08,5.26c3.64,4.72,6.91,9,10.16,13.38.81,1.09,1.61,2.19,2.41,3.29l.3.41c.24.31.47.63.69.94,2.8,3.8,5.09,7,7.19,9.93,1.09,1.53,2.16,3.06,3.24,4.62l.74,1.08c17.15,24.48,31.6,49.82,43.47,71.37,1.75,3.21,3.49,6.41,5.22,9.63l1.19,2.22c2.11,3.95,4.24,8,6.33,12l.06.11.53,1.05c8.24,15.89,16.41,32.52,24.27,49.42,4.7,10.08,9.42,20.57,14,31.18q1.5,3.44,3,6.87l-1.32.72,1.38-.59c5.9,13.7,11.06,26.27,15.77,38.41a1.84,1.84,0,0,1,0,1.42,1.86,1.86,0,0,1-1,1,1.82,1.82,0,0,1-.67.13,1.85,1.85,0,0,1-1.71-1.15c-5.79-13.27-11.65-26.26-17.4-38.55-1.1-2.34-2.19-4.67-3.29-7-4.83-10.16-9.7-20.13-14.47-29.62-8.77-17.67-17.78-34.86-26.77-51.1-.36-.67-.72-1.33-1.1-2a.91.91,0,0,1-.07-.14c-1.75-3.17-3.65-6.55-5.78-10.3-19.78-1-40.79-2-61.63-2.26-13.78-.25-25.2-.38-35.94-.41h-2.75l-4.54,0a1.5,1.5,0,0,1-1.3-.75,1.54,1.54,0,0,1,0-1.5c1.33-2.28,2.67-4.57,4-6.84a1.49,1.49,0,0,1,1.28-.81c2.59-.08,5.19-.14,7.78-.18,2.87,0,5.72-.07,8.48-.07,8.2,0,15.82.2,23.32.61,6.82.34,13.69.84,19.52,1.28l4.46.41c4.92.46,10,.93,15,1.58,6.68.79,12.8,1.62,18.59,2.52-.6-1-1.19-2.06-1.79-3.08-6.44-11.15-13.51-22.69-21.61-35.3C262.34,106.47,255.54,96.3,249,86.46l-5.55-8.3-3.18-4.74L238,70.08l-6.68,9.81c-1.67,2.45-3.46,5.09-5.78,8.58l-5.78,8.62-3.8,5.69c-6.3,9.43-12.81,19.18-19.08,28.84-4.62,7.19-8.7,13.7-12.47,19.89L180.48,158c-1.32,2.21-2.62,4.43-3.92,6.67l-.95,1.61-.34.6-2.29,4-.06.11c-12.47,21.67-24.87,44.88-36.86,69-2.34,4.66-4.7,9.43-7.2,14.57q-1.73,3.5-3.4,7c-8.13,16.87-16.4,34.92-24.56,53.65A1.87,1.87,0,0,1,99.21,316.28Z"/><path class="cls-2" d="M194.42,3a.36.36,0,0,1,.26.11q3.73,4.07,7.41,8.19l0,.07c.49.53,1.11,1.26,1.67,1.9l1.69,2,3.38,4,6.65,8,3.3,4.08q2.8,3.48,5.58,7,2,2.61,4.07,5.24c3.41,4.43,6.82,8.87,10.14,13.36.81,1.09,1.61,2.18,2.41,3.28.33.45.66.89,1,1.34q3.63,4.93,7.18,9.92c1.09,1.53,2.16,3.06,3.23,4.61l.75,1.08c16,22.78,30,46.91,43.38,71.24q2.63,4.8,5.22,9.62l1.18,2.21q3.19,6,6.33,12h0l.58,1.13q12.67,24.44,24.25,49.38,7.22,15.48,14,31.14,1.5,3.44,3,6.87l.06.13q8.21,19,15.75,38.36a.35.35,0,0,1-.2.45l-.12,0a.37.37,0,0,1-.32-.22q-8.47-19.42-17.43-38.62l-3.3-7Q338.44,239,331,224.22q-12.85-25.87-26.8-51.15c-.36-.67-.73-1.34-1.12-2h0q-3.08-5.58-6.25-11.13c-20.87-1-41.67-2-62.5-2.3-12-.22-24-.38-36-.41h-2.75c-1.51,0-3,0-4.54,0,1.33-2.3,2.68-4.6,4-6.89h0q3.89-.12,7.76-.18c2.82,0,5.64-.07,8.46-.07q11.63,0,23.24.6c6.5.33,13,.79,19.48,1.28s13,1.15,19.41,2c7.23.86,14.45,1.84,21.63,3-1.1-1.94-2.22-3.88-3.34-5.81-6.92-12-14.18-23.73-21.65-35.35-7.25-11.16-14.66-22.22-22.06-33.3l-.83-1.24-2.59-3.87-3.18-4.74Q239.76,70,238,67.4L230.08,79c-2,2.85-3.88,5.73-5.79,8.6l-5.78,8.61c-7.67,11.5-15.37,23-22.89,34.55q-6.35,9.88-12.49,19.93c-1.32,2.17-2.63,4.34-3.94,6.53s-2.63,4.44-3.93,6.68c-.44.73-.86,1.47-1.29,2.21q-1.18,2-2.35,4.06h0q-19.51,33.92-36.9,69.07-3.66,7.28-7.21,14.58-1.73,3.5-3.4,7-12.83,26.6-24.59,53.7a.33.33,0,0,1-.31.21l-.15,0a.34.34,0,0,1-.19-.45c5-12.92,10.33-25.74,15.81-38.48q3.22-7.5,6.53-14.95H45.53a10,10,0,0,1-10-10v-65.4q-16.09,3.14-32.1,6.87H3.34a.35.35,0,0,1-.33-.27.33.33,0,0,1,.24-.41q16-4.47,32.28-8.21c2.33-.54,4.67-1.07,7-1.59q18.26-4.05,36.68-7.27c6.4-1.09,12.82-2.12,19.25-3,3.21-.49,6.43-.9,9.65-1.33l9.67-1.26c6.45-.71,12.9-1.55,19.38-2.12l9.71-.92,9.72-.76q6.07-.45,12.16-.83c.15-.29.31-.58.47-.87q1.67-3,3.36-6.06t3.53-6.31c11.32-20.12,23.24-40,36.48-58.88,3.94-5.72,8-11.34,12.14-16.94,3.19-4.4,6.47-8.72,9.78-13L224,46.82l-5.84-8.5-4.81-7-1.11-1.62L200.44,12.6q-3.19-4.5-6.31-9a.35.35,0,0,1,.09-.49.36.36,0,0,1,.2-.06m0-3a3.33,3.33,0,0,0-1.91.6,3.38,3.38,0,0,0-1.39,2.15,3.3,3.3,0,0,0,.54,2.5c2.27,3.32,4.35,6.29,6.34,9.09l11.78,17.07L210.89,33l4.81,7,5.84,8.5,9.27,13.62c-2.64,3.46-5.61,7.37-8.51,11.37-3.71,5.06-8,11-12.18,17-11.71,16.74-23.35,35.53-36.62,59.11-1.4,2.47-2.53,4.49-3.55,6.34l-3,5.48c-3.32.21-6.79.45-10.54.73l-9.73.76-9.76.93c-4.42.38-8.89.91-13.21,1.41l-6.22.71h-.06l-9.67,1.26-1.91.25c-2.55.34-5.19.69-7.8,1.09-6,.86-12.31,1.87-19.3,3.06-12.37,2.16-24.76,4.62-36.83,7.29l-7,1.6c-11,2.54-21.91,5.32-32.4,8.24a3.35,3.35,0,0,0,.89,6.57,3.57,3.57,0,0,0,.8-.09c9.55-2.22,19.08-4.28,28.39-6.14v61.75a13,13,0,0,0,13,13h71.08c-1.5,3.4-3,7-4.68,10.77-6,13.92-11.18,26.54-15.85,38.58a3.35,3.35,0,0,0,1.82,4.3,3.29,3.29,0,0,0,1.31.26,3.33,3.33,0,0,0,3.05-2c8.17-18.73,16.43-36.76,24.55-53.61,1.19-2.48,2.29-4.75,3.39-7,2.46-5,4.88-9.95,7.2-14.56,12-24.09,24.37-47.27,36.82-68.92l.09-.16q1.11-2,2.25-3.89l.37-.64c.3-.51.59-1,.9-1.54,1.4-2.41,2.68-4.59,3.94-6.69s2.61-4.34,3.93-6.51c3.75-6.16,7.82-12.66,12.45-19.87,6.26-9.64,12.77-19.38,19.06-28.81l3.8-5.69,5.77-8.6c2.32-3.49,4.1-6.13,5.78-8.58l5.43-8,1,1.48L242.17,79l2.59,3.87.41.61.43.66,2.07,3.09c6.59,9.86,13.4,20,20,30.15,8.07,12.56,15.13,24.08,21.56,35.21l.23.39c-4.89-.73-10-1.41-15.56-2.07-5-.64-10.1-1.11-15-1.57l-4.45-.41h-.06c-5.84-.44-12.72-.94-19.56-1.28-7.51-.41-15.17-.61-23.39-.61-2.77,0-5.63,0-8.51.07-2.59,0-5.21.1-7.8.18a3,3,0,0,0-2.58,1.64c-1.11,1.88-2.54,4.31-3.95,6.76a3,3,0,0,0,2.59,4.5c1.5,0,3,0,4.5,0h2.76c10.78,0,22.19.16,35.94.41,20.52.28,41.23,1.24,60.76,2.22,2,3.45,3.71,6.58,5.34,9.52a1.39,1.39,0,0,0,.11.21c.33.57.68,1.2,1.07,1.92,9,16.26,18,33.43,26.76,51.07C333.12,235,338,245,342.81,255.17l.05.11c1.08,2.29,2.17,4.58,3.25,6.88,5.74,12.29,11.59,25.25,17.39,38.53a3.33,3.33,0,0,0,3.07,2,3.25,3.25,0,0,0,1.23-.24,3.35,3.35,0,0,0,1.89-4.32C365,286,359.8,273.41,353.9,259.7l0-.11,0-.06c-1-2.29-2-4.57-3-6.85-4.6-10.61-9.33-21.11-14-31.2-7.87-16.93-16.05-33.58-24.3-49.5-.09-.16-.19-.36-.3-.57s-.13-.26-.2-.39l-.09-.18c-2.08-4-4.22-8.05-6.34-12-.26-.5-.54-1-.81-1.51l-.37-.7c-1.57-2.92-3.23-6-5.24-9.65-11.89-21.59-26.36-47-43.55-71.52l-.74-1.07c-1.15-1.66-2.21-3.18-3.25-4.64-2.11-3-4.4-6.14-7.21-9.95-.21-.3-.45-.62-.69-1l-.29-.39c-.8-1.1-1.6-2.2-2.42-3.3-3.26-4.4-6.53-8.67-10.17-13.4l-4.08-5.25c-2.19-2.77-4-5-5.61-7l-1.66-2-1.65-2-6.67-8.06-3.4-4-1.7-2-.51-.59c-.39-.45-.78-.89-1.12-1.26a1,1,0,0,0-.13-.16c-2.44-2.75-5-5.51-7.44-8.23A3.36,3.36,0,0,0,194.42,0Z"/></g></g></svg>