<svg xmlns="http://www.w3.org/2000/svg" viewBox="0 0 20 20"><defs><style>.cls-1{fill:#f8f8ff;}</style></defs><g id="Layer_2" data-name="Layer 2"><g id="Layer_1-2" data-name="Layer 1"><path class="cls-1" d="M16.88,12.5H15.63a.63.63,0,0,0-.63.63V17.5H2.5V5H8.13a.62.62,0,0,0,.62-.62V3.13a.63.63,0,0,0-.62-.63H1.88A1.88,1.88,0,0,0,0,4.38V18.13A1.88,1.88,0,0,0,1.88,20H15.63a1.87,1.87,0,0,0,1.87-1.87h0v-5A.63.63,0,0,0,16.88,12.5ZM19.06,0h-5a.94.94,0,0,0-.66,1.6L14.79,3,5.27,12.51a1,1,0,0,0,0,1.33h0l.89.89a.94.94,0,0,0,1.32,0h0L17,5.21,18.4,6.6A.94.94,0,0,0,20,5.94v-5A.94.94,0,0,0,19.06,0Z"/></g></g></svg>