<svg xmlns="http://www.w3.org/2000/svg" xmlns:xlink="http://www.w3.org/1999/xlink" viewBox="0 0 287.23 131.67"><defs><style>.cls-1{fill:#3B3B3B;}.cls-2{fill:#fff;}.cls-3{fill:none;}.cls-4{fill:url(#linear-gradient);}.cls-5{fill:url(#linear-gradient-2);}.cls-6{fill:url(#linear-gradient-3);}</style><linearGradient id="linear-gradient" x1="213.58" y1="113.42" x2="226.38" y2="113.42" gradientUnits="userSpaceOnUse"><stop offset="0" stop-color="#0cc0d4"/><stop offset="1" stop-color="#0a9dae"/></linearGradient><linearGradient id="linear-gradient-2" x1="206.45" y1="76.05" x2="254.46" y2="76.05" xlink:href="#linear-gradient"/><linearGradient id="linear-gradient-3" x1="228" y1="11.24" x2="236.48" y2="11.24" xlink:href="#linear-gradient"/></defs><g id="Layer_2" data-name="Layer 2"><g id="Layer_1-2" data-name="Layer 1"><path class="cls-1" d="M30.18,56.35a1.86,1.86,0,0,1,.68.13,1.83,1.83,0,0,1,.65.44l3.8,4a15.74,15.74,0,0,1-6.26,4.93,22,22,0,0,1-8.9,1.66,21.17,21.17,0,0,1-8.44-1.61,18.14,18.14,0,0,1-6.33-4.42,19.67,19.67,0,0,1-4-6.7A24.71,24.71,0,0,1,0,46.36a22.18,22.18,0,0,1,1.59-8.5A19.55,19.55,0,0,1,12.86,26.8a23.8,23.8,0,0,1,8.77-1.56,22.81,22.81,0,0,1,4.39.41,21.22,21.22,0,0,1,3.84,1.14,18.09,18.09,0,0,1,3.3,1.73,15.33,15.33,0,0,1,2.66,2.23l-3.23,4.34a3.89,3.89,0,0,1-.74.72,1.89,1.89,0,0,1-1.19.33,2.2,2.2,0,0,1-1-.23,10,10,0,0,1-1-.55l-1.12-.71a8.52,8.52,0,0,0-1.45-.71,11.61,11.61,0,0,0-2-.55,13.47,13.47,0,0,0-2.63-.23,12.11,12.11,0,0,0-4.77.92,10.63,10.63,0,0,0-3.7,2.64,12.17,12.17,0,0,0-2.41,4.16,16.24,16.24,0,0,0-.87,5.48A17,17,0,0,0,10.69,52,12.34,12.34,0,0,0,13,56.17a10.23,10.23,0,0,0,3.48,2.57,10.55,10.55,0,0,0,4.26.88,21.48,21.48,0,0,0,2.38-.13,10.2,10.2,0,0,0,2-.44,9.66,9.66,0,0,0,1.76-.81A11.12,11.12,0,0,0,28.61,57a3.8,3.8,0,0,1,.74-.46A1.87,1.87,0,0,1,30.18,56.35Z"/><path class="cls-1" d="M52.69,59.39H68v7.66H43.09V25.69h9.6Z"/><path class="cls-1" d="M86.47,67.05H76.82V25.69h9.65Z"/><path class="cls-1" d="M103.64,25.75a2.89,2.89,0,0,1,.77.21,2.66,2.66,0,0,1,.65.44,7.07,7.07,0,0,1,.71.77L125.42,52c-.08-.8-.14-1.57-.18-2.32s0-1.45,0-2.11V25.69h8.46V67.05h-5a4.53,4.53,0,0,1-1.87-.34,3.9,3.9,0,0,1-1.48-1.25L105.8,40.82c.06.72.1,1.43.14,2.12s.06,1.34.06,1.94V67.05H97.54V25.69h5A7.63,7.63,0,0,1,103.64,25.75Z"/><path class="cls-1" d="M154.37,67.05h-9.65V25.69h9.65Z"/><path class="cls-1" d="M193.23,56.35a1.87,1.87,0,0,1,1.34.57l3.8,4a15.81,15.81,0,0,1-6.26,4.93,22,22,0,0,1-8.9,1.66,21.17,21.17,0,0,1-8.44-1.61,18.14,18.14,0,0,1-6.33-4.42,19.51,19.51,0,0,1-4-6.7,24.71,24.71,0,0,1-1.39-8.42,22.18,22.18,0,0,1,1.59-8.5A19.55,19.55,0,0,1,175.92,26.8a23.8,23.8,0,0,1,8.77-1.56,22.62,22.62,0,0,1,4.38.41,21.09,21.09,0,0,1,3.85,1.14,18,18,0,0,1,3.29,1.73,15,15,0,0,1,2.67,2.23l-3.23,4.34a3.89,3.89,0,0,1-.74.72,1.91,1.91,0,0,1-1.19.33,2.13,2.13,0,0,1-1-.23c-.3-.15-.62-.33-1-.55l-1.12-.71a8.4,8.4,0,0,0-1.44-.71,11.89,11.89,0,0,0-2-.55,13.54,13.54,0,0,0-2.63-.23,12.11,12.11,0,0,0-4.77.92,10.54,10.54,0,0,0-3.7,2.64,12.36,12.36,0,0,0-2.42,4.16,16.5,16.5,0,0,0-.86,5.48,17.24,17.24,0,0,0,.86,5.65,12.53,12.53,0,0,0,2.36,4.16,10,10,0,0,0,3.48,2.57,10.48,10.48,0,0,0,4.26.88,21.48,21.48,0,0,0,2.38-.13,9.94,9.94,0,0,0,2-.44,9.36,9.36,0,0,0,1.76-.81A11.18,11.18,0,0,0,191.67,57a3.52,3.52,0,0,1,.74-.46A1.83,1.83,0,0,1,193.23,56.35Z"/><path class="cls-2" d="M237.64,57.07s0,0,0,0V57A.45.45,0,0,1,237.64,57.07Z"/><path class="cls-1" d="M287.23,77.66a4.87,4.87,0,0,1-4.73,4.9H249.15c-.16-.12-.31-.24-.48-.35l-.23-.16-.17-.12-.89-.58c-.28-.18-.6-.37-.92-.55l-.07,0-.26-.15-1-.51h0l0,0c-1.34-.67-2.62-1.32-3.88-1.93l-1.08-.54L239,77l-1.57-.77-8.61-4.21-.34-.17c-.26-.14-.53-.28-.81-.41l-.08,0h0l-.23-.12V27.79a5,5,0,0,1,4-5,4.9,4.9,0,0,1,5.78,4.82l0,33.63,0-.13V71.23a1.5,1.5,0,0,0,1.5,1.5h43.65A4.92,4.92,0,0,1,287.23,77.66Z"/><path class="cls-1" d="M237.21,85v41.55a5.09,5.09,0,0,1-4.43,5.13,4.85,4.85,0,0,1-4.08-1.53,5.12,5.12,0,0,1-1.33-3.54V83.18a1.5,1.5,0,0,0-1.5-1.5H4.48a4.27,4.27,0,0,1-2.87-1A4,4,0,0,1,.26,77.25a4.17,4.17,0,0,1,4.21-3.64H215.41L216,74l.23.15.09.06h0l.06,0,.1.07.49.31.3.18.25.15c.21.13.43.27.65.39l1,.57c.65.37,1.3.74,2,1.09.42.23.83.46,1.24.67l1.75.91,1.64.84,3.84,1.88,7.28,3.47Z"/><line class="cls-3" x1="220.59" y1="129.42" x2="219.95" y2="129.42"/><path class="cls-1" d="M237.68,57V57s0,0,0,0A.45.45,0,0,0,237.68,57Z"/><path class="cls-4" d="M226.38,108.83v3.22l-5.2,1.52-2.4.93c-.31.15-.57.26-.85.37a10.38,10.38,0,0,0-4.35,3.14c.63-3.64,3.73-5.78,5-6.54,1-.43,2-.83,3-1.23Z"/><path class="cls-5" d="M253.12,89.92l-.31-.56c-.19-.33-.41-.65-.63-1-.06-.1-.13-.19-.19-.28s-.37-.48-.57-.71-.52-.6-.8-.89-.43-.44-.65-.65-.54-.5-.82-.74h0q-.36-.31-.75-.6l-.28-.22-.59-.44-.42-.29-.77-.5c-.27-.17-.55-.34-.84-.5l-.32-.19-.95-.51c-1.33-.67-2.61-1.31-3.86-1.92l-1.09-.54-2.72-1.34L228,73.86c-.38-.19-.76-.4-1.16-.58l-.1,0-.41-.21-.67-.34-.14-.07c-.78-.4-1.53-.78-2.24-1.16l-.13-.07L221,70.23c-6.85-3.81-10.67-7.11-11.27-12.33l-.26-2.31a.87.87,0,0,1,.74-1l2.29-.35a18.41,18.41,0,0,0,5-1.36c3.93-1.79,5.91-5.68,5-7.84a2.86,2.86,0,0,0-2.42-1.6,6.32,6.32,0,0,0-.94-.07,6.74,6.74,0,0,0-1.06.08c-4.79.62-10.42,5-11.42,11.91a14.41,14.41,0,0,0-.16,2.6c0,.28,0,.56.06.83s.06.5.1.74.08.48.14.71a7.19,7.19,0,0,0,.24.88c.08.26.16.52.26.77a6.07,6.07,0,0,0,.31.76,15.76,15.76,0,0,0,.74,1.4c.09.16.19.33.3.49s.25.38.39.57l0,.06c.17.25.36.48.55.72s.3.38.47.57.54.61.83.91.49.5.75.74.61.57.93.85.87.73,1.34,1.09a1.09,1.09,0,0,0,.17.13c.43.33.86.65,1.31,1s.61.43.92.63l.14.09c.28.2.57.38.86.57l.11.07.11.07.8.5.83.5,1,.56L222,75.25l1.19.64c.59.32,1.17.62,1.74.91l1.65.84c1.24.62,2.52,1.24,3.8,1.86L237.69,83h0l.49.24.74.35,1.35.66c.58.28,1.17.56,1.75.86l.29.14,0,0,.58.28c.54.27,1.05.56,1.55.87a18.32,18.32,0,0,1,1.69,1.12,1.18,1.18,0,0,1,.18.13,13.66,13.66,0,0,1,1.16,1h0a14.67,14.67,0,0,1,2,2,.72.72,0,0,1,.17.23c.12.15.23.3.34.46a0,0,0,0,1,0,0,6.26,6.26,0,0,1,.34.55l.08.12c.08.14.15.29.22.43a6.67,6.67,0,0,1,.67,2c0,.21.06.43.08.65a.06.06,0,0,0,0,.06,4.87,4.87,0,0,1,0,.54c0,.09,0,.19,0,.29a.25.25,0,0,1,0,.12.25.25,0,0,1,0,.12c-.79,5.46-5.29,7.11-11.12,8.69l-.59.15-.41.1-.48.12-.49.12v3.26l.54-.14.33-.07c.61-.15,1.09-.26,1.32-.3,8.46-2.1,13.15-6,13.95-11.49A11,11,0,0,0,253.12,89.92ZM216.32,45.5a.87.87,0,1,1-.87.87A.87.87,0,0,1,216.32,45.5Z"/><path class="cls-1" d="M232.26,0a9.27,9.27,0,0,0-4.85,1.36c-.25.15-.5.33-.73.5a12.39,12.39,0,0,0-1,.88,7.66,7.66,0,0,0-.59.66,7.89,7.89,0,0,0-.49.65c-.11.15-.19.29-.29.44a9.63,9.63,0,0,0-.61,1.19,7.15,7.15,0,0,0-.31.86c-.05.15-.1.3-.14.46a8.18,8.18,0,0,0-.25,3,3.51,3.51,0,0,0,.05.55c0,.21.06.43.11.64a6.62,6.62,0,0,0,.17.71c0,.13.08.25.14.4a3.84,3.84,0,0,0,.14.4l.06.12a9.19,9.19,0,0,0,4.63,4.92,9,9,0,0,0,1.16.46h0a9.32,9.32,0,0,0,2.76.43h0a9.25,9.25,0,0,0,2.75-.42h0a8.23,8.23,0,0,0,1.11-.43A9.31,9.31,0,0,0,232.26,0Zm0,3.26a6.05,6.05,0,0,1,6,6.05,5.83,5.83,0,0,1-.32,1.93,3.61,3.61,0,0,1-.17.46,2.74,2.74,0,0,1-.21.42,6,6,0,0,1-10.7,0,2.74,2.74,0,0,1-.21-.42,3.61,3.61,0,0,1-.17-.46,5.83,5.83,0,0,1-.32-1.93A6.05,6.05,0,0,1,232.24,3.26Z"/><path class="cls-6" d="M232.24,8.5A4.69,4.69,0,0,0,228,11.23a4.64,4.64,0,0,0,8.48,0A4.69,4.69,0,0,0,232.24,8.5Z"/></g></g></svg>