<svg xmlns="http://www.w3.org/2000/svg" viewBox="0 0 1344.29 734.37"><defs><style>.cls-1{fill:#f8f8ff;}.cls-1,.cls-2,.cls-35{stroke:#6464c8;}.cls-1,.cls-10,.cls-18,.cls-2,.cls-22,.cls-30,.cls-34,.cls-35,.cls-38,.cls-40,.cls-7,.cls-8,.cls-9{stroke-miterlimit:10;}.cls-1,.cls-7{stroke-width:2px;}.cls-10,.cls-18,.cls-2,.cls-22,.cls-30,.cls-34,.cls-40,.cls-41,.cls-6,.cls-7,.cls-9{fill:none;}.cls-3{fill:#3b3b3b;}.cls-4{fill:#e7f0fd;}.cls-5{fill:#d1e2fb;}.cls-10,.cls-41,.cls-7,.cls-8{stroke:#e5b21a;}.cls-11,.cls-8{fill:#fff;}.cls-9{stroke:#40465c;}.cls-12{fill:#6464c8;}.cls-13{fill:#454545;}.cls-14{fill:#91882a;}.cls-15{fill:#cbc253;}.cls-16{fill:#96bed5;}.cls-17{fill:#e5b21a;}.cls-18{stroke:#d1e2fb;}.cls-19,.cls-35{fill:#f6f6f6;}.cls-20{fill:#c1c1e9;}.cls-21{fill:#8383d3;}.cls-22,.cls-38{stroke:#1d1d1b;}.cls-23{fill:#273036;}.cls-24{fill:#d28e46;}.cls-25{fill:#94bcd3;}.cls-26{fill:#cfe0f9;}.cls-27{fill:#c97c2d;}.cls-28{fill:#c5d7f9;}.cls-29{fill:#e38e32;}.cls-30{stroke:#f6f6f6;}.cls-31{fill:#d49046;}.cls-32{fill:#cb7c2d;}.cls-33{fill:#40465c;}.cls-34{stroke:#575756;}.cls-36{fill:#41465a;}.cls-37,.cls-38{fill:#48bfcb;}.cls-39{fill:#96c3d2;}.cls-40{stroke:#fff;}.cls-41{stroke-linecap:round;stroke-linejoin:round;stroke-width:6px;}.cls-42{opacity:0.36;}.cls-43{fill:#32323c;}.cls-44{font-size:12px;font-family:MyriadPro-Regular, Myriad Pro;}</style></defs><g id="Layer_2" data-name="Layer 2"><g id="Layer_1-2" data-name="Layer 1"><path class="cls-1" d="M965.25,115.89c102.39,44,202.68,102.45,232.14,177.54,29.46,74.55-12.62,165.74-72.24,235.46-60.31,69.2-138.86,117.47-220.22,145.9-80.65,28.42-164.81,36.47-258.79,46.66-93.28,10.19-196.37,21.46-298.77-1.61C244.28,697.31,142.58,639.39,115.93,565.9,90,492.42,139.78,402.85,184.66,316c44.19-86.9,82.76-171.11,160.61-221,77.15-49.88,194.27-65.43,304.38-59C759.76,42.94,863.55,72.44,965.25,115.89Z"/><g id="FLOOR"><line class="cls-2" x1="58.77" y1="632.55" x2="1336.51" y2="632.55"/><polygon class="cls-3" points="245.03 646.15 145.28 646.15 191.82 633.35 291.57 633.35 245.03 646.15"/><polygon class="cls-3" points="443.8 646.15 344.02 646.15 390.55 633.35 490.31 633.35 443.8 646.15"/><polygon class="cls-3" points="642.54 646.15 542.78 646.15 589.29 633.35 689.08 633.35 642.54 646.15"/><polygon class="cls-3" points="841.28 646.15 741.52 646.15 788.06 633.35 887.81 633.35 841.28 646.15"/><polygon class="cls-3" points="1040.04 646.15 940.26 646.15 986.79 633.35 1086.55 633.35 1040.04 646.15"/><polygon class="cls-3" points="297.9 658.95 198.14 658.95 244.65 646.15 344.43 646.15 297.9 658.95"/><polygon class="cls-3" points="99.76 658.95 0 658.95 46.51 646.15 146.29 646.15 99.76 658.95"/><polygon class="cls-3" points="496.63 658.95 396.88 658.95 443.41 646.15 543.17 646.15 496.63 658.95"/><polygon class="cls-3" points="904.76 652.55 805 652.55 851.51 639.75 951.29 639.75 904.76 652.55"/><polygon class="cls-3" points="1092.87 658.95 993.12 658.95 1039.65 646.15 1139.41 646.15 1092.87 658.95"/><polygon class="cls-3" points="695.4 658.95 595.61 658.95 642.15 646.15 741.91 646.15 695.4 658.95"/><polygon class="cls-3" points="204.76 684.84 105.01 684.84 151.51 672.04 251.27 672.04 204.76 684.84"/><polygon class="cls-3" points="403.5 684.84 303.74 684.84 350.25 672.04 450.04 672.04 403.5 684.84"/><polygon class="cls-3" points="602.27 684.84 502.48 684.84 549.02 672.04 648.77 672.04 602.27 684.84"/><polygon class="cls-3" points="801 684.84 701.25 684.84 747.75 672.04 847.51 672.04 801 684.84"/><polygon class="cls-3" points="999.74 684.84 899.98 684.84 946.49 672.04 1046.28 672.04 999.74 684.84"/><polygon class="cls-3" points="151.99 671.74 52.23 671.74 98.77 658.95 198.53 658.95 151.99 671.74"/><polygon class="cls-3" points="350.76 671.74 250.97 671.74 297.51 658.95 397.26 658.95 350.76 671.74"/><polygon class="cls-3" points="549.5 671.74 449.74 671.74 496.25 658.95 596.03 658.95 549.5 671.74"/><polygon class="cls-3" points="748.23 671.74 648.48 671.74 695.01 658.95 794.77 658.95 748.23 671.74"/><polygon class="cls-3" points="947 671.74 847.21 671.74 893.75 658.95 993.5 658.95 947 671.74"/><polygon class="cls-3" points="1237.14 646.15 1137.38 646.15 1183.89 633.35 1283.68 633.35 1237.14 646.15"/><polygon class="cls-3" points="1290 658.95 1190.21 658.95 1236.75 646.15 1336.51 646.15 1290 658.95"/><polygon class="cls-3" points="1196.87 684.84 1097.08 684.84 1143.62 672.04 1243.37 672.04 1196.87 684.84"/><polygon class="cls-3" points="1144.09 671.74 1044.34 671.74 1090.85 658.95 1190.63 658.95 1144.09 671.74"/></g><g id="CHAIRS"><path class="cls-2" d="M465,553H81.44a18.19,18.19,0,0,1-17.9-14.91l-10-54.38a17.85,17.85,0,0,1,17.57-21.09H374.8a20.22,20.22,0,0,1,19.9,16.64l10.5,58.83A18.19,18.19,0,0,0,423.1,553"/><path class="cls-4" d="M204.55,550.57v1.55H86.21v-1.55a14.16,14.16,0,0,1,14.17-14.17h90A14.17,14.17,0,0,1,204.55,550.57Z"/><path class="cls-4" d="M334.11,552.12H215.77v-.39A15.33,15.33,0,0,1,231.1,536.4h87.68a15.33,15.33,0,0,1,15.33,15.33Z"/><path class="cls-4" d="M463.7,552.12H345.36v-.39a15.33,15.33,0,0,1,15.33-15.33h87.68a15.33,15.33,0,0,1,15.33,15.33v.39Z"/><path class="cls-5" d="M125,550.57v1.55H86.18v-1.55a14.16,14.16,0,0,1,14.17-14.17h10.44A14.16,14.16,0,0,1,125,550.57Z"/><path class="cls-5" d="M254.55,550.57v1.55H215.77v-1.55a14.16,14.16,0,0,1,14.17-14.17h10.44A14.16,14.16,0,0,1,254.55,550.57Z"/><path class="cls-5" d="M384.14,550.57v1.55H345.36v-1.55a14.16,14.16,0,0,1,14.17-14.17H370A14.18,14.18,0,0,1,384.14,550.57Z"/><path class="cls-5" d="M145.13,513.94H76.31a15,15,0,0,1-14.77-12.29l-8.29-44.87a14.73,14.73,0,0,1,14.5-17.39h68.82a15,15,0,0,1,14.76,12.29l8.3,44.86A14.74,14.74,0,0,1,145.13,513.94Z"/><path class="cls-5" d="M270.69,513.94H201.87a15,15,0,0,1-14.77-12.29l-8.29-44.87a14.73,14.73,0,0,1,14.5-17.39h68.82a15,15,0,0,1,14.77,12.29l8.29,44.86A14.74,14.74,0,0,1,270.69,513.94Z"/><path class="cls-4" d="M145.13,513.94H82.07A15,15,0,0,1,67.3,501.65L59,456.78A14.73,14.73,0,0,1,73.5,439.39h63.07a15,15,0,0,1,14.76,12.29l8.3,44.86A14.74,14.74,0,0,1,145.13,513.94Z"/><path class="cls-4" d="M270.69,513.94H207.63a15,15,0,0,1-14.77-12.29l-8.29-44.87a14.73,14.73,0,0,1,14.5-17.39h63.06a15,15,0,0,1,14.77,12.29l8.29,44.86A14.74,14.74,0,0,1,270.69,513.94Z"/><path class="cls-6" d="M55.43,493.47H88.12c18.29,0,34.31,14.2,39,34.64L132.9,553"/><path class="cls-2" d="M410.12,493.47h9.28c18.29,0,34.31,14.2,39,34.64L464.18,553"/><path class="cls-5" d="M396.25,513.94H327.43a15,15,0,0,1-14.77-12.29l-8.29-44.87a14.73,14.73,0,0,1,14.5-17.39h68.82a15,15,0,0,1,14.77,12.29l8.29,44.86A14.74,14.74,0,0,1,396.25,513.94Z"/><path class="cls-4" d="M396.25,513.94H333.19a15,15,0,0,1-14.77-12.29l-8.29-44.87a14.73,14.73,0,0,1,14.5-17.39h63.06a15,15,0,0,1,14.77,12.29l8.29,44.86A14.74,14.74,0,0,1,396.25,513.94Z"/><polyline class="cls-2" points="74.13 632.69 96.59 553.22 126.72 553.22 149.19 632.69"/><polyline class="cls-2" points="388.64 632.69 411.11 553.22 441.24 553.22 463.7 632.69"/></g><g id="CLOCK"><path class="cls-4" d="M662.7,206.37H605a12,12,0,0,1-12-12V136.66a12,12,0,0,1,12-12H662.7a12,12,0,0,1,12,12v57.72A12,12,0,0,1,662.7,206.37Z"/><path class="cls-7" d="M666.94,202.23H609.22a12,12,0,0,1-12-12V132.51a12,12,0,0,1,12-12h57.72a12,12,0,0,1,12,12v57.72A12,12,0,0,1,666.94,202.23Z"/><rect class="cls-8" x="636.07" y="120.52" width="4.06" height="12.02"/><rect class="cls-8" x="636.07" y="190.18" width="4.06" height="12.02"/><rect class="cls-8" x="597.24" y="159.32" width="12.02" height="4.06"/><rect class="cls-8" x="666.92" y="159.35" width="12.02" height="4.06"/><polyline class="cls-7" points="630.93 145.25 637.88 161 618.55 177.97"/><circle class="cls-8" cx="638.09" cy="161.36" r="2.03"/></g><g id="LAMP"><line class="cls-9" x1="827.61" x2="827.61" y2="94.77"/><line class="cls-9" x1="1006.27" x2="1006.27" y2="94.77"/><line class="cls-9" x1="1184.9" x2="1184.9" y2="94.77"/><path class="cls-10" d="M790.17,114.64c0-14.35,11.7-19.87,26.11-19.87h379c14.4,0,26.1,6.3,26.1,20.68"/><path class="cls-4" d="M993.24,113.45H808.64a5.5,5.5,0,0,1-5.49-5.49h0a5.5,5.5,0,0,1,5.49-5.49h184.6a5.5,5.5,0,0,1,5.49,5.49h0A5.48,5.48,0,0,1,993.24,113.45Z"/><path class="cls-4" d="M1203.28,113.45h-184.6a5.5,5.5,0,0,1-5.49-5.49h0a5.5,5.5,0,0,1,5.49-5.49h184.6a5.5,5.5,0,0,1,5.49,5.49h0A5.5,5.5,0,0,1,1203.28,113.45Z"/></g><g id="SHELF"><g id="BOOKS"><rect class="cls-11" x="1071.72" y="249.45" width="71.74" height="13.87"/><rect class="cls-12" x="1082.94" y="243.16" width="72.46" height="5.43"/><rect class="cls-11" x="1076.2" y="235.13" width="72.46" height="7.1"/><rect class="cls-4" x="1071.84" y="226.12" width="63.9" height="8.08"/></g><polygon id="SHELF-2" data-name="SHELF" class="cls-13" points="1155.64 274.99 1020.83 274.99 994.28 236.32 870.39 236.32 870.39 226.12 999.53 226.12 1026.08 264.78 1155.64 264.78 1155.64 274.99"/><g id="PLANT"><path class="cls-5" d="M1041.86,264.13h0a18.33,18.33,0,0,1-18.34-18.35v-2.92h36.69v2.92A18.38,18.38,0,0,1,1041.86,264.13Z"/><path class="cls-14" d="M1029.33,242.89s-7.93,6.47-12.5,1.16c-3.28-3.85,9.73-3.85,9.73-3.85s-6.86-5.49-4.68-6.47c5.33-2.45,8.47,5.76,8.47,5.76s-7.37-13.76-1-16.11c5.25-1.94,5.25,12.23,5.25,12.23s1.11-5.76,4.09-5.37.84,6.47.84,6.47,2.59-1.76,2.77,2.24c0,0,.51-15.15,6.86-13.72,5.28,1.19-1.76,11.57-1.76,11.57s4.09-5.1,7.7-3.52-3.25,6.3-3.25,6.3,9.81-9.16,13.36-6.72c2.71,1.88-4.18,6.48-4.18,6.48s4.93-1.37,6,1-6.89,2.54-6.89,2.54h-30.85Z"/><path class="cls-15" d="M1033.51,242.89s.27-13.07,5.19-12.68-1.94,12.68-1.94,12.68Z"/><path class="cls-15" d="M1033.51,242.89s-4.92-12.32-11.63-9.16c-6.54,3.07,7.51,9.16,7.51,9.16Z"/><path class="cls-15" d="M1043.65,242.89s4.42-11.1,11.46-10.06-8.68,10.06-8.68,10.06Z"/><path class="cls-15" d="M1050.87,242.89s13.75-6.92,16.23-2.75S1050.87,242.89,1050.87,242.89Z"/></g><g id="DOCUMENTS"><rect class="cls-11" x="887.63" y="155.63" width="18.82" height="70.52"/><rect class="cls-16" x="892.71" y="179.85" width="8.65" height="2.24"/><rect class="cls-16" x="892.71" y="185.79" width="8.65" height="2.24"/><rect class="cls-16" x="892.71" y="191.76" width="8.65" height="2.24"/><rect class="cls-16" x="892.71" y="197.69" width="8.65" height="2.24"/><circle class="cls-16" cx="897.03" cy="213.95" r="4.24"/><rect class="cls-11" x="908.1" y="155.63" width="18.82" height="70.52"/><rect class="cls-17" x="913.2" y="179.85" width="8.65" height="2.24"/><rect class="cls-17" x="913.2" y="185.79" width="8.65" height="2.24"/><rect class="cls-17" x="913.2" y="191.76" width="8.65" height="2.24"/><rect class="cls-17" x="913.2" y="197.69" width="8.65" height="2.24"/><circle class="cls-17" cx="917.52" cy="213.95" r="4.24"/><rect class="cls-4" x="928.59" y="155.63" width="18.82" height="70.52"/><rect class="cls-11" x="933.66" y="179.56" width="8.65" height="2.24"/><rect class="cls-11" x="933.66" y="185.49" width="8.65" height="2.24"/><rect class="cls-11" x="933.66" y="191.46" width="8.65" height="2.24"/><rect class="cls-11" x="933.66" y="197.39" width="8.65" height="2.24"/><circle class="cls-11" cx="937.99" cy="213.65" r="4.24"/><rect class="cls-11" x="949.06" y="155.63" width="18.82" height="70.52"/><rect class="cls-12" x="954.16" y="179.85" width="8.65" height="2.24"/><rect class="cls-12" x="954.16" y="185.79" width="8.65" height="2.24"/><rect class="cls-12" x="954.16" y="191.76" width="8.65" height="2.24"/><rect class="cls-12" x="954.16" y="197.69" width="8.65" height="2.24"/><circle class="cls-12" cx="958.48" cy="213.95" r="4.24"/></g></g><g id="PLANT-2" data-name="PLANT"><path class="cls-5" d="M1274.34,581.86A66.41,66.41,0,0,1,1278.9,602l-1.49.09a60.21,60.21,0,0,0-2.42-13.58l-10.79-6.08c4.77-.84,7.69.36,9.45,2-.83-2.36-1.79-4.66-2.8-6.86l-18.68-8.77c8.62-.87,13.91,2.2,16.89,5.07-1.22-2.42-2.51-4.66-3.79-6.77l-23.72-6.15c8.8-2.27,16.11-1.61,20.86,1.73a1.27,1.27,0,0,1-.15-.21c-1.91-2.8-3.79-5.34-5.55-7.55l-23.9-2.65c10.47-4.77,18-2.15,22,.27-2.42-2.9-4.39-5-5.49-6.15-5.88-3.64-23.66-14.88-21.87-16.4,2-1.74,11.7-3.91,22.11,14.52h0a107.36,107.36,0,0,1,8.17,9.28c-3-6.5-5.49-15.75-1.28-24.34l6,30.66c.32.48.68,1,1,1.47,1.1,1.61,2.24,3.37,3.34,5.25-2.77-7.07-4.47-16.77.57-24.67l2.68,30.45c.72,1.38,1.4,2.81,2.09,4.27-1.28-6.71.36-12.35,5.07-19.06Z"/><path class="cls-5" d="M1282.33,561.82c2.69,28.6,3.58,45.37,3.61,45.79l-1.49.09c0-.45-1.13-21-4.53-55.58v0a71.7,71.7,0,0,1-.78-7.7q-.9-8.58-1.94-18.16c0-.27-.09-.54-.12-.81-10.08-27.06-21.83-28.76-21.83-28.76,10.53.54,16.49,5.34,19.8,11.16-.44-3.61-.89-7.34-1.37-11.1-8.77-24.22-25.3-28.37-25.3-28.37,12.27-2.26,19.13,3,22.92,10.09-.39-3-.81-5.91-1.23-8.92-4.59-5.61-17-19.84-29.14-26.14,0,0,19.15.15,27.35,13.52-.18-1.25-.36-2.54-.56-3.82-4.54-9.1-15.49-29.09-27.18-35.14a30.48,30.48,0,0,1,24.34,16.32c-.48-3.11-1-6.27-1.49-9.43-6.35-8.29-26-32.9-37.32-36.22,0,0,24.19-3.61,35.2,23.18-.62-3.79-1.28-7.63-1.94-11.48-5.16-10.14-17.36-31.18-29.56-31.18,0,0,16.94-6.32,26.49,13.58-.75-4.09-1.49-8.21-2.27-12.35-9.27-2.15-7.9-54.92-5.78-55,0,0,12.14,51,7.27,54.86q1.93,10.24,3.67,20.28a.71.71,0,0,1,.06.24c-3.58-37.05,18-36.54,18-36.54-13.84,15.9-15.09,53.43-15.09,53.43s0-.15-.06-.21q1.29,7.69,2.5,15.21c0,.18.09.36.12.57-4.08-44,24.76-42.39,24.76-42.39-15,12.62-22.52,45.67-23.53,50.32.44,2.9.89,5.76,1.34,8.63.33.92.59,1.87.86,2.89-.5-34.75,26-33.74,26-33.74-17.57,12.17-23.42,47-24,50.44.09.72.21,1.44.3,2.12l.36,1.08c1.19-26.14,26.19-29.33,26.19-29.33-24.19,13.58-23.72,47.82-23.72,47.82a9.92,9.92,0,0,0-.29-1c.17,1.22.32,2.41.47,3.61a40.66,40.66,0,0,1,1.11,4c.74-27.29,16.26-23.65,16.26-23.65-7.52,7.63-11,24.61-12.53,36.57,4.68-12,15.45-10.2,15.45-10.2-8.83,7.81-12,28.88-13.16,40.9,3.76-10.77,13.16-9.25,13.16-9.25C1284.66,530.07,1282.72,555,1282.33,561.82Z"/><path class="cls-5" d="M1314.79,522.29c-.33,1.4-.69,2.8-1,4.17,8.26-15.72,22.1-15.15,22.1-15.15-15.12,10.29-22.76,24.37-26.61,34.66-.39,1.73-.77,3.44-1.13,5.08-.24,1.1-.48,2.17-.72,3.25,8-18.5,23.39-17.87,23.39-17.87-16.41,11.16-24,26.79-27.51,37.23v0c-3.37,16.26-5.57,27.74-5.6,27.92l-1.47-.27c0-.09.75-4,2-10.38-.5-5.82-2.06-19.21-5.72-24,0,0,6.5,1.52,7.9,10.44-.3-9.88-1.58-27.69-7.07-35,0,0,10.26,4.56,10.2,22.76.45-2.09.9-4.21,1.38-6.39.11-9.45-.21-37.17-7.79-47.76,0,0,13,6.09,11.78,29.65.33-1.4.63-2.8,1-4.23.15-7.19.36-38.13-7.76-49.46,0,0,14.62,6.83,11.43,34,.77-3.23,1.58-6.42,2.38-9.58-.92-8.53-3.9-35.47-5-38.24-1.49-3.64,8.62,10,6.89,31.11,1.29-4.86,2.6-9.55,3.88-13.93-.8-7.34-3.07-27.71-3.94-29.86-1.19-2.9,6.86,7.93,5.49,24.82,1.14-3.64,2.27-7,3.34-10,1.43-10.71,5.55-36.12,12-34.81,4.2.87-5.49,23.75-10.18,34.25h0c-1.46,3.91-3,8.53-4.53,13.6,3.55-7.61,9.81-15.51,20.43-15.33,0,0-12.5,4-23.89,27.44-.81,3-1.61,6-2.42,9.13,4.36-10,12.32-20.88,26.31-20.64C1344.29,488.91,1329,493.77,1314.79,522.29Z"/><path class="cls-17" d="M1305.36,631.32h-37a12.18,12.18,0,0,1-12.17-12.17v-8A12.19,12.19,0,0,1,1268.4,599h37a12.18,12.18,0,0,1,12.17,12.18v7.93A12.18,12.18,0,0,1,1305.36,631.32Z"/></g><g id="POSTERS"><rect class="cls-4" x="296.76" y="101.61" width="173.02" height="231.07"/><rect class="cls-18" x="303.39" y="95.55" width="173.02" height="231.07"/><path class="cls-5" d="M458.54,191.82V243l-15.87-8.18c-2.27,0-14.38,81.44-14.38,81.44H344.76s-12.11-81.44-14.38-81.44l-14.61,7.67V190.8c0-12.29,28.4-19.57,37-24.25,14-7.64,17.36-17.54,17-27h.54l-.57-.09c-1.79-11.3-6-14.5-6.05-25.68h53.63c-.8,9.33-1.31,19.06-7.84,25.89-1.38,1.43-4.12,2.21-7.55,2.54.3,9,5.31,19.3,18.46,24.31C431.45,170.81,458.54,181.43,458.54,191.82Z"/><path class="cls-19" d="M399.74,178.54c-8.14,0-9.43,41.62-7.25,57.31,1.61,11.6,28.1,17.9,32.31,12.5C434.49,235.91,415.28,178.54,399.74,178.54Z"/><path class="cls-19" d="M374.62,178.54c8.15,0,9.43,41.62,7.25,57.31-1.61,11.6-28.58,18.22-32.31,12.5C339.36,232.71,359.08,178.54,374.62,178.54Z"/><path class="cls-19" d="M401,257.8c.21-4-18-8.92-40.39-2.29-17.27,5.13-12.05,32.39-4.83,32.36,3.58,0,6-7.54,12.92-7.45,17,.26,25.23-6.09,26.9-16.71C396.25,259.68,400.87,261,401,257.8Z"/><path class="cls-19" d="M390.49,278.92c-.92,4.06,24.82,2,28-10.2,2.84-10.77-8.26-13.09-13.57-7.7-3.76,3.82-3.46,5-6.41,10.39C394.94,277.91,391,276.72,390.49,278.92Z"/><path class="cls-19" d="M419.37,275.05a27,27,0,0,1-12.11,8.5c-5.31,1.94-10.59,2-16.2,1.79-11.22-.39-24.61-1.73-32.78,7.63a23.07,23.07,0,0,0-5.85,16.77,3.64,3.64,0,0,0,3.55,3.55,3.56,3.56,0,0,0,3.55-3.55,15.66,15.66,0,0,1,3.88-11.87c3.34-3.73,7.87-5.22,13-5.49,11.16-.63,22.85,2,33.56-2.27a35.1,35.1,0,0,0,15.52-11.45c1.16-1.56.23-4-1.29-4.87-1.79-1.07-3.67-.27-4.83,1.26Z"/><rect class="cls-4" x="69.84" y="101.61" width="173.02" height="231.07"/><rect class="cls-18" x="76.46" y="95.55" width="173.02" height="231.07"/><circle class="cls-11" cx="130.63" cy="147.01" r="34.43"/><path class="cls-5" d="M146.8,116.64,130.63,147V112.58a34,34,0,0,1,16.17,4.06Z"/><path class="cls-16" d="M165.06,147H130.63l16.17-30.37h0A34.39,34.39,0,0,1,165.06,147Z"/><path class="cls-20" d="M165.06,147a34.44,34.44,0,0,1-59.28,23.83h0L130.63,147h34.43Z"/><path class="cls-21" d="M130.63,147l-24.85,23.8h0a34.15,34.15,0,0,1-4.89-6.5Z"/><polyline class="cls-6" points="152.14 133.08 168.22 121.38 181.38 121.38"/><line class="cls-22" x1="152.14" y1="158.91" x2="181.23" y2="177.47"/><rect class="cls-11" x="160.31" y="202.67" width="68.97" height="94.3"/><rect class="cls-11" x="96.21" y="306.1" width="133.08" height="5.73"/><rect class="cls-5" x="96.21" y="202.91" width="55.9" height="6.95"/><rect class="cls-5" x="96.21" y="217.47" width="55.9" height="6.95"/><rect class="cls-5" x="96.21" y="232.03" width="55.9" height="6.95"/><rect class="cls-5" x="96.21" y="246.59" width="55.9" height="6.95"/><rect class="cls-5" x="96.21" y="261.15" width="55.9" height="6.95"/><rect class="cls-5" x="96.21" y="275.7" width="55.9" height="6.95"/><rect class="cls-5" x="96.21" y="290.26" width="55.9" height="6.95"/><rect class="cls-5" x="184.36" y="116.88" width="44.93" height="4.47"/><rect class="cls-5" x="184.36" y="124.19" width="44.93" height="4.47"/><rect class="cls-5" x="184.36" y="131.5" width="30.55" height="4.47"/><rect class="cls-5" x="184.36" y="179.68" width="44.93" height="4.47"/><rect class="cls-5" x="184.36" y="186.98" width="44.93" height="4.47"/></g><g id="RECEPTION"><g id="SECRETARY"><g id="CHAIR"><path class="cls-23" d="M1206.86,476.2l-12.53,41c-2.59,8.5-9.87,14.26-18,14.26H1105.4c-8.17,0-15.42-5.73-18-14.26l-10.32-33.68c-1.79-5.88,2.18-12,7.82-12h7.93a7.78,7.78,0,0,0,7.43-7.1l4.63-36.13c1.1-8.62,7.81-15,15.72-15h63.84c9.66,0,17.06,9.4,15.72,19.9l-4,31.18c-.48,3.81,2.21,7.19,5.7,7.19h1.91A3.53,3.53,0,0,1,1206.86,476.2Z"/><rect class="cls-11" x="1135.35" y="530.28" width="10.38" height="77.26"/><path class="cls-6" d="M1168.88,617.84v-3.58c0-3.7-4.26-6.71-9.51-6.71h-37c-5.25,0-9.52,3-9.52,6.71v3.58"/><circle class="cls-11" cx="1113.04" cy="625.12" r="7.28"/><circle class="cls-11" cx="1168.76" cy="625.12" r="7.28"/></g><g id="LEGS"><g id="LEFT_LEG" data-name="LEFT LEG"><path id="FOOT" class="cls-24" d="M1049.2,596.27c-.92,3.49-4.32,15.48-3.1,19.78s4.62,7.46,3.67,11.84c-1,4.66-28.37,1.7-29.21,1.52s14.53-8.71,14.71-15.06-1.85-18.08-1.85-18.08Z"/><g id="SHOES"><path class="cls-25" d="M1016.21,632.75H1050a1.46,1.46,0,0,0,1.46-1.46h0a1.47,1.47,0,0,0-1.46-1.46h-33.83a1.46,1.46,0,0,0-1.46,1.46h0A1.46,1.46,0,0,0,1016.21,632.75Z"/><path class="cls-26" d="M1040.43,630s-3.55-4.33-8.56-5.61c-5.49-1.4-8.15-.66-11.1.84a11.86,11.86,0,0,0-4.47,4.56Z"/><path class="cls-26" d="M1040.55,630s-.3-10.14,6.41-11.49c0,0,6.45,5.76,2.9,11.49Z"/></g><path id="SHADOW" class="cls-27" d="M1049.2,596.27h-15.75s.39,2.24.81,5.31c5.72.54,11.63-1.37,14.14-2.33C1048.72,598,1049,597,1049.2,596.27Z"/><path id="PANT" class="cls-28" d="M1086.31,527.33c-8.71,0-17.63-.09-29.41-.27,1.43,10.14,2.95,22.73,2.71,33.08-.21,9.73-2.21,11-2.15,15.16.15,6.59-4.26,8.77-2.83,13.48,2.39,7.91-5.43,7.49-5.43,7.49s-10.26,1.88-18,0l-7.93-81.59c-2.27-7.58,7.72-16.73,17.63-21.15,17-7.64,81.65-36.78,90.09-10.14C1133.21,490.49,1126,527.39,1086.31,527.33Z"/></g><g id="RIGHT_LEG" data-name="RIGHT LEG"><path id="FOOT-2" data-name="FOOT" class="cls-24" d="M1097.23,596.27c-.93,3.49-4.33,15.48-3.1,19.78s4.62,7.46,3.67,11.84c-1,4.66-28.37,1.7-29.21,1.52s14.53-8.71,14.71-15.06-1.85-18.08-1.85-18.08Z"/><g id="SHOES-2" data-name="SHOES"><path class="cls-25" d="M1064.24,632.75h33.82a1.46,1.46,0,0,0,1.47-1.46h0a1.47,1.47,0,0,0-1.47-1.46h-33.82a1.47,1.47,0,0,0-1.47,1.46h0A1.46,1.46,0,0,0,1064.24,632.75Z"/><path class="cls-26" d="M1088.46,630s-3.55-4.33-8.56-5.61c-5.49-1.4-8.15-.66-11.1.84a11.86,11.86,0,0,0-4.47,4.56Z"/><path class="cls-26" d="M1088.58,630s-.3-10.14,6.41-11.49c0,0,6.45,5.76,2.9,11.49Z"/></g><path id="SHADOW-2" data-name="SHADOW" class="cls-27" d="M1097.23,596.27h-15.75s.39,2.24.8,5.31c5.73.54,11.64-1.37,14.14-2.33C1096.75,598,1097.05,597,1097.23,596.27Z"/><path id="PANT-2" data-name="PANT" class="cls-26" d="M1128.37,527.33c-8.71,0-17.63-.09-29.41-.27,1.43,10.14,3,22.73,2.71,33.08-.2,9.73.78,11,.84,15.16.15,6.59-1.28,8.77.15,13.48,2.39,7.91-5.43,7.49-5.43,7.49s-10.26,1.88-18,0l-13.9-81.59c-2.27-7.58,1.76-16.73,11.66-21.15,17-7.64,79.5-43.34,89.8-3.28C1168.62,497.44,1168.05,527.39,1128.37,527.33Z"/></g></g><g id="LEFT_HAND" data-name="LEFT HAND"><path class="cls-5" d="M1103.76,385.72c1.08,6.77,6.27,10.41-12.77,57.34-7.21,17.81-21.86,9.3-20.79.18s13.07-44.9,17.18-53.22C1091.83,381,1102.87,380.05,1103.76,385.72Z"/><path class="cls-29" d="M1084.19,450.69c-13.78,6.86-67.54,2.9-67.68-.56-.18-4,47.43-13.07,57.57-14.17C1086.19,434.61,1092.43,446.58,1084.19,450.69Z"/><path class="cls-29" d="M1026,447.89c-.36-1.22-9.93-1.08-13.06-.21s-7.46,4.5-8.06,5.31a38,38,0,0,0-2,5s1.23,1.55,3-.83,6.26-4.93,7.36-4.21c2.45,1.64-3.19,2.86-3.84,3.82s-.39,1.61-.39,1.61,5.81-1.16,6.74-1.22a15.42,15.42,0,0,0,5.76-2.78C1023.28,453,1026.53,449.71,1026,447.89Z"/></g><g id="SHIRT"><path class="cls-4" d="M1166.11,496.87c8.68,10.17-9.76-35.77-13.22-47.34-1.64-5.49,2.09-26.73,6.09-44.06,4-17.54-2.3-23.87-13.22-26.58-12.17-3-27.89-2.24-31.59-1.73-11.75,1.55-14.58,2.95-20,5.85-2.69,1.43-2.54,29.41-3.34,36.78s3.1,11.81,7.69,14.85c1.31.87,4.06,5.46,4,16.32s-1.64,16.68-6,22.79C1096.54,473.75,1141.44,467.91,1166.11,496.87Z"/><polyline class="cls-30" points="1142.51 378.38 1114.74 411.23 1102.48 378.95"/></g><g id="RIGHT_HAND" data-name="RIGHT HAND"><path class="cls-5" d="M1155.91,383.78c5,4.65,11.45,14.17,25.41,62.86,5.28,18.46-6.8,17.92-11.57,10.05s-25-43.61-27-52.71C1139.35,388.2,1151.73,379.9,1155.91,383.78Z"/><path class="cls-29" d="M1178.94,461.73c-14.29,7.19-72.76-.51-72.94-4.09-.21-4.2,49.88-8,60.41-9.18C1178.94,447,1187.44,457.43,1178.94,461.73Z"/><path class="cls-29" d="M1114,458.36c.06,1.28-9.06,4.21-12.32,4.38s-8.5-1.87-9.33-2.44a36,36,0,0,1-3.52-4.09s.65-1.88,3.1-.18,7.52,2.66,8.32,1.61c1.79-2.32-3.94-1.67-4.89-2.38s-.89-1.4-.89-1.4,5.87-.78,6.77-1a15.22,15.22,0,0,1,6.35.78C1109.73,454.42,1113.85,456.45,1114,458.36Z"/></g><g id="HEAD"><g id="HAIR"><path class="cls-17" d="M1130.58,353.59c4.77-.95,11.19-9.75,9-17.3s-12.92-16.44-23.87-12.92-17.69,8.8-16.37,19.63c1,8.59,28,36.66,46.47,35.62,7.46-.42,15-16.11,5.23-22S1130.58,353.59,1130.58,353.59Z"/><path class="cls-10" d="M1155.4,356.66c-9.84-9-24.55-3.34-24.55-3.34"/></g><g id="NECK"><path id="NECK-2" data-name="NECK" class="cls-31" d="M1129.06,352.67s-1.55,17.81,7.82,24.76l-20,23.3-8.71-22.44s9.78-1.82,5.73-25.65h15.18Z"/><path id="SHADOW-3" data-name="SHADOW" class="cls-32" d="M1129,356.13c0,.33-.06.5-.06.5,0,3.29-6.68,15.85-15.93,16.89,1.67-3.61,2.74-9.9.9-20.85h15.21A23.68,23.68,0,0,0,1129,356.13Z"/></g><path id="FACE" class="cls-31" d="M1128.94,354.13a2,2,0,0,0,0,.3c.27,2.44-9.49,12.2-17.18,13.09-3.46.39-8.59-9.57-9.46-12.94A55.51,55.51,0,0,1,1100.9,343c-.09-2.86.09-10.05,8.35-10.05s13,18.31,19.12,14.62c.12-.27,1.17-2.42,3.82-.72C1134.19,348.13,1131.21,352.79,1128.94,354.13Z"/><polyline class="cls-9" points="1108.95 347.63 1108.12 354.1 1109.76 356.04"/><g id="GLASSES"><circle class="cls-2" cx="1102.57" cy="349.45" r="5.07"/><circle class="cls-2" cx="1116.08" cy="349.45" r="5.07"/><line class="cls-2" x1="1107.64" y1="349.45" x2="1111.01" y2="349.45"/><path class="cls-2" d="M1121.12,349.18s8.15-5,11.64-2.33"/></g><circle class="cls-33" cx="1104.63" cy="349.42" r="1.22"/><circle class="cls-33" cx="1114.23" cy="349.42" r="1.22"/><path class="cls-9" d="M1109.88,359.68a4.88,4.88,0,0,0,4.56-2.09"/></g></g><g id="COMPUTER"><path class="cls-13" d="M1081.6,432.62H993.09A7,7,0,0,1,986.5,428l-18.08-51.07a4.84,4.84,0,0,1,4.59-6.47h89.23a6,6,0,0,1,5.64,4l18.31,51.76A4.86,4.86,0,0,1,1081.6,432.62Z"/><path class="cls-3" d="M1078.85,435.36H990.34a7,7,0,0,1-6.59-4.65l-18.08-51.08a4.85,4.85,0,0,1,4.6-6.47h89.22a6,6,0,0,1,5.64,4l18.32,51.76A4.88,4.88,0,0,1,1078.85,435.36Z"/><path class="cls-34" d="M1081.6,432.35H993.09a7,7,0,0,1-6.59-4.66l-18.08-51.07a4.84,4.84,0,0,1,4.59-6.47h89.23a6,6,0,0,1,5.64,4l18.31,51.75A4.86,4.86,0,0,1,1081.6,432.35Z"/><polygon class="cls-13" points="1035.45 446.46 1009.14 446.46 1017.4 411.5 1043.71 411.5 1035.45 446.46"/></g><g id="ICON"><path class="cls-8" d="M965.23,351.8c2.77,0,4.68-2.71,4.68-5.55v-15.9a5.6,5.6,0,0,0-5.58-5.58H928.14a5.59,5.59,0,0,0-5.57,5.58v15.9a5.58,5.58,0,0,0,5.57,5.58h21.21c5.2,0,8,8.35,8,8.35S959.08,351.8,965.23,351.8Z"/><circle class="cls-8" cx="935.87" cy="338.17" r="2.09"/><circle class="cls-8" cx="946.19" cy="338.29" r="2.09"/><circle class="cls-8" cx="956.54" cy="338.29" r="2.09"/></g><path id="RECEPTION-2" data-name="RECEPTION" class="cls-35" d="M1206.77,632.55H593.62A14.66,14.66,0,0,1,579,617.9V403.29a14.66,14.66,0,0,1,14.65-14.65H883.93a50.35,50.35,0,0,1,29.45,9.49L967.55,437A50.41,50.41,0,0,0,997,446.49h209.74a14.66,14.66,0,0,1,14.65,14.64v156.8A14.61,14.61,0,0,1,1206.77,632.55Z"/></g><g id="DOCTOR"><g id="SHOES-3" data-name="SHOES"><path class="cls-36" d="M877,636s5.16,10.71,1.61,14.58H833.1s.27-7.51,11.22-8.68a32.52,32.52,0,0,0,15.81-5.9Z"/><path class="cls-12" d="M832.74,653.25h46.39a.79.79,0,0,0,.78-.78v-1.13a.79.79,0,0,0-.78-.78H832.74a.79.79,0,0,0-.77.78v1.13A.79.79,0,0,0,832.74,653.25Z"/><path class="cls-2" d="M854.61,642.54,853.12,639a1.4,1.4,0,0,0-1.94-.69h0a1.42,1.42,0,0,0-.69,1.73l.12.48"/><path class="cls-2" d="M848.14,644.54l-1-3.58a1.43,1.43,0,0,0-1.82-1h0a1.62,1.62,0,0,0-1,1.82"/><path class="cls-36" d="M810.34,636s5.16,10.71,1.61,14.58H766.46s.27-7.51,11.22-8.68a32.52,32.52,0,0,0,15.81-5.9Z"/><path class="cls-12" d="M766.13,653.25h46.39a.79.79,0,0,0,.77-.78v-1.13a.79.79,0,0,0-.77-.78H766.13a.79.79,0,0,0-.78.78v1.13A.76.76,0,0,0,766.13,653.25Z"/><path class="cls-2" d="M788,642.54,786.48,639a1.4,1.4,0,0,0-1.94-.69h0a1.42,1.42,0,0,0-.69,1.73l.12.48"/><path class="cls-2" d="M781.49,644.54l-1-3.58a1.43,1.43,0,0,0-1.82-1h0a1.61,1.61,0,0,0-1,1.82"/></g><path id="LEGS-2" data-name="LEGS" class="cls-37" d="M865.83,401.8c.41,13.3,2.09,116.22,14,145.16,12,29.29-.27,88.9-.27,88.9-16.5,2.59-23.18-.3-23.18-.3s-22.58-126.25-35.05-193.28l-3.46-1.79s-1.64,82.42,2.86,113.36S815.38,636,815.38,636a100.65,100.65,0,0,1-27.83,0s-3-58.15-7.79-105.34c-2.59-25.95-5.9-121.92-5.69-128.24Z"/><path id="TORSO" class="cls-38" d="M835.73,273.11c3.7,0,38.87,7,38.84,22.31,0,16.77-17.84,72-16.38,82.13s11,23.5,6.62,25.44c-11.84,5.19-51.34,9.31-90.83-.77,0,0,4.11-9.31-3-49.7-3.88-22-4.77-64.23-1.46-68.61s23.21-9,30.49-10.3S835.73,273.11,835.73,273.11Z"/><g id="LAB_COAT" data-name="LAB COAT"><path class="cls-4" d="M834.43,272.43c-.87,5.08-10.59,120.2,1.93,177.47,0,0,20.35,2.78,41.17-5,0,0-11.81-72-12.56-84s8.47-73.74,2.9-77.14C849.4,272.43,834.43,272.43,834.43,272.43Z"/><path class="cls-4" d="M798.51,273.21s2.77,109.33,3.4,176.1c0,0-20.08,5-37.38-2.81,0,0,6.8-80.81,6.89-91.1s-5.25-71.21.6-74.31A78.92,78.92,0,0,1,798.51,273.21Z"/></g><g id="HANDS"><g id="LEFT_HAND-2" data-name="LEFT HAND"><path id="HAND" class="cls-4" d="M754.23,384.11c22.64-12.05,36.9-109,21.57-103.87-2.63.89-10.39,4.05-15.67,8.5C747.81,299.12,735.55,341.09,732,354c-20.25,1-54.35,8.92-59.57,10.32-5.46,1.46-4.53,22.29,1.25,22.4C676.28,386.73,741,389.84,754.23,384.11Z"/><path id="LINE" class="cls-6" d="M770.07,361.91c1.22-7.57-1.2-20-1.67-38.06"/><ellipse id="SHADOW-4" data-name="SHADOW" class="cls-5" cx="673.59" cy="375.76" rx="4.62" ry="9.99"/><path id="ARM" class="cls-31" d="M672,381.16c-2.38.8-12.71,2.47-15.84,1.79s-9.69-6.66-10.14-7.46-3.61-5.25-3.61-5.25,4.12-1.88,6.06,1.34c2.32,3.85,7.57,3.82,10.17,3.07,1.07-.3,3.34-2.38,2.65-4s-5.34-.6-6.53-1.14c-1.85-.8-2.24-3.22-2.24-3.22s6.6-1.34,7.85-1.61,9.81.24,13.93,4.41C676.79,371.67,676.34,379.69,672,381.16Z"/></g><g id="RIGHT_HAND-2" data-name="RIGHT HAND"><path id="TABLET" class="cls-12" d="M848.14,409.67l-41.41,11.61a3.83,3.83,0,0,1-4.71-2.66L784.48,356.1a3.83,3.83,0,0,1,2.65-4.72l41.41-11.6a3.83,3.83,0,0,1,4.71,2.65L850.79,405A3.82,3.82,0,0,1,848.14,409.67Z"/><path id="HAND-2" data-name="HAND" class="cls-4" d="M892,376c17.06-15.84-2.51-90-28.22-93.19-2.63-.33-8.18,1.67-8.56,18.23-.36,15.69,7.19,47.58,9.3,56.26-16.16,8-41.52,30-46.17,32.58s2.35,16.58,7.33,14.38C828.33,403.08,877.64,387,892,376Z"/><path id="LINE-2" data-name="LINE" class="cls-6" d="M816.93,392.46s20.68-20.61,47.52-35.17c0,0-5.45-20.11-7.27-35.47"/><path id="ARM-2" data-name="ARM" class="cls-31" d="M820.27,404.39c-2.32.93-13,4-16.16,3.55s-8.71-4.2-9.22-4.89a62.89,62.89,0,0,1-2.3-6.62s2.21-1.7,4.3,1.1c2.47,3.34,7.1,2.66,9.63,1.82,1.05-.35,3.19-1.82,2.48-3.25s-5-.18-6.24-.57a4,4,0,0,1-2.38-2.8l7.4-2c1.22-.33,8.88,0,13.78,2.72S825.7,402.28,820.27,404.39Z"/></g></g><g id="NAME_TAG" data-name="NAME TAG"><path class="cls-11" d="M794.29,324.18h-21a1.19,1.19,0,0,1-1.19-1.2V311.44a1.19,1.19,0,0,1,1.19-1.19h21a1.19,1.19,0,0,1,1.19,1.19V323A1.19,1.19,0,0,1,794.29,324.18Z"/><rect class="cls-39" x="782.39" y="305.21" width="2.8" height="6.47"/><rect class="cls-5" x="774.9" y="312.96" width="5.07" height="6.09"/><rect class="cls-5" x="781.58" y="312.96" width="10.89" height="1.4"/><rect class="cls-5" x="781.58" y="315.29" width="10.89" height="1.4"/><rect class="cls-5" x="781.58" y="317.64" width="10.89" height="1.4"/><rect class="cls-5" x="774.9" y="320.03" width="17.6" height="1.4"/></g><g id="HEAD-2" data-name="HEAD"><g id="NECK-3" data-name="NECK"><path id="NECK-4" data-name="NECK" class="cls-31" d="M828.33,248.94s-2.54,12,6.26,24c0,0-15.21,7.78-35.91.77,0,0,12.2-4.2,7-24.31Z"/><path id="SHADOW-5" data-name="SHADOW" class="cls-32" d="M827.82,249v1.94s-.89,9.07-5.58,13.52c-3.64,3.46-14.85,7-18.52,5.25a29.87,29.87,0,0,0,1.91-20.23Z"/></g><path id="FACE-2" data-name="FACE" class="cls-31" d="M828.09,250.64s-4.83,8.18-7,9c-5.37,2-14,3.79-16.86,2.33-2-1-2-1.07-4.38-11.07-1.64-7.13,0-21.77,1.07-22.4s24-2.18,25.15.21S828.18,246.88,828.09,250.64Z"/><g id="HAIR-2" data-name="HAIR"><path class="cls-36" d="M827.94,245.18s-4.26.3-3.07-7c1.07-6.47-.66-7.81-9.37-5.37-7.07,2-17.45,1.62-21.3-4.2-2.18-3.31-1-4.15,2.57-6.33,4.41-2.71,13.12-7.72,24-5.43,8.71,1.85,9.16,9.16,9.16,9.16s5.22-1.16,6.38,4.3c1.5,6.89-8.23,20.43-8.23,20.43Z"/><path class="cls-6" d="M818.07,231.55c-5,3.13-18.05,5.22-22.14,1.14"/><path class="cls-6" d="M829.7,226.3s2.78-2.42,5.61-.63"/><path class="cls-36" d="M824.81,240.65c-.9,4.83-3.79,15.09-8.86,11.34-4.45-3.29-10.89-4.93-16.14-1.41a43.53,43.53,0,0,1,0,10.68c-1,6,21.33,3.37,24.88-2.41s2.77-10.5,3.28-13.67S824.81,240.65,824.81,240.65Z"/></g><path id="EAR" class="cls-31" d="M827.7,245.18s2.3-2.65,4.42-.83c1.58,1.37-4,6.5-4,6.5Z"/><circle class="cls-33" cx="801.81" cy="241.75" r="1.55"/><circle class="cls-33" cx="814.67" cy="241.75" r="1.55"/><polyline class="cls-6" points="807.75 240.38 805.6 247.78 809.18 247.78"/><path class="cls-40" d="M807.78,254.4a4.18,4.18,0,0,0,4.71-2.38"/></g></g><g id="OLD_WOMAN" data-name="OLD WOMAN"><g id="LEGS-3" data-name="LEGS"><g id="RIGHT_LEG-2" data-name="RIGHT LEG"><path id="SHOE" class="cls-17" d="M557.79,635.08c-3.28.18-7.43,7.58-4.12,18.17h1.7s.36-6.92,3.55-7c3.67-.09,5.46,7,8.8,7h16.47s-.24-3.58-4.57-4.15c-9.36-1.22-10.5-12.05-10.5-12.05Z"/><path id="LEG" class="cls-31" d="M591.08,584.67s-23.81,36-21.78,53.69c.93,8.06-10.23,2.09-12.77-5.49-6.47-19.33-5.72-42.15-5.72-42.15S573.21,589.05,591.08,584.67Z"/><path id="SHADOW-6" data-name="SHADOW" class="cls-32" d="M591.08,584.67s-1,1.49-2.54,4a226.14,226.14,0,0,1-37.73,6.83c-.06-3,0-4.8,0-4.8S573.21,589.05,591.08,584.67Z"/></g><g id="LEFT_LEG-2" data-name="LEFT LEG"><path id="SHOE-2" data-name="SHOE" class="cls-17" d="M488.58,631.2c-3.25-.44-8.74,6-7.52,17.07l1.67.32s1.67-6.74,4.8-6.2c3.61.6,4,7.91,7.31,8.56,3.76.72,16.17,1.91,16.17,1.91s.45-3.58-3.7-5c-8.95-3-8-12.59-8-12.59Z"/><path id="LEG-2" data-name="LEG" class="cls-31" d="M527.75,591.08s-27.09,27.74-28.49,45.52c-.63,8.06-10.44.12-11.49-7.81-2.68-20.2,2.42-43.29,2.42-43.29S509.1,591.14,527.75,591.08Z"/><path id="SHADOW-7" data-name="SHADOW" class="cls-32" d="M490.19,585.5s18.94,5.64,37.56,5.58c0,0-1.76,1.82-4.45,4.8a117.44,117.44,0,0,1-33.77-7.1C489.92,586.69,490.19,585.5,490.19,585.5Z"/></g></g><g id="CANE"><path class="cls-41" d="M619.27,475.66a12.16,12.16,0,0,1,12.05-12.26h0a12.16,12.16,0,0,1,12,12.26V653.25"/></g><path id="ARM-3" data-name="ARM" class="cls-31" d="M624.46,447.38a4.81,4.81,0,0,0,3.7,4.06c3.28,1,13.25,4.53,15.09,10.47,1.2,3.82,2.45,6.74,2.45,6.74a4.57,4.57,0,0,1-4.89-1.19c-3.61-4-10.38-4.27-12.71-4.09s-8.8-1.31-11.9-9.81S624.46,447.38,624.46,447.38Z"/><g id="DRESS"><path class="cls-12" d="M561.25,333.25c16.79.68,39.47,11.18,48.24,54.92s21.21,61.54,21.21,61.54l-13.52,9.37s-24.49-9-32.16-20.5c0,0,6.24,30.1,13.73,59.07,12.08,46.8,1.25,84.78,1.25,84.78s-63.75,19.18-114.91,1.46c0,0-14-80.66-14.08-104.29C470.92,399.74,498,330.65,561.25,333.25Z"/><path class="cls-6" d="M564.56,397.44s.09,22.35,22.64,45"/><g class="cls-42"><circle class="cls-11" cx="609.31" cy="449.68" r="3.07"/><circle class="cls-11" cx="619.51" cy="439.86" r="3.07"/><circle class="cls-11" cx="527.24" cy="356.96" r="3.07"/><circle class="cls-11" cx="549.17" cy="349.56" r="3.07"/><circle class="cls-11" cx="547.17" cy="373.16" r="3.07"/><circle class="cls-11" cx="539.86" cy="360.99" r="3.07"/><circle class="cls-11" cx="539.05" cy="340.64" r="3.07"/><path class="cls-11" d="M525.12,344.49a3.08,3.08,0,0,1-6.14.27c1.52-1,3.07-2,4.68-2.92A3.11,3.11,0,0,1,525.12,344.49Z"/><circle class="cls-11" cx="559.58" cy="337.01" r="3.07"/><circle class="cls-11" cx="561.55" cy="360.07" r="3.07"/><circle class="cls-11" cx="570.53" cy="347.57" r="3.07"/><path class="cls-11" d="M584.55,341.42a3.06,3.06,0,0,1-2.42,1.16,3.06,3.06,0,0,1-2.77-4.44A37.41,37.41,0,0,1,584.55,341.42Z"/><circle class="cls-11" cx="588.1" cy="354.81" r="3.07"/><circle class="cls-11" cx="577.69" cy="364.09" r="3.07"/><circle class="cls-11" cx="561.55" cy="380.02" r="3.07"/><circle class="cls-11" cx="547.17" cy="393.8" r="3.07"/><circle class="cls-11" cx="529.15" cy="376.95" r="3.07"/><circle class="cls-11" cx="512.86" cy="360.99" r="3.07"/><circle class="cls-11" cx="511.04" cy="378.86" r="3.07"/><circle class="cls-11" cx="522.05" cy="394.55" r="3.07"/><circle class="cls-11" cx="576.67" cy="383.12" r="3.07"/><circle class="cls-11" cx="591.17" cy="370.27" r="3.07"/><path class="cls-11" d="M608,381.42a3.16,3.16,0,0,1-1.73.54,3.09,3.09,0,0,1,0-6.17h.15C607,377.58,607.46,379.46,608,381.42Z"/><circle class="cls-11" cx="594.27" cy="391.48" r="3.07"/><circle class="cls-11" cx="574.61" cy="400.73" r="3.07"/><circle class="cls-11" cx="588.1" cy="408.39" r="3.07"/><circle class="cls-11" cx="607.16" cy="400.73" r="3.07"/><circle class="cls-11" cx="603.13" cy="415.04" r="3.07"/><circle class="cls-11" cx="578.97" cy="418.12" r="3.07"/><circle class="cls-11" cx="591.17" cy="428.2" r="3.07"/><circle class="cls-11" cx="613.33" cy="425.13" r="3.07"/><circle class="cls-11" cx="604.09" cy="434.94" r="3.07"/><circle class="cls-11" cx="588.1" cy="438.61" r="3.07"/><circle class="cls-11" cx="535.29" cy="406.9" r="3.07"/><circle class="cls-11" cx="507.97" cy="397.65" r="3.07"/><circle class="cls-11" cx="491.74" cy="387.63" r="3.07"/><path class="cls-11" d="M499.59,369a3.07,3.07,0,0,1-3.08,3.08,3,3,0,0,1-1.82-.6c1.08-1.79,2.18-3.52,3.32-5.19A3.17,3.17,0,0,1,499.59,369Z"/><circle class="cls-11" cx="556.71" cy="413.08" r="3.07"/><circle class="cls-11" cx="542.99" cy="425.96" r="3.07"/><circle class="cls-11" cx="520.23" cy="418.95" r="3.07"/><circle class="cls-11" cx="494.81" cy="409.97" r="3.07"/><circle class="cls-11" cx="502.66" cy="429.04" r="3.07"/><circle class="cls-11" cx="480.85" cy="422.86" r="3.07"/><circle class="cls-11" cx="487" cy="439.86" r="3.07"/><circle class="cls-11" cx="520.23" cy="439.86" r="3.07"/><circle class="cls-11" cx="502.66" cy="452.78" r="3.07"/><circle class="cls-11" cx="538.4" cy="449.68" r="3.07"/><circle class="cls-11" cx="562.89" cy="438.01" r="3.07"/><circle class="cls-11" cx="578.97" cy="446.61" r="3.07"/><circle class="cls-11" cx="556.27" cy="455.85" r="3.07"/><circle class="cls-11" cx="524.14" cy="462.45" r="3.07"/><circle class="cls-11" cx="541.47" cy="470.14" r="3.07"/><circle class="cls-11" cx="509.79" cy="468.83" r="3.07"/><circle class="cls-11" cx="488.64" cy="460.09" r="3.07"/><path class="cls-11" d="M476.41,454a3.1,3.1,0,0,1-3.07,3.11,3.23,3.23,0,0,1-1.59-.42c.12-1.85.27-3.7.42-5.52a3,3,0,0,1,1.14-.21A3,3,0,0,1,476.41,454Z"/><circle class="cls-11" cx="479.39" cy="476.32" r="3.07"/><circle class="cls-11" cx="498.45" cy="484.31" r="3.07"/><circle class="cls-11" cx="525.12" cy="485.92" r="3.07"/><circle class="cls-11" cx="512.86" cy="497.68" r="3.07"/><circle class="cls-11" cx="571.54" cy="463.16" r="3.07"/><circle class="cls-11" cx="555.37" cy="483.09" r="3.07"/><circle class="cls-11" cx="580.79" cy="478.67" r="3.07"/><circle class="cls-11" cx="570.53" cy="496.57" r="3.07"/><circle class="cls-11" cx="539.89" cy="497.68" r="3.07"/><circle class="cls-11" cx="553.64" cy="510.59" r="3.07"/><circle class="cls-11" cx="589.77" cy="496.57" r="3.07"/><circle class="cls-11" cx="575.87" cy="517.25" r="3.07"/><circle class="cls-11" cx="525.12" cy="515.43" r="3.07"/><circle class="cls-11" cx="496.48" cy="503.73" r="3.07"/><circle class="cls-11" cx="479.39" cy="497.68" r="3.07"/><circle class="cls-11" cx="486.07" cy="520.32" r="3.07"/><circle class="cls-11" cx="506.69" cy="529.42" r="3.07"/><circle class="cls-11" cx="539.89" cy="527.93" r="3.07"/><circle class="cls-11" cx="526.05" cy="540.37" r="3.07"/><circle class="cls-11" cx="493.41" cy="537.26" r="3.07"/><path class="cls-11" d="M483.93,552a3.07,3.07,0,0,1-3.08,3.07,3.82,3.82,0,0,1-.56-.06c-.3-1.88-.6-3.79-.9-5.75a3,3,0,0,1,1.46-.36A3.12,3.12,0,0,1,483.93,552Z"/><circle class="cls-11" cx="506.69" cy="555.13" r="3.07"/><circle class="cls-11" cx="493.41" cy="566.02" r="3.07"/><circle class="cls-11" cx="524.67" cy="561.4" r="3.07"/><circle class="cls-11" cx="509.79" cy="576.85" r="3.07"/><circle class="cls-11" cx="536.82" cy="574.64" r="3.07"/><circle class="cls-11" cx="561.55" cy="535.59" r="3.07"/><circle class="cls-11" cx="546.06" cy="552.03" r="3.07"/><circle class="cls-11" cx="578.97" cy="542.57" r="3.07"/><circle class="cls-11" cx="594.27" cy="524.85" r="3.07"/><path class="cls-11" d="M604.38,547.56c0,1.61-.09,3.16-.17,4.71a3.09,3.09,0,1,1-1.91-5.49A2.85,2.85,0,0,1,604.38,547.56Z"/><circle class="cls-11" cx="588.1" cy="561.4" r="3.07"/><circle class="cls-11" cx="564.65" cy="561.4" r="3.07"/><circle class="cls-11" cx="575.87" cy="577.74" r="3.07"/><circle class="cls-11" cx="553.64" cy="579.95" r="3.07"/><path class="cls-11" d="M488.91,580.79a3.08,3.08,0,0,1-3.11,3.07,3.25,3.25,0,0,1-.77-.09c-.09-.54-.45-2.5-1-5.52a3.2,3.2,0,0,1,1.73-.53A3.06,3.06,0,0,1,488.91,580.79Z"/><circle class="cls-11" cx="527.12" cy="585.92" r="3.07"/></g></g><g id="HEAD-3" data-name="HEAD"><path id="HEAD-4" data-name="HEAD" class="cls-31" d="M571.84,300.43c2,11.13,11.16,19.18,6.74,27.12-5.58,10-26.52,10.35-32.22,5.64-10.62-8.77-7.43-31.36,3.88-34.49S571.84,300.43,571.84,300.43Z"/><g id="GLESSES"><ellipse class="cls-2" cx="579.78" cy="311.68" rx="1.46" ry="5.25" transform="translate(-45.49 105.95) rotate(-10.05)"/><circle class="cls-36" cx="571.03" cy="313.08" r="1.43"/><path class="cls-9" d="M567,321.58s3.43,2.57,9.57,0"/><line class="cls-2" x1="561.81" y1="315.17" x2="580.55" y2="311.26"/></g><path id="HAIR-3" data-name="HAIR" class="cls-4" d="M559.55,304.46s17.36,3.28,21-4.36-9.55-9.66-9.55-9.66.36-10.47-12.73-10.5c-12.56,0-12.53,10.05-14,9.1-1.85-1.2-5.63.35-6.32,2.74,0,0-9.13-3.61-13.6,3.52s1,11.78,1,11.78a2.74,2.74,0,0,0-2,3.29c.6,2.56-9.19,6.2-5.4,13.06s12.56,5.07,12.56,5.07-.06,8.42,9.34,7.91,12.2-8.5,10.11-13.16,6,.69,11.16-6.2S559.55,304.46,559.55,304.46Z"/><path class="cls-9" d="M573.39,314.51a43.58,43.58,0,0,1-3.76,3.16"/></g></g><g id="MOTHER_CHILD" data-name="MOTHER &amp; CHILD"><g id="RIGHT_HAND-3" data-name="RIGHT HAND"><path id="HAND-3" data-name="HAND" class="cls-31" d="M361.23,469c1.34,2.83-47.46,6.74-60.71,2.33-11.1-3.73-27.89-57.07-25.8-61.93s10.65-7.19,15,.83c3.25,6,13.58,33.08,18,47.43C307.74,457.7,359,464.21,361.23,469Z"/><path id="ARM-4" data-name="ARM" class="cls-31" d="M355.35,467.73c.69-2,8-1,10.95-.75a31.42,31.42,0,0,1,8.35,2.06c1.85,1,3,4.15,3,4.15s-.33.44-2.72-.78-7-.72-8-.09c-2.21,1.46,2.86,1.7,3.49,2.6s.32,1.46.32,1.46-5.28-.18-6.08-.24a14.33,14.33,0,0,1-5.22-2.54C357.83,472.35,354.55,470,355.35,467.73Z"/></g><path id="DRESS-2" data-name="DRESS" class="cls-3" d="M315.38,536.64c-17.16.33-21.27.41-31.89.44-1.61,0-3.16-.05-4.63-.17-8.95.12-16.64.14-23.17.17-30.73.06-35.56-19.74-35.3-29.59-.2-12.11,11.28-30.46,14.41-40.93,1.49-5-3.25-24.22-6.86-39.91-3.67-15.9,2.09-21.63,12-24.1,11-2.75,25.27-2,28.64-1.59,10.65,1.41,12.47,2.51,17.36,5.14,2.45,1.31,3.05,26.81,3.76,33.5s-2.8,10.71-7,13.45c-1.19.78-4.59,5-3.64,14.8.48,4.83,3.49,12.32,6,18.94,16.79,3.94,34.51,13.12,42.3,16.62C344.08,510.92,338.23,536.19,315.38,536.64Z"/><g id="LEGS-4" data-name="LEGS"><g id="RIGHT_LEG-3" data-name="RIGHT LEG"><path id="LEG-3" data-name="LEG" class="cls-31" d="M343.18,613.93c1.52,10.92,6.38,12.17,6,12.35-11.28,5.31-13.43-7.87-14.65-10.14-5.07-9.31-15-33.68-21-56.23-4.89-18.35-1-30.91,2.24-40.6,3.72-11.31,18.58-21.27,21.18-3.17C338.23,525.3,334.38,551,343.18,613.93Z"/><path id="SHOE-3" data-name="SHOE" class="cls-36" d="M330.74,631.59s-4.53-15.69,1.52-18.11c1.94-.77,4.3,1.17,4.92,7.79.54,5.79,9,6.68,9.79,2.92,0,0,10.35,2.09,10.35,7.37H330.74Z"/></g><g id="LEFT_LEG-3" data-name="LEFT LEG"><path id="LEG-4" data-name="LEG" class="cls-31" d="M311,521.15c-2.5,12.53-4.65,16.05-10.71,36.22-2.2,7.31-11.84,39.11-16.17,58.56-1.1,4.92,13.94,13.3-6.59,11.07-1.13-.12,1.34-8,.39-14.53a382.23,382.23,0,0,1-3.22-61c.77-19.33,12.5-31.26,19.33-39.11C301.12,504.27,315,501.29,311,521.15Z"/><path id="SHOE-4" data-name="SHOE" class="cls-36" d="M278.09,615.87c-1.61,0-4.45,2.92-4.21,7.58a27.6,27.6,0,0,0,1.7,8.11h18.11c-.33-5-5.67-7.37-5.67-7.37-4.68-.74-10.74,3.7-10.08-3.22Z"/></g></g><g id="CHILD"><g id="RIGHT_HAND-4" data-name="RIGHT HAND"><path id="ARM-5" data-name="ARM" class="cls-31" d="M285,462.8c.69.24,3.25.78,4.53,2.06.63.63,1.11,3.08,1.11,3.28s-.21,1.41-.21,1.41a.86.86,0,0,1-1-.9c0-1.13-1.1-1.88-1.82-2.15-.29-.12-.59-.41-.68,0s.71.9.92,1.2a1.1,1.1,0,0,1,.06,1s-1.73-.48-2.06-.63a10.31,10.31,0,0,1-2.71-3.34C282.53,463.28,283.43,462.27,285,462.8Z"/><path id="HAND-4" data-name="HAND" class="cls-31" d="M271.88,439.09c-3.52,1.07-3.37,10.32.45,18.43s13.6,8.69,13.6,7.7c0-1.73-3.72-8.56-4.35-10.29C278.89,447.56,277.7,437.33,271.88,439.09Z"/></g><g id="RIGHT_LEG-4" data-name="RIGHT LEG"><path class="cls-5" d="M260.88,471c1.28-2.3,3.07-4,18.13-3.49,17.45.62,26.94,16.29,24,22.58-1,2-4.51.48-22.82-1.82C269.38,487,255.24,481.3,260.88,471Z"/><path class="cls-43" d="M300.37,487.92c.54,3.28,1.94,5.94,3.46,5.82s3.11-3,3.61-6.29c.45-2.93-.18-6.12-5.43-7C299.75,480.11,299.78,484.37,300.37,487.92Z"/></g><path id="BODY" class="cls-4" d="M274.12,438.37c2,2.18,6.06,13,4.89,34.49-.92,17.09-8.05,18.49-10.26,18.64-12.74.84-19-7.34-19.93-14-2.56-17.6-.18-33.26,10.5-40.75C263,434.23,271.73,435.75,274.12,438.37Z"/><g id="HEAD-5" data-name="HEAD"><path id="HAIR-4" data-name="HAIR" class="cls-36" d="M259.09,428s13.51,1.91,16.07-4.12c2-4.71-13.21-11.51-19,0,0,0-4.77,1-4.38,6.92s6.2,6.38,6.2,6.38l-.33-3.1S260.22,433.39,259.09,428Z"/><path id="HEAD-6" data-name="HEAD" class="cls-31" d="M274.36,438.46c-6,7.1-14.8,0-16.14-1.22-.3,0-3.46-.3-3.16-1.94s2.27-1.4,2.74-1.34c.42-.15,2.3-1.14,1.32-6,0,0,10.26,1.46,14.61-2.18C276.3,429.78,277.13,435.15,274.36,438.46Z"/></g><g id="LEFT_HAND-3" data-name="LEFT HAND"><path id="ARM-6" data-name="ARM" class="cls-31" d="M269.23,465c.54.57,3.94,3.94,4.86,4.24a7.52,7.52,0,0,0,3.4-.3c.21-.12,1.25-.84,1.25-.84a1,1,0,0,0-1.31-.53,2.77,2.77,0,0,1-2.92-.78c-.24-.24-.51-.86-.15-1.13s1.34.59,1.73.65a1.11,1.11,0,0,0,1-.41l-1.88-1.58a10.77,10.77,0,0,0-4.5-1.08C269,463.34,268,463.73,269.23,465Z"/><path id="HAND-5" data-name="HAND" class="cls-31" d="M257.68,440.67c-3.7,0-8.14,12.89-4.29,21S274,466.5,274,465.49c0-1.73-11.66-6.18-11.69-8S264.13,440.67,257.68,440.67Z"/></g><g id="LEFT_LEG-4" data-name="LEFT LEG"><path class="cls-4" d="M250.94,474.23c1.28-2.3.69-4.33,21.69-3.49,17.45.72,23.42,16.29,20.43,22.58-.95,2-4.23-4.83-23.15-1.82C259.18,493.23,245.27,484.52,250.94,474.23Z"/><path class="cls-43" d="M297.09,488.79c-1.28,3.31-3.28,5.78-4.83,5.34s-2.6-3.79-2.42-7.34c.15-3.13,1.49-6.36,7.16-6.12C299.42,480.79,298.43,485.24,297.09,488.79Z"/></g></g><g id="LEFT_HAND-4" data-name="LEFT HAND"><path id="HAND-6" data-name="HAND" class="cls-31" d="M271.17,473.34c0,2.32-46.27,4.86-59.25-1.68a5.43,5.43,0,0,1-2.83-2.83v0c-1-2.21-1.11-5.7.36-10.83,12.64-44.12,17.18-47,21.74-51.25C235,403.2,244,408.12,242.08,417c-1.34,6.45-10.71,29-16.82,41.95C237.22,461,271.17,469.76,271.17,473.34Z"/><g id="ARM-7" data-name="ARM"><path class="cls-31" d="M290.56,476.8a1.56,1.56,0,0,1-1.91.26c-.78-.41-2.21-1.52-3.19-1.94,1.25,1.44,2.5,3,2.5,3a7.89,7.89,0,0,1-3.85,1c-1.13,0-2.92-1.52-4.56-2.35s-4,.65-6.74,1.13-5.88-3.25-5.88-3.25l.6-3.67a64.77,64.77,0,0,1,15.24,1.61h0a14.2,14.2,0,0,1,4.45,1.37A30.39,30.39,0,0,1,290.56,476.8Z"/><path class="cls-6" d="M286.71,478.17s-3.55-3.58-4.5-3.85l-3.91-1.16"/><path class="cls-6" d="M284.92,478.79s-3.07-3.16-4-3.43L277,474.2"/></g></g><g id="BAG"><path class="cls-8" d="M389.72,535.89H362.06a17.36,17.36,0,0,1-16.91-21.27l5.58-19.72a3.77,3.77,0,0,1,3.7-2.92h42.95a3.82,3.82,0,0,1,3.7,2.92l5.58,19.72A17.4,17.4,0,0,1,389.72,535.89Z"/><path class="cls-10" d="M392.64,489.12a14.6,14.6,0,0,1-.27,2.83H359.44a14.83,14.83,0,0,1-.27-2.83c0-8.8,7.49-15.9,16.74-15.9S392.64,480.35,392.64,489.12Z"/><path class="cls-8" d="M400.13,493.17a24.4,24.4,0,0,1-24.25,23.12c-12.47,0-23.69-10.26-24.23-23.12a3.81,3.81,0,0,1,2.78-1.19h42.95A3.79,3.79,0,0,1,400.13,493.17Z"/><rect class="cls-8" x="374.24" y="512.53" width="3.34" height="7.88"/></g><g id="HEAD-7" data-name="HEAD"><g id="HAIR-5" data-name="HAIR"><path class="cls-36" d="M269.74,353.26c-2.51.3-9.85-6.62-19.75,1.05s-13.76,20.61-14.68,22.82c-.24.57,4.53,17.3,27.39,19.87,20.7,2.32,27.08-3,27.08-3s-5.34-10.44-4.17-20.94C286.65,363.44,284.83,351.44,269.74,353.26Z"/><path class="cls-6" d="M292.23,392.67s-6.12-9.1-4.74-19.57c1.43-10.8-3.29-22.13-18.59-19"/></g><g id="NECK-5" data-name="NECK"><path id="NECK-6" data-name="NECK" class="cls-31" d="M252.55,376.29s3.67,18.26-8.08,25.45c0,0,17.18,13.13,32,1,0,0-11.13-3.73-9.7-26.49Z"/><path id="SHADOW-8" data-name="SHADOW" class="cls-32" d="M252.55,376.29s.12.63.24,1.67c.09.36.15.57.15.57,0,2.24,4.86,15.6,16,15.54,0,0-1.07-3.58-1.07-3.58a44.54,44.54,0,0,1-1.05-14.17H252.55Z"/></g><path id="HEAD-8" data-name="HEAD" class="cls-31" d="M277,376.59c-.44,3.13-4.17,12.59-7.33,12.53-7-.09-16.71-8-16.68-10.23-2.12-.51-6.23-5.43-4.41-6.86,2.2-1.76,3.52-.06,3.69.21h.06c9.43-.3,7.55-14.05,15.4-14.05,7.31,0,9.27,5.25,9.45,7.84A48.84,48.84,0,0,1,277,376.59Z"/></g><circle class="cls-33" cx="265.62" cy="370" r="1.19"/><circle class="cls-33" cx="274.81" cy="370.39" r="1.19"/><line class="cls-9" x1="271.02" y1="370.63" x2="272" y2="375.61"/><circle class="cls-33" cx="266.39" cy="430.91" r="0.84"/><circle class="cls-33" cx="273.49" cy="429.3" r="0.84"/><path class="cls-9" d="M265.62,378.47s1.94,1.85,5.91,1.25"/><path class="cls-9" d="M270.93,431.06s1.73-.35,1.37,1.73"/><path class="cls-9" d="M268.24,434.35a3.53,3.53,0,0,0,3.38.62"/></g><text class="cls-44" transform="translate(301.26 588.04)">3B3B3B</text></g></g></svg>