<svg xmlns="http://www.w3.org/2000/svg" viewBox="0 0 1307.22 700.77"><defs><style>.cls-1,.cls-14,.cls-19,.cls-20,.cls-23,.cls-25,.cls-26,.cls-28,.cls-29,.cls-31,.cls-32,.cls-33,.cls-35,.cls-36,.cls-37,.cls-38,.cls-39,.cls-4,.cls-7,.cls-9{fill:none;}.cls-1{stroke:#6464c8;stroke-width:2px;}.cls-1,.cls-14,.cls-16,.cls-19,.cls-20,.cls-23,.cls-25,.cls-26,.cls-28,.cls-29,.cls-30,.cls-31,.cls-32,.cls-33,.cls-35,.cls-37,.cls-4,.cls-5,.cls-7,.cls-8,.cls-9{stroke-miterlimit:10;}.cls-2{fill:#cbe1fd;}.cls-13,.cls-16,.cls-3,.cls-30,.cls-5,.cls-8{fill:#fff;}.cls-3{opacity:0.35;isolation:isolate;}.cls-4,.cls-5{stroke:#cbe1fd;}.cls-29,.cls-33,.cls-4,.cls-5{stroke-width:1.79px;}.cls-6{fill:#f2bf33;}.cls-16,.cls-25,.cls-29,.cls-7{stroke:#6562ce;}.cls-23,.cls-32,.cls-33,.cls-37,.cls-38,.cls-39,.cls-7{stroke-linecap:round;}.cls-14,.cls-16,.cls-19,.cls-20,.cls-25,.cls-30,.cls-7,.cls-8,.cls-9{stroke-width:1.49px;}.cls-14,.cls-8{stroke:#88bed7;}.cls-26,.cls-30,.cls-9{stroke:#efaf00;}.cls-10{fill:#efaf00;}.cls-11{fill:#40465c;}.cls-12{fill:#e4effd;}.cls-15{fill:#88bed7;}.cls-17{fill:#6562ce;}.cls-18{opacity:0.5;}.cls-19{stroke:#e4effd;}.cls-20{stroke:#000;}.cls-21{fill:#e18c32;}.cls-22{fill:#8281d8;}.cls-23,.cls-31{stroke:#d97802;}.cls-23,.cls-31,.cls-35,.cls-36,.cls-37{stroke-width:0.6px;}.cls-24{fill:#85c3d3;}.cls-26,.cls-28,.cls-39{stroke-width:1.19px;}.cls-27{fill:#d97802;}.cls-28,.cls-38,.cls-39{stroke:#40465c;}.cls-32{stroke:#db7800;stroke-width:0.89px;}.cls-33{stroke:#c4d7f6;}.cls-34{fill:#e38e32;}.cls-35,.cls-36,.cls-37{stroke:#fff;}.cls-36,.cls-38,.cls-39{stroke-linejoin:round;}.cls-38{stroke-width:1.44px;}</style></defs><g id="Layer_2" data-name="Layer 2"><g id="Layer_1-2" data-name="Layer 1"><path class="cls-1" d="M406.77,82.3c-102.39,44-202.68,102.44-232.14,177.53-29.46,74.56,12.62,165.74,72.24,235.47,60.31,69.19,138.86,117.46,220.22,145.89,80.65,28.43,164.81,36.47,258.79,46.67,93.28,10.19,196.37,21.45,298.77-1.61,103.09-22.53,204.79-80.46,231.44-153.94,26-73.48-23.85-163.06-68.73-249.95-44.19-86.89-82.76-171.1-160.61-221-77.14-49.89-194.27-65.44-304.38-59C612.26,9.35,508.47,38.85,406.77,82.3Z"/><g id="WINDOW"><rect class="cls-2" x="895.9" y="81.14" width="319.23" height="430.11"/><polygon class="cls-3" points="898.01 343.8 898.01 302.9 1210.65 83.43 1213.01 83.43 1213.01 122.66 898.01 343.8"/><polygon class="cls-3" points="898.01 284.88 898.01 83.43 1184.96 83.43 898.01 284.88"/><rect class="cls-4" x="888.92" y="74.21" width="333.19" height="443.95"/><rect class="cls-5" x="876.75" y="81.14" width="355.56" height="8.38"/><rect class="cls-5" x="876.75" y="95.13" width="355.56" height="8.38"/><rect class="cls-5" x="876.75" y="109.09" width="355.56" height="8.38"/><rect class="cls-5" x="876.75" y="123.08" width="355.56" height="8.38"/><rect class="cls-5" x="876.75" y="137.07" width="355.56" height="8.38"/></g><g id="PLANT"><g id="PLANT-2" data-name="PLANT"><path class="cls-6" d="M1259.69,479.09c-12.62,19.12-36.42,29.56-46.92,23.65-10.18-5.72-11-33.89,1.58-53s33.74-28,46-20S1272.31,460,1259.69,479.09Z"/><path class="cls-7" d="M1214.14,567.15s-12.71-103.19,46.09-136.9"/><line class="cls-7" x1="1268.58" y1="453.28" x2="1233.35" y2="456.89"/><line class="cls-7" x1="1268.07" y1="457.01" x2="1231.11" y2="460.77"/><line class="cls-7" x1="1214.74" y1="449.94" x2="1223.68" y2="476.4"/><path class="cls-6" d="M1306.38,531.8c-3.91,10.08-21,12.83-38.22,6.17s-23.83-19.92-23.09-24.31c1-5.55,21.24-15,37.23-12.17C1300.44,504.74,1310.26,521.72,1306.38,531.8Z"/><path class="cls-7" d="M1203.64,567.15s-1.55-45.32,46.33-54.62a58.62,58.62,0,0,1,55.78,19.24"/><line class="cls-7" x1="1276.1" y1="513.24" x2="1292.45" y2="505.76"/><line class="cls-7" x1="1280.19" y1="514.53" x2="1295.4" y2="507.43"/><line class="cls-7" x1="1269.36" y1="511.93" x2="1275.71" y2="539.67"/><path class="cls-6" d="M1194,499.82c7.76,11.72,6.57,28.34.24,32.19-3.82,2.35-19.93-1.88-27.71-13.61s-7.73-25.8-.21-30.78S1186.28,488.1,1194,499.82Z"/><path class="cls-7" d="M1197.91,567.15s4.36-58.62-31.32-78.94"/><line class="cls-7" x1="1161.61" y1="505.34" x2="1184.13" y2="505.34"/><line class="cls-7" x1="1162.74" y1="509.22" x2="1186.37" y2="509.22"/><line class="cls-7" x1="1194.57" y1="501.43" x2="1190.54" y2="517.57"/></g><g id="VASE"><path class="cls-8" d="M1238.51,577.17v40.75a10.23,10.23,0,0,1-.57,3.34,10,10,0,0,1-9.42,6.66h-40.75a10.07,10.07,0,0,1-9.43-6.63,9.68,9.68,0,0,1-.6-3.37V577.17a10,10,0,0,1,10-10h40.75a10,10,0,0,1,10,10Z"/></g><circle class="cls-2" cx="1197.7" cy="577.8" r="3.07"/><circle class="cls-2" cx="1211.33" cy="577.77" r="3.07"/><circle class="cls-2" cx="1224.97" cy="577.77" r="3.07"/><path class="cls-2" d="M1237.79,577.17v3.64h0a3.06,3.06,0,0,1-.29-6.11A9.61,9.61,0,0,1,1237.79,577.17Z"/><circle class="cls-2" cx="1184.07" cy="577.8" r="3.07"/><path class="cls-2" d="M1207.69,568.61a3.07,3.07,0,1,1-6.14,0,3.46,3.46,0,0,1,.09-.78h5.94A2.45,2.45,0,0,1,1207.69,568.61Z"/><path class="cls-2" d="M1221.33,568.61a3.08,3.08,0,0,1-6.15,0,3,3,0,0,1,.09-.75h5.94A2.07,2.07,0,0,1,1221.33,568.61Z"/><path class="cls-2" d="M1234.57,570.13a3,3,0,0,1-2.65,1.52,3.06,3.06,0,0,1-3.07-3.07,3.53,3.53,0,0,1,.08-.72A9.38,9.38,0,0,1,1234.57,570.13Z"/><path class="cls-2" d="M1191.62,571.65a3.07,3.07,0,0,1-3.58-3.76H1194c0,.06,0,.12,0,.18A3,3,0,0,1,1191.62,571.65Z"/><circle class="cls-2" cx="1226.37" cy="596.95" r="3.07"/><path class="cls-2" d="M1237.79,594.06v5.72a3.05,3.05,0,0,1,0-5.72Z"/><circle class="cls-2" cx="1212.74" cy="596.95" r="3.07"/><circle class="cls-2" cx="1199.1" cy="596.98" r="3.07"/><circle class="cls-2" cx="1186.75" cy="597.52" r="3.07"/><circle class="cls-2" cx="1233.32" cy="587.76" r="3.07"/><circle class="cls-2" cx="1219.69" cy="587.79" r="3.07"/><circle class="cls-2" cx="1206.05" cy="587.82" r="3.07"/><path class="cls-2" d="M1179.21,590.92a3.55,3.55,0,0,1-.78.06v-6.11a3.06,3.06,0,0,1,.78,6Z"/><circle class="cls-2" cx="1192.24" cy="587.91" r="3.07"/><circle class="cls-2" cx="1228.58" cy="616.43" r="3.07"/><circle class="cls-2" cx="1214.94" cy="616.43" r="3.07"/><circle class="cls-2" cx="1201.31" cy="616.46" r="3.07"/><circle class="cls-2" cx="1188.96" cy="617" r="3.07"/><path class="cls-2" d="M1237.79,605.21v4.09a3,3,0,0,1-2.29,1,3.07,3.07,0,1,1,0-6.14A3.2,3.2,0,0,1,1237.79,605.21Z"/><circle class="cls-2" cx="1221.86" cy="607.27" r="3.07"/><circle class="cls-2" cx="1208.23" cy="607.27" r="3.07"/><path class="cls-2" d="M1181.41,610.4a3.09,3.09,0,0,1-3-1v-3.91a3,3,0,0,1,1.76-1,3.06,3.06,0,1,1,1.22,6Z"/><circle class="cls-2" cx="1194.45" cy="607.36" r="3.07"/><path class="cls-2" d="M1225.21,626.45a3.46,3.46,0,0,1-.09.78h-5.94a3.2,3.2,0,0,1-.09-.75,3.06,3.06,0,0,1,6.12,0Z"/><path class="cls-2" d="M1236,623.38a9.09,9.09,0,0,1-3.31,2.81,3.07,3.07,0,0,1,3-2.84A1,1,0,0,0,1236,623.38Z"/><path class="cls-2" d="M1211.48,627.23h-5.93s0-.09,0-.12a3.06,3.06,0,1,1,6-1.22A3.37,3.37,0,0,1,1211.48,627.23Z"/><path class="cls-2" d="M1197.85,627.23h-5.94s0-.09,0-.12a3.06,3.06,0,0,1,6-1.22A4,4,0,0,1,1197.85,627.23Z"/><path class="cls-2" d="M1184.13,626.48a9.34,9.34,0,0,1-3.76-2.89.11.11,0,0,0,.09,0,3.07,3.07,0,0,1,3.61,2.39A3.58,3.58,0,0,1,1184.13,626.48Z"/></g><g id="CURTAIN"><path class="cls-5" d="M448.34,89.73v432.4c0,3.79-18.41,6.86-41.11,6.86s-41.11-3.07-41.11-6.86V89.73c0,3.79,18.41,6.86,41.11,6.86S448.34,93.55,448.34,89.73Z"/><path class="cls-5" d="M366.27,89.73v432.4c0,3.79-18.41,6.86-41.11,6.86s-41.11-3.07-41.11-6.86V89.73c0,3.79,18.41,6.86,41.11,6.86S366.27,93.55,366.27,89.73Z"/><path class="cls-5" d="M530.55,89.73v432.4c0,3.79-18.4,6.86-41.11,6.86s-41.1-3.07-41.1-6.86V89.73c0,3.79,18.4,6.86,41.1,6.86S530.55,93.55,530.55,89.73Z"/><path class="cls-5" d="M612.74,89.73v432.4c0,3.79-18.41,6.86-41.11,6.86s-41.11-3.07-41.11-6.86V89.73c0,3.79,18.41,6.86,41.11,6.86S612.74,93.55,612.74,89.73Z"/><path class="cls-5" d="M695,89.73v432.4c0,3.79-18.4,6.86-41.11,6.86s-41.1-3.07-41.1-6.86V89.73c0,3.79,18.4,6.86,41.1,6.86S695,93.55,695,89.73Z"/><path class="cls-9" d="M737.76,81.67h-482a3.59,3.59,0,0,1-3.57-3.58h0a3.59,3.59,0,0,1,3.57-3.58H737.76a3.59,3.59,0,0,1,3.58,3.58h0A3.59,3.59,0,0,1,737.76,81.67Z"/><path class="cls-10" d="M372.59,80.24c0,7-2.83,12.5-6.47,12.5-3.19,0-5.82-4.24-6.35-10.2h1.43c.48,5,2.56,8.77,4.92,8.77,2.72,0,5-5.07,5-11.07s-2.29-11.07-5-11.07c-1.52,0-3,1.7-4,4.39h-1.52c1.17-3.67,3.19-5.82,5.49-5.82C369.76,67.74,372.59,73.23,372.59,80.24Z"/><path class="cls-10" d="M291,80.24c0,7-2.84,12.5-6.48,12.5-3.19,0-5.82-4.24-6.35-10.2h1.43c.48,5,2.57,8.77,4.92,8.77,2.72,0,5-5.07,5-11.07s-2.29-11.07-5-11.07c-1.52,0-3,1.7-4,4.39h-1.52c1.17-3.67,3.19-5.82,5.49-5.82C288.17,67.74,291,73.23,291,80.24Z"/><path class="cls-10" d="M448.34,67.74c-2.36,0-4.39,2.33-5.52,5.88h1.52c.92-2.69,2.39-4.42,4-4.42,2.71,0,5,5.07,5,11.07s-2.3,11.07-5,11.07c-2.39,0-4.42-3.85-4.93-8.8H442c.54,5.87,3.13,10.23,6.36,10.23,3.61,0,6.47-5.49,6.47-12.5S452,67.74,448.34,67.74Z"/><path class="cls-10" d="M530.55,67.74c-2.35,0-4.38,2.33-5.52,5.91h1.52c.93-2.69,2.39-4.48,4-4.48,2.72,0,5,5.07,5,11.07s-2.29,11.07-5,11.07c-2.35,0-4.41-3.82-4.92-8.77H524.2c.53,5.87,3.13,10.2,6.35,10.2,3.64,0,6.48-5.49,6.48-12.5S534.16,67.74,530.55,67.74Z"/><path class="cls-10" d="M612.74,67.74c-2.36,0-4.39,2.33-5.52,5.88h1.52c.92-2.69,2.39-4.42,4-4.42,2.71,0,5,5.07,5,11.07s-2.3,11.07-5,11.07c-2.39,0-4.42-3.85-4.92-8.8h-1.44c.54,5.9,3.14,10.23,6.36,10.23,3.64,0,6.47-5.49,6.47-12.5S616.38,67.74,612.74,67.74Z"/><path class="cls-10" d="M695,67.74c-2.35,0-4.38,2.33-5.52,5.88H691c.92-2.69,2.38-4.42,4-4.42,2.72,0,5,5.07,5,11.07s-2.29,11.07-5,11.07c-2.35,0-4.41-3.82-4.92-8.77H688.6c.54,5.87,3.13,10.2,6.35,10.2,3.64,0,6.48-5.49,6.48-12.5S698.59,67.74,695,67.74Z"/></g><g id="FLOOR"><polygon class="cls-11" points="1050.84 640.83 1146.87 640.83 1102.09 628.51 1006.03 628.51 1050.84 640.83"/><polygon class="cls-11" points="859.47 640.83 955.53 640.83 910.75 628.51 814.7 628.51 859.47 640.83"/><polygon class="cls-11" points="668.13 640.83 764.19 640.83 719.38 628.51 623.36 628.51 668.13 640.83"/><polygon class="cls-11" points="476.8 640.83 572.85 640.83 528.05 628.51 431.99 628.51 476.8 640.83"/><polygon class="cls-11" points="285.46 640.83 381.48 640.83 336.71 628.51 240.65 628.51 285.46 640.83"/><polygon class="cls-11" points="999.95 653.15 1096.01 653.15 1051.2 640.83 955.14 640.83 999.95 653.15"/><polygon class="cls-11" points="1190.72 653.15 1286.75 653.15 1241.97 640.83 1145.91 640.83 1190.72 653.15"/><polygon class="cls-11" points="808.61 653.15 904.64 653.15 859.86 640.83 763.8 640.83 808.61 653.15"/><polygon class="cls-11" points="617.24 653.15 713.3 653.15 668.52 640.83 572.47 640.83 617.24 653.15"/><polygon class="cls-11" points="425.9 653.15 521.96 653.15 477.18 640.83 381.13 640.83 425.9 653.15"/><polygon class="cls-11" points="234.56 653.15 330.62 653.15 285.81 640.83 189.76 640.83 234.56 653.15"/><polygon class="cls-11" points="1089.62 678.09 1185.68 678.09 1140.87 665.77 1044.82 665.77 1089.62 678.09"/><polygon class="cls-11" points="898.25 678.09 994.31 678.09 949.53 665.77 853.48 665.77 898.25 678.09"/><polygon class="cls-11" points="706.91 678.09 802.97 678.09 758.2 665.77 662.14 665.77 706.91 678.09"/><polygon class="cls-11" points="515.58 678.09 611.63 678.09 566.83 665.77 470.8 665.77 515.58 678.09"/><polygon class="cls-11" points="324.24 678.09 420.3 678.09 375.49 665.77 279.43 665.77 324.24 678.09"/><polygon class="cls-11" points="1140.39 665.47 1236.45 665.47 1191.68 653.15 1095.62 653.15 1140.39 665.47"/><polygon class="cls-11" points="949.06 665.47 1045.11 665.47 1000.34 653.15 904.28 653.15 949.06 665.47"/><polygon class="cls-11" points="757.72 665.47 853.77 665.47 808.97 653.15 712.91 653.15 757.72 665.47"/><polygon class="cls-11" points="566.38 665.47 662.41 665.47 617.63 653.15 521.57 653.15 566.38 665.47"/><polygon class="cls-11" points="375.01 665.47 471.07 665.47 426.29 653.15 330.23 653.15 375.01 665.47"/><polygon class="cls-11" points="95.67 640.83 191.73 640.83 146.95 628.51 50.89 628.51 95.67 640.83"/><polygon class="cls-11" points="44.78 653.15 140.83 653.15 96.06 640.83 0 640.83 44.78 653.15"/><polygon class="cls-11" points="134.45 678.09 230.51 678.09 185.73 665.77 89.67 665.77 134.45 678.09"/><polygon class="cls-11" points="185.25 665.47 281.31 665.47 236.5 653.15 140.48 653.15 185.25 665.47"/></g><g id="SHELF"><polygon id="SHADOW" class="cls-12" points="224.87 258.24 194.41 274.32 28.34 274.32 28.34 192.47 45.49 169.68 45.49 257.83 224.03 257.83 224.87 258.24"/><g id="SHELF-2" data-name="SHELF"><rect class="cls-2" x="76.97" y="177.16" width="139.94" height="73.15"/><path class="cls-8" d="M69.48,169.67v88.16H224.39V169.67ZM216.9,250.31H77V177.16H216.9Z"/><rect class="cls-8" x="45.49" y="169.67" width="23.95" height="88.15"/></g><g id="MEDICAL_KIT" data-name="MEDICAL KIT"><path class="cls-13" d="M124.19,193.54v50.74a3,3,0,0,0,3,3.08h76.37a3,3,0,0,0,3-3.08V193.54a3.05,3.05,0,0,0-3-3.1H127.17A3.05,3.05,0,0,0,124.19,193.54Z"/><path class="cls-14" d="M124.19,193.45v50.74a3,3,0,0,0,3,3.08h76.37a3,3,0,0,0,3-3.08V193.45a3.05,3.05,0,0,0-3-3.1H127.17A3.07,3.07,0,0,0,124.19,193.45Z"/><path class="cls-14" d="M124.19,193.45v50.74a3,3,0,0,0,3,3.08h6.71a3,3,0,0,0,3-3.08V193.45a3.06,3.06,0,0,0-3-3.1h-6.71A3.07,3.07,0,0,0,124.19,193.45Z"/><path class="cls-15" d="M159.48,214.78v6.15a.77.77,0,0,0,.77.77h4.93a.77.77,0,0,1,.77.78v4.92a.77.77,0,0,0,.78.77h6.14a.77.77,0,0,0,.78-.77v-4.92a.77.77,0,0,1,.77-.78h4.93a.77.77,0,0,0,.77-.77v-6.15a.77.77,0,0,0-.77-.78h-4.93a.76.76,0,0,1-.77-.77v-4.92a.77.77,0,0,0-.78-.78h-6.11a.77.77,0,0,0-.78.78v4.92a.76.76,0,0,1-.77.77h-4.93A.76.76,0,0,0,159.48,214.78Z"/><line class="cls-14" x1="130.33" y1="190.44" x2="130.33" y2="247.3"/><path class="cls-14" d="M174.42,183.19H160.19a4.17,4.17,0,0,0-4.17,4.17v3h22.55v-3A4.11,4.11,0,0,0,174.42,183.19Z"/></g><g id="PILL"><path class="cls-16" d="M113,247.42h-5.58a3.86,3.86,0,0,1-3.85-3.85V231.63h13.28v11.94A3.86,3.86,0,0,1,113,247.42Z"/><path class="cls-17" d="M116.7,227.37h-13a1.28,1.28,0,0,0-1.28,1.28v1.7a1.27,1.27,0,0,0,1.28,1.28h13a1.26,1.26,0,0,0,1.28-1.28v-1.7A1.31,1.31,0,0,0,116.7,227.37Z"/><path class="cls-13" d="M104.29,230.5h0a.21.21,0,0,1-.21-.21v-1.64a.21.21,0,0,1,.21-.21h0a.21.21,0,0,1,.21.21v1.64A.21.21,0,0,1,104.29,230.5Z"/><path class="cls-13" d="M106.26,230.5h0a.21.21,0,0,1-.21-.21v-1.64a.21.21,0,0,1,.21-.21h0a.21.21,0,0,1,.21.21v1.64A.21.21,0,0,1,106.26,230.5Z"/><path class="cls-13" d="M108.23,230.5h0a.21.21,0,0,1-.21-.21v-1.64a.21.21,0,0,1,.21-.21h0a.21.21,0,0,1,.21.21v1.64A.21.21,0,0,1,108.23,230.5Z"/><path class="cls-13" d="M110.2,230.5h0a.21.21,0,0,1-.21-.21v-1.64a.21.21,0,0,1,.21-.21h0a.21.21,0,0,1,.21.21v1.64C110.44,230.41,110.32,230.5,110.2,230.5Z"/><path class="cls-13" d="M112.17,230.5h0a.21.21,0,0,1-.21-.21v-1.64a.21.21,0,0,1,.21-.21h0a.2.2,0,0,1,.2.21v1.64C112.4,230.41,112.29,230.5,112.17,230.5Z"/><path class="cls-13" d="M114.16,230.5h0a.2.2,0,0,1-.2-.21v-1.64a.2.2,0,0,1,.2-.21h0a.21.21,0,0,1,.21.21v1.64A.21.21,0,0,1,114.16,230.5Z"/><path class="cls-13" d="M116.13,230.5h0a.21.21,0,0,1-.21-.21v-1.64a.21.21,0,0,1,.21-.21h0a.21.21,0,0,1,.21.21v1.64A.21.21,0,0,1,116.13,230.5Z"/><path class="cls-8" d="M93.73,247.42H88.15a3.86,3.86,0,0,1-3.85-3.85V231.63H97.58v11.94A3.86,3.86,0,0,1,93.73,247.42Z"/><path class="cls-15" d="M97.46,227.37h-13a1.28,1.28,0,0,0-1.28,1.28v1.7a1.27,1.27,0,0,0,1.28,1.28h13a1.26,1.26,0,0,0,1.28-1.28v-1.7A1.33,1.33,0,0,0,97.46,227.37Z"/><path class="cls-13" d="M85.05,230.5h0a.21.21,0,0,1-.21-.21v-1.64a.21.21,0,0,1,.21-.21h0a.21.21,0,0,1,.21.21v1.64A.21.21,0,0,1,85.05,230.5Z"/><path class="cls-13" d="M87,230.5h0a.21.21,0,0,1-.21-.21v-1.64a.21.21,0,0,1,.21-.21h0a.21.21,0,0,1,.21.21v1.64A.21.21,0,0,1,87,230.5Z"/><path class="cls-13" d="M89,230.5h0a.21.21,0,0,1-.21-.21v-1.64a.21.21,0,0,1,.21-.21h0a.21.21,0,0,1,.21.21v1.64A.21.21,0,0,1,89,230.5Z"/><path class="cls-13" d="M91,230.5h0a.21.21,0,0,1-.21-.21v-1.64a.21.21,0,0,1,.21-.21h0a.2.2,0,0,1,.2.21v1.64A.2.2,0,0,1,91,230.5Z"/><path class="cls-13" d="M92.92,230.5h0a.2.2,0,0,1-.2-.21v-1.64a.2.2,0,0,1,.2-.21h0a.21.21,0,0,1,.21.21v1.64C93.16,230.41,93,230.5,92.92,230.5Z"/><path class="cls-13" d="M94.92,230.5h0a.21.21,0,0,1-.21-.21v-1.64a.21.21,0,0,1,.21-.21h0a.21.21,0,0,1,.21.21v1.64A.23.23,0,0,1,94.92,230.5Z"/><path class="cls-13" d="M96.89,230.5h0a.21.21,0,0,1-.21-.21v-1.64a.21.21,0,0,1,.21-.21h0a.21.21,0,0,1,.21.21v1.64A.21.21,0,0,1,96.89,230.5Z"/><path class="cls-16" d="M99.25,226H93.67a3.86,3.86,0,0,1-3.85-3.85V210.25H103.1v11.93A3.86,3.86,0,0,1,99.25,226Z"/><path class="cls-17" d="M103,206H90a1.28,1.28,0,0,0-1.28,1.28V209A1.28,1.28,0,0,0,90,210.25h13a1.28,1.28,0,0,0,1.28-1.29v-1.7A1.28,1.28,0,0,0,103,206Z"/><path class="cls-13" d="M90.57,209.11h0a.21.21,0,0,1-.21-.21v-1.64a.21.21,0,0,1,.21-.21h0a.21.21,0,0,1,.21.21v1.64A.21.21,0,0,1,90.57,209.11Z"/><path class="cls-13" d="M92.54,209.11h0a.21.21,0,0,1-.21-.21v-1.64a.21.21,0,0,1,.21-.21h0a.21.21,0,0,1,.21.21v1.64C92.78,209,92.66,209.11,92.54,209.11Z"/><path class="cls-13" d="M94.54,209.11h0a.21.21,0,0,1-.21-.21v-1.64a.21.21,0,0,1,.21-.21h0a.2.2,0,0,1,.2.21v1.64A.22.22,0,0,1,94.54,209.11Z"/><path class="cls-13" d="M96.5,209.11h0a.2.2,0,0,1-.2-.21v-1.64a.2.2,0,0,1,.2-.21h0a.21.21,0,0,1,.21.21v1.64A.21.21,0,0,1,96.5,209.11Z"/><path class="cls-13" d="M98.47,209.11h0a.21.21,0,0,1-.21-.21v-1.64a.21.21,0,0,1,.21-.21h0a.21.21,0,0,1,.21.21v1.64A.21.21,0,0,1,98.47,209.11Z"/><path class="cls-13" d="M100.44,209.11h0a.21.21,0,0,1-.21-.21v-1.64a.21.21,0,0,1,.21-.21h0a.21.21,0,0,1,.21.21v1.64A.21.21,0,0,1,100.44,209.11Z"/><path class="cls-13" d="M102.41,209.11h0a.21.21,0,0,1-.21-.21v-1.64a.21.21,0,0,1,.21-.21h0a.21.21,0,0,1,.21.21v1.64A.21.21,0,0,1,102.41,209.11Z"/></g><g id="GLASS" class="cls-18"><polygon class="cls-13" points="204.31 179.01 129.65 248.49 115 248.49 189.67 179.01 204.31 179.01"/><polygon class="cls-13" points="99.79 248.49 79.02 248.49 79.02 179.01 174.45 179.01 99.79 248.49"/></g></g><g id="DOCTOR"><g id="SHOES"><path class="cls-15" d="M1090.07,628h47.73a.79.79,0,0,0,.78-.78v-1.25a.79.79,0,0,0-.78-.78h-47.73a.79.79,0,0,0-.78.78v1.25A.79.79,0,0,0,1090.07,628Z"/><path class="cls-11" d="M1132.34,609.66h-17.18s-2.06,4.41-13.31,5.58c-12.56,1.28-11.66,9.9-11.66,9.9h47S1139.47,618.61,1132.34,609.66Z"/><path class="cls-11" d="M1056.24,609.66H1039s-2.06,4.71-13.31,5.85c-12.5,1.28-11.66,9.6-11.66,9.6h47S1063.37,618.61,1056.24,609.66Z"/><path class="cls-15" d="M1013.67,628H1062a.79.79,0,0,0,.77-.78v-1.25a.79.79,0,0,0-.77-.78h-48.33a.79.79,0,0,0-.77.78v1.25A.79.79,0,0,0,1013.67,628Z"/></g><path id="LEGS" class="cls-15" d="M1117.43,366.32c.41,13.85,2.17,120.94,14.52,151,12.53,30.49,5.34,92.48,5.34,92.48-17.15,2.71-24.1-.3-24.1-.3s-24.7-102.86-42.09-174.87c-1.76,27.95-3.58,69.53-.63,89.82,4.68,32.28-5.52,85.44-5.52,85.44-14.79,2.29-31.77,0-31.77,0s-3.34-51.19-5.28-109.6c-.89-27.12-6.14-126.82-5.94-133.44Z"/><path id="TORSO" class="cls-15" d="M1086.13,232.44c3.85,0,40.45,7.28,40.39,23.21,0,17.45-18.58,74.91-17,85.44s11.46,24.46,6.89,26.46c-12.32,5.4-53.43,9.69-94.51-.81,0,0,4.3-9.66-3.1-51.73-4-22.94-5-66.79-1.52-71.38s24.13-9.31,31.71-10.71S1086.13,232.44,1086.13,232.44Z"/><g id="LAB_COAT" data-name="LAB COAT"><path class="cls-13" d="M1084.94,232.32c-.93,5.28-11,125,2,184.63,0,0,21.15,2.89,42.84-5.25,0,0-12.3-74.91-13.07-87.38s8.8-76.7,3-80.25C1100.51,232.32,1084.94,232.32,1084.94,232.32Z"/><path class="cls-13" d="M1047.56,233.13s2.89,113.74,3.55,183.22c0,0-20.88,5.22-38.9-2.92,0,0,7.07-84.1,7.19-94.81s-5.46-74.07.63-77.29C1033.12,234.41,1047.56,233.13,1047.56,233.13Z"/></g><g id="HANDS"><g id="RIGHT_HAND" data-name="RIGHT HAND"><path id="HAND" class="cls-13" d="M1143.71,338.94c15.36-19.63-2.48-93.17-28.43-96.39-2.75-.33-8.5,1.73-8.89,19-.33,14.34,5.7,41.7,8.65,54.26-21.81,2.48-54.8,10.92-59.72,11.36-5.55.51-2.18,18.62,3.46,19.31C1067.85,347.56,1125.48,352.36,1143.71,338.94Z"/><path id="SHADOW-2" data-name="SHADOW" class="cls-19" d="M1053.05,329.72c-.54-3.76,39.32-10.11,61.15-13.45-3.1-13.37-6.08-35.83-6.08-35.83"/><line id="PEN" class="cls-20" x1="1023.01" y1="342.04" x2="1046.28" y2="309.88"/><path id="ARM" class="cls-21" d="M1056.27,331.06c-2.71-2.38-18.91-6.17-20.64-5s-15.57,4.21-15.57,4.21.38,3.31,5.87,2.59c6.39-.86,7.79.45,7.79.45s-.78,3.55,1.25,4.8-.54,3.25,2.3,5.76c1.67,1.46,1.79,3.34,3.94,3.7S1055,342,1057,338C1058.72,334.52,1057.88,332.46,1056.27,331.06Z"/></g><g id="LEFT_HAND" data-name="LEFT HAND"><path id="HAND-2" data-name="HAND" class="cls-13" d="M967.19,327.3c-4.5-4-12.85-25.86,1.23-25.86,3.13,0,10.86,1.1,19.6,3.13,3.07-18.43,9.33-47.31,19.42-55.81,5.52-4.66,13.54-7.94,16.28-8.86,17.34-5.82,12.65,113.92-14.28,109.24C1000.46,347.53,975.52,334.64,967.19,327.3Z"/><path id="SHADOW-3" data-name="SHADOW" class="cls-19" d="M1017.25,321.87c1.25-7.9-1.22-20.82-1.76-39.58"/><g id="TABLET"><path class="cls-17" d="M998.73,366.26h50.44a2.4,2.4,0,0,0,2.06-3.61l-39.86-67.74a4.34,4.34,0,0,0-3.72-2.15H957.2a2.4,2.4,0,0,0-2.06,3.61L995,364.12A4.35,4.35,0,0,0,998.73,366.26Z"/><path class="cls-22" d="M991.48,326.62l3.31,5.76a1.51,1.51,0,0,0,1.16.74h4.6a1.51,1.51,0,0,1,1.16.75l2.65,4.59a1.51,1.51,0,0,0,1.17.75h5.75c.42,0,.54-.33.3-.75l-2.65-4.59c-.24-.42-.09-.75.3-.75h4.59c.42,0,.54-.33.3-.74l-3.31-5.76a1.51,1.51,0,0,0-1.17-.75h-4.59a1.51,1.51,0,0,1-1.16-.74l-2.66-4.6a1.48,1.48,0,0,0-1.16-.74h-5.76c-.42,0-.54.32-.3.74l2.66,4.6c.24.41.09.74-.3.74h-4.59C991.39,325.87,991.24,326.23,991.48,326.62Z"/></g><g id="FINGERS"><path class="cls-21" d="M971.46,318.5c-.45,1.94-.63,2.81-2.21,3.37h0c-1.7,1.26-4.77,1.56-8.65,1.65-3,.09-2.39-5.31-2.39-5.31-1-.75-1.34-3-.74-5a4.83,4.83,0,0,1-1-5,5.36,5.36,0,0,1-1-4.35c.36-1.35,4.39-1.5,7.31-1.55,2-.12,3.64-.18,4.47-.21s2,1.82,1.85,4.41a4.08,4.08,0,0,1,1,2.3c.18,2.24,1.22,5.67.83,7.93C970.8,317.58,971.55,318.15,971.46,318.5Z"/><path class="cls-23" d="M957.26,303.26c2-.24,8.44-1,10-1.13,2.21-.15,3.2,4.35.39,4.68a52.5,52.5,0,0,1-10.77,1.46"/><path class="cls-23" d="M958,313.19c9.39-.74,11.24-1.52,11.24-1.52,1.37-.12,1.73-5.16-1.58-4.86"/><path class="cls-23" d="M958.63,318.18c8.86-.54,11.7-1.59,11.7-1.59,1.28-.2,1.49-5.34-1.14-4.92"/><path class="cls-23" d="M968,317.19s2.89-1.13,3.4.75c.87,3.31-3,4.44-10.95,5.22"/></g></g></g><g id="NAME_TAG" data-name="NAME TAG"><path class="cls-12" d="M1043.35,298.82h-22a1.2,1.2,0,0,1-1.2-1.2V285.51a1.19,1.19,0,0,1,1.2-1.19h22a1.19,1.19,0,0,1,1.2,1.19v12.08A1.21,1.21,0,0,1,1043.35,298.82Z"/><rect class="cls-24" x="1030.91" y="279.1" width="2.92" height="6.71"/><rect class="cls-13" x="1023.13" y="287.15" width="5.28" height="6.35"/><rect class="cls-13" x="1030.11" y="287.15" width="11.34" height="1.46"/><rect class="cls-13" x="1030.11" y="289.57" width="11.34" height="1.46"/><rect class="cls-13" x="1030.11" y="292.01" width="11.34" height="1.46"/><rect class="cls-13" x="1023.13" y="294.49" width="18.29" height="1.46"/></g><g id="STETHOSCOPE"><path class="cls-25" d="M1072.65,286.23a5.34,5.34,0,0,1-3.52-6.12l3.61-16.53a14.18,14.18,0,0,1,18.7-10h0a14.16,14.16,0,0,1,8.32,19.48l-7.51,15.15a5.29,5.29,0,0,1-6.57,2.57"/><path class="cls-25" d="M1074.08,288.14l-1.07-.39a1.34,1.34,0,0,1-.81-1.7h0a1.34,1.34,0,0,1,1.7-.81l1.07.39a1.34,1.34,0,0,1,.81,1.7h0A1.33,1.33,0,0,1,1074.08,288.14Z"/><path class="cls-25" d="M1084.46,291.77l-1.07-.38a1.34,1.34,0,0,1-.81-1.7h0a1.34,1.34,0,0,1,1.7-.81l1.08.39a1.34,1.34,0,0,1,.8,1.7h0A1.32,1.32,0,0,1,1084.46,291.77Z"/><path class="cls-25" d="M1072.32,265.58s6.65-9.19,16.88-5.58,9.67,14.92,9.67,14.92"/><path class="cls-7" d="M1039,260.81s-6.62-30.61,13.87-34.07"/><circle class="cls-13" cx="1041.27" cy="267.01" r="6.44"/><circle class="cls-26" cx="1041.21" cy="267.04" r="6.44"/><circle class="cls-10" cx="1041.18" cy="267.01" r="4.3"/><path class="cls-7" d="M1091.74,253.47s10.74-26.37-10-28.46"/></g><g id="HEAD"><g id="NECK"><path class="cls-21" d="M1078.41,207.32s-2.66,12.44,6.5,25c0,0-15.84,8.12-37.38.84,0,0,12.68-4.39,7.28-25.3Z"/><path class="cls-27" d="M1077.9,207.32v2s-.93,9.43-5.79,14.08c-3.79,3.61-15.48,7.28-19.27,5.46a30.8,30.8,0,0,0,2-21Z"/></g><g id="HAIR"><path class="cls-11" d="M1078.23,209.2l0-1-.15-4.72s-5,.18-3.19-7.27c1.93-8.18-1.32-12-9.73-8.75-6.09,2.33-11.9,4.21-15.93.93a9,9,0,0,1-1.91-2.15c-2.27-3.43-1.25-3.76,2.39-6,4.56-2.84,9.63-8.6,21-6.21,9.07,1.91,9.52,9.52,9.52,9.52s5.42-1.23,6.65,4.44C1088.34,195.09,1078.23,209.2,1078.23,209.2Z"/><path class="cls-28" d="M1079.87,183.76s2.86-2.81,5.84-1"/></g><path id="HEAD-2" data-name="HEAD" class="cls-21" d="M1077.75,209.77h0c-1.25,2.06-5,7.93-6.86,8.65-5.61,2.12-14.56,3.94-17.54,2.42-2-1.05-2.15-1.11-4.54-11.52-1.34-5.82-.59-16.35.33-21,4.06,3.28,9.85,1.43,15.93-.93,8.41-3.25,11.67.57,9.73,8.75-1.53,6.44,2,7.18,3,7.27h0c.18-.2,2.45-2.68,4.56-.83C1083.83,203.86,1078.76,208.81,1077.75,209.77Z"/></g></g><g id="NURSE"><g id="HAIR-2" data-name="HAIR"><path class="cls-10" d="M706.65,196.25s-14.83-2.71-18.65,9.34,6.92,17.78,6.15,25.81-7.19,5-7.19,5,2.8,9.81,20.22,4.62,16.83,41.26,60.68,29.33c0,0,6.15-20.8-7.22-28.4-11.69-6.66-24.64-2.21-24.13-7s17.21-24.88-.66-39.56C721.59,183.73,706.65,196.25,706.65,196.25Z"/><path class="cls-26" d="M690,202.79c-6,11.15,2.45,18.76,1.85,26.76-.51,6.83-5.85,3.76-5.85,3.76"/><path class="cls-26" d="M772.16,268.66s6.14-20.8-7.22-28.4c-11.7-6.66-29.54-.48-29-5.31"/></g><g id="LEGS-2" data-name="LEGS"><g id="LEFT_LEG" data-name="LEFT LEG"><path id="FOOT" class="cls-21" d="M672.55,587.4c-2.39,4.66-11.22,17.4-11.28,23.54-.06,5,4.15,8.86,2,12.29-2.83,4.54-37.88,1.43-38.81,1.22s16.11-8.44,20.7-16.85a75.1,75.1,0,0,0,7.61-20.91Z"/><g id="SHOES-2" data-name="SHOES"><path class="cls-15" d="M623.12,628.21h40.72a1.63,1.63,0,0,0,1.64-1.64h0a1.64,1.64,0,0,0-1.64-1.64H623.12a1.63,1.63,0,0,0-1.64,1.64h0A1.65,1.65,0,0,0,623.12,628.21Z"/><path class="cls-2" d="M646.51,625,637.59,614s-14.5,5.22-14.5,10.89Z"/><path class="cls-2" d="M648.21,625s3.19-12.26,13.06-13.3c0,0,6,6.92,2,13.3Z"/></g><path id="SHADOW-4" data-name="SHADOW" class="cls-27" d="M652.23,589.34c3.55,1.61,10.24,4.39,16.14,5.22,1.76-2.95,3.37-5.54,4.18-7.19l-19.75-.71S652.65,587.67,652.23,589.34Z"/><path id="PANT" class="cls-2" d="M681.53,379.06c-2.42,18.65-7.61,43.41-18.14,125.5-4.89,38.25-13.69,81.32-13.69,81.32s17.36,5.19,25.83,2.33c0,0,6.51-1.13,5.58-6.71-.72-4.42,6.86-7,6.3-14-.63-8.15,5.54-18.77,10.65-36.58,7.75-27,19.45-59,28.07-85.7,4.26-13.25,17.21-59.37,4.32-63Z"/></g><g id="RIGHT_LEG" data-name="RIGHT LEG"><path id="FOOT-2" data-name="FOOT" class="cls-21" d="M762.52,587.4c-1,3.91-4.83,17.31-3.46,22.14s5.16,8.35,4.12,13.24c-1.11,5.22-31.74,1.91-32.67,1.7s16.26-9.75,16.47-16.85-2.06-20.23-2.06-20.23Z"/><g id="SHOES-3" data-name="SHOES"><path class="cls-15" d="M725.62,628.21h37.83a1.63,1.63,0,0,0,1.64-1.64h0a1.64,1.64,0,0,0-1.64-1.64H725.62a1.63,1.63,0,0,0-1.64,1.64h0A1.61,1.61,0,0,0,725.62,628.21Z"/><path class="cls-2" d="M752.71,625.17s-4-4.83-9.58-6.26c-6.15-1.55-9.13-.72-12.44,1a13,13,0,0,0-5,5.13Z"/><path class="cls-2" d="M752.86,625.08s-.33-11.36,7.15-12.83c0,0,7.22,6.45,3.23,12.83Z"/></g><path id="SHADOW-5" data-name="SHADOW" class="cls-27" d="M762.52,587.4H744.89s.45,2.51.9,5.94c6.41.6,13-1.52,15.81-2.59C762,589.37,762.31,588.18,762.52,587.4Z"/><path id="PANT-2" data-name="PANT" class="cls-2" d="M704.35,380.23c4.06,9.45,9.64,44.44,10.2,48.17,5.13,32.64,14.17,76.4,15.84,84.72,3.43,17.16,6.33,43.86,9.49,60.14,1.64,8.48,2.47,14.14,2.47,14.14,8.72,2.12,20.17,0,20.17,0s8.74.48,6.09-8.38c-1.58-5.28,3.34-7.72,3.16-15.09-.09-4.6-1.19-6.06-1-16.95.45-20.19-5-48.12-5.72-55.6-.63-6.48,6-37.47,8.2-77.8,1.1-20.89-9.46-32.55-9.37-35.86C764,377.69,738.06,384.07,704.35,380.23Z"/></g></g><g id="LEFT_HAND-2" data-name="LEFT HAND"><g id="HAND-3" data-name="HAND"><path class="cls-21" d="M680.39,313.34c-1.78,4.09-15.12,30.1-26.52,30.1-14.82,0-57.75-25.71-61.3-27.23-4.23-1.85,1.55-8.51,1.55-8.51s53.52,11.58,56.32,12.33l8.69-19.66Z"/><path class="cls-27" d="M680.39,313.34c-.47,1.05-1.73,3.22-3.55,7.13l-19.09-17,1.38-3.13Z"/></g><path id="ARM-2" data-name="ARM" class="cls-21" d="M583.5,299.14c.39,1.26,2.06,3.05.69,3.23-.72.08-6,0-6.33,2a4.2,4.2,0,0,0,.54,2.72,2.83,2.83,0,0,0,.18,3.07c-.54,1.13-.51,2.54.06,3,0,0-.81,2.93.45,3.37,3.79,1.47,10.35.72,12.56.09,1.91-.53,3.46-2.38,3.46-6.53,0-1.7-1.14-5.52-2.66-7.13-.62-.65-4.08-3.64-4.83-4.35a12.73,12.73,0,0,1-2.69-4.93A5,5,0,0,0,583.5,299.14Z"/><g id="DRIP"><line class="cls-29" x1="582.55" y1="224.03" x2="582.55" y2="603.36"/><path class="cls-29" d="M610.56,613.63v-3.58c0-3.7-4.27-6.72-9.52-6.72H564c-5.25,0-9.51,3-9.51,6.72v3.58"/><circle class="cls-30" cx="554.72" cy="620.93" r="7.28"/><circle class="cls-30" cx="610.44" cy="620.93" r="7.28"/><path class="cls-29" d="M616.85,237.81a4.78,4.78,0,0,1-4.77,4.77h0a4.78,4.78,0,0,1-4.77-4.77V234.2H558v3.61a4.78,4.78,0,0,1-4.78,4.77h0a4.78,4.78,0,0,1-4.77-4.77"/><path class="cls-9" d="M553.52,240.46h0a3,3,0,0,0-3,3v2.41h6v-2.41A3,3,0,0,0,553.52,240.46Z"/><path class="cls-9" d="M565.6,288.82H542.34a4.08,4.08,0,0,1-4.09-4.09V250a4.08,4.08,0,0,1,4.09-4.09H565.6a4.08,4.08,0,0,1,4.09,4.09v34.78A4.09,4.09,0,0,1,565.6,288.82Z"/><path class="cls-2" d="M567,271.61V282A3.93,3.93,0,0,1,563,286H544.9A3.93,3.93,0,0,1,541,282V271.61Z"/><path class="cls-30" d="M557.1,292.49h-4.56a1.14,1.14,0,0,1-1.14-1.13v-2.57h6.87v2.57A1.18,1.18,0,0,1,557.1,292.49Z"/></g><g id="FINGERS-2" data-name="FINGERS"><path class="cls-21" d="M586.58,314.09c-.21,2.09-.72,2.45-5.55,2.24,0,0-1.82,0-2.09-4.66-.42-6.92.24-7.78.24-7.78,2.68,0,5.25.29,6.2.35C587.35,304.36,586.69,312.75,586.58,314.09Z"/><path class="cls-31" d="M579.18,303.89c0,.86,5.25.29,6.2.35,1.34.09,1.55,2.87-.15,2.84a34,34,0,0,1-6.89,0"/><path class="cls-31" d="M578.61,310.15c5.7.33,7.16,0,7.16,0,.83,0,1.46-2.95-.57-3"/><path class="cls-31" d="M578.91,313.19c5.37.39,7.16,0,7.16,0,.77,0,1.31-3.1-.27-3"/><path class="cls-31" d="M584.61,313.37s1.85-.44,2,.72c.23,2.06-.72,2.45-5.55,2.24"/></g></g><g id="SHIRT"><path class="cls-12" d="M737.31,249c2.12,1.52,19.39,8.89,25.12,14.11,7.4,6.77,19.63,35.82,19.63,35.82S764.52,312.69,752.35,314L747,307s-5.25,17.33-4.3,26.31c.51,4.86,20.5,43.46,21.24,44.42s-35.82,17-82.72,3.07c0,0,9.25-45.85,1.52-51.93-5.34-4.21-7.07-14-6.32-17.28,0,0-20.53-12-22.82-16.37,0,0,15.45-25.78,22.88-30.52,7.13-4.54,30.63-12.17,30.63-12.17Z"/><path class="cls-2" d="M748,254.46s-36.81,39.82-39.14,39.82c-2,0-10.41-39-10.41-39l7.19-2.27s4.89,24.85,5.79,25,28.31-27.65,28.31-27.65Z"/></g><g id="PACK"><path class="cls-9" d="M706.56,355.73h0a3,3,0,0,0-3.43,2.48l-.39,2.39,5.91.95.38-2.39A3,3,0,0,0,706.56,355.73Z"/><path class="cls-13" d="M710.76,405.37l-23-3.7a4.06,4.06,0,0,1-3.37-4.68L690,362.65a4.08,4.08,0,0,1,4.68-3.37l23,3.7a4.08,4.08,0,0,1,3.38,4.69L715.45,402A4.09,4.09,0,0,1,710.76,405.37Z"/><path class="cls-9" d="M710.76,405.37l-23-3.7a4.06,4.06,0,0,1-3.37-4.68L690,362.65a4.08,4.08,0,0,1,4.68-3.37l23,3.7a4.08,4.08,0,0,1,3.38,4.69L715.45,402A4.09,4.09,0,0,1,710.76,405.37Z"/><path class="cls-10" d="M709.12,387.83,694,385.39a1.67,1.67,0,0,1-1.37-1.88l1.13-7.07a1.67,1.67,0,0,1,1.88-1.38l15.12,2.45a1.68,1.68,0,0,1,1.38,1.88L711,386.46A1.61,1.61,0,0,1,709.12,387.83Z"/><path class="cls-30" d="M701.78,407.67l-4.5-.72a1.15,1.15,0,0,1-1-1.31l.42-2.53,6.77,1.1-.41,2.51A1.16,1.16,0,0,1,701.78,407.67Z"/></g><g id="RIGHT_HAND-2" data-name="RIGHT HAND"><path class="cls-21" d="M781.28,328.53c-17.48,14.85-52.8,27.77-59.42,27-.21.39-3.34,6.39-6.44,6.39s-6.24-1.73-7.94.06-3.46,4.71-4.74,5a7,7,0,0,1-4.63-.6s1.11-2.71,2.27-5.31c-1,1-2.44,3.08-3.22,3.91a1.44,1.44,0,0,1-2.21.12s2.27-4.33,3.13-5.46a15.71,15.71,0,0,1,4.93-3.43c1.67-.89,11.09-6,16.17-7,8.32-6.15,29.56-21.57,39.85-27.18l-3.7-8.56A68.62,68.62,0,0,0,776.42,303S784.77,325.57,781.28,328.53Z"/><path class="cls-27" d="M776.42,303a71,71,0,0,1-21.09,10.47l1.34,3.07a47.71,47.71,0,0,1,23.15-3.19S776.81,303.62,776.42,303Z"/><path class="cls-32" d="M700,366.35s3-6.8,4-7.48c1.82-1.26,4.24-2.9,4.24-2.9"/><path class="cls-32" d="M701.81,366.65s2.87-5.82,3.91-6.5l4.24-2.9"/></g><g id="HEAD-3" data-name="HEAD"><g id="NECK-2" data-name="NECK"><path class="cls-21" d="M726.6,225.22c.21,4-1.34,18.94,13.61,25.24l-28.73,27.59-5.79-25s3.7-5.93,1.88-26.13Z"/></g><path id="SHADOW-6" data-name="SHADOW" class="cls-27" d="M726.51,226.71s-3.25,21.6-19.33,22.7h-.24c.87-3.72,1.71-10.65.63-22.49Z"/><path id="HEAD-4" data-name="HEAD" class="cls-21" d="M707.18,241.06c9.46-.86,19.33-14.35,19.33-14.35,2.72-1.88,3-6.05.84-6.83-2.54-.89-4.56,3.55-5.52,3.61-1.67,1.16-5.85-.86-5.79-9.81,0-4.09-1.31-6.75-3.28-8.3h0a11.08,11.08,0,0,0-1.67-1h0a8.58,8.58,0,0,0-4.62-.87c-11.76,1.05-11.25,11.22-11,15.19C695.88,224.42,699.55,241.75,707.18,241.06Z"/></g></g><g id="PATIENT_BED" data-name="PATIENT &amp; BED"><g id="BACK_BEDSIDE" data-name="BACK BEDSIDE"><path class="cls-29" d="M466.24,409.88H303.62a32.81,32.81,0,0,0-32.81,32.81v75.77H499.05V442.69A32.79,32.79,0,0,0,466.24,409.88Z"/><line class="cls-29" x1="270.12" y1="456.71" x2="499.05" y2="456.71"/><path class="cls-8" d="M399.05,520.76H361.8L274.87,351l1.64-.83A31.3,31.3,0,0,1,291,346.66H291a31.28,31.28,0,0,1,27.62,17Z"/><path class="cls-12" d="M601.19,518.17h-199l-80.4-157a31.27,31.27,0,0,0-27.62-17h199a31.27,31.27,0,0,1,27.63,17Z"/><path class="cls-2" d="M781,517.54v.63H365l-.15-.33L278,348.37l1.64-.84a30.91,30.91,0,0,1,14.44-3.43h.09a31.27,31.27,0,0,1,27.62,17L386.26,487A32.56,32.56,0,0,1,397.35,485H748.5A32.5,32.5,0,0,1,781,517.54Z"/><path class="cls-29" d="M696.83,548.47v38.28a8.06,8.06,0,0,0,8.06,8h0a18.26,18.26,0,0,1,18.25,18.26v1.76"/><circle class="cls-12" cx="700.56" cy="616.52" r="14.59"/><circle class="cls-29" cx="703.69" cy="613.63" r="14.59"/><path class="cls-29" d="M938.73,548.47v38.28a8.06,8.06,0,0,0,8.06,8h0a18.27,18.27,0,0,1,18.26,18.26v1.76"/><circle class="cls-12" cx="942.43" cy="616.52" r="14.59"/><circle class="cls-29" cx="945.6" cy="613.63" r="14.59"/><line class="cls-29" x1="696.83" y1="571.92" x2="938.73" y2="571.92"/><path class="cls-29" d="M284.35,548.47v38.28a8.06,8.06,0,0,1-8.05,8h0A18.27,18.27,0,0,0,258,613.06v1.76"/><circle class="cls-12" cx="274.33" cy="616.52" r="14.59"/><circle class="cls-29" cx="277.49" cy="613.63" r="14.59"/><path class="cls-29" d="M486.91,548.47v38.28a8.06,8.06,0,0,1-8.06,8h0a18.26,18.26,0,0,0-18.25,18.26v1.76"/><circle class="cls-12" cx="476.88" cy="616.52" r="14.59"/><circle class="cls-29" cx="480.05" cy="613.63" r="14.59"/><line class="cls-29" x1="486.91" y1="571.92" x2="284.35" y2="571.92"/></g><g id="PATIENT"><g id="SHIRT-2" data-name="SHIRT"><path id="SHIRT-3" data-name="SHIRT" class="cls-13" d="M431.36,373c-10.71,3.93-29.29,11.66-36.45,21.36s-14.86,41.43-14.86,41.43,12,13.72,51,12c0,0,20.44,37.17,70.2,37.17,0,0,19-38.09,57.54-46.77,0,0-9.87,3.94-24.37-1.37-9.73-3.55-12.59-14.47-12.59-14.47s11.25-8.48,14-17.42c0,0-22.28-27.45-32.87-30.31S468.71,371,468.71,371Z"/><g id="PATTERN"><circle class="cls-12" cx="438.07" cy="382.07" r="1.85"/><circle class="cls-12" cx="446.28" cy="381.66" r="1.85"/><circle class="cls-12" cx="454.45" cy="381.24" r="1.85"/><circle class="cls-12" cx="462.66" cy="380.82" r="1.85"/><circle class="cls-12" cx="470.83" cy="380.37" r="1.85"/><circle class="cls-12" cx="479.03" cy="379.96" r="1.85"/><circle class="cls-12" cx="487.21" cy="379.54" r="1.85"/><circle class="cls-12" cx="495.41" cy="379.12" r="1.85"/><circle class="cls-12" cx="503.58" cy="378.67" r="1.85"/><circle class="cls-12" cx="429.9" cy="382.52" r="1.85"/><circle class="cls-12" cx="421.7" cy="382.94" r="1.85"/><circle class="cls-12" cx="414.3" cy="383.63" r="1.85"/><circle class="cls-12" cx="441.98" cy="377.24" r="1.85"/><circle class="cls-12" cx="450.16" cy="376.79" r="1.85"/><circle class="cls-12" cx="458.36" cy="376.38" r="1.85"/><circle class="cls-12" cx="466.53" cy="375.96" r="1.85"/><circle class="cls-12" cx="474.74" cy="375.54" r="1.85"/><circle class="cls-12" cx="482.91" cy="375.09" r="1.85"/><circle class="cls-12" cx="491.11" cy="374.68" r="1.85"/><path class="cls-12" d="M501.14,374.2a1.89,1.89,0,0,1-1.37,1.85,1.85,1.85,0,0,1-2.24-1.34,2,2,0,0,1,.09-1.2C498.87,373.72,500,374,501.14,374.2Z"/><circle class="cls-12" cx="433.78" cy="377.66" r="1.85"/><circle class="cls-12" cx="425.6" cy="378.08" r="1.85"/><circle class="cls-12" cx="439.83" cy="393.65" r="1.85"/><circle class="cls-12" cx="448.04" cy="393.2" r="1.85"/><circle class="cls-12" cx="456.21" cy="392.78" r="1.85"/><circle class="cls-12" cx="464.42" cy="392.37" r="1.85"/><circle class="cls-12" cx="472.59" cy="391.95" r="1.85"/><circle class="cls-12" cx="480.79" cy="391.5" r="1.85"/><circle class="cls-12" cx="488.97" cy="391.08" r="1.85"/><circle class="cls-12" cx="497.17" cy="390.67" r="1.85"/><circle class="cls-12" cx="505.34" cy="390.25" r="1.85"/><circle class="cls-12" cx="431.66" cy="394.07" r="1.85"/><circle class="cls-12" cx="423.46" cy="394.48" r="1.85"/><circle class="cls-12" cx="416.06" cy="395.2" r="1.85"/><path class="cls-12" d="M522.56,390a1.83,1.83,0,0,1-1.17.89,1.81,1.81,0,0,1-2.23-1.34,1.86,1.86,0,0,1,.92-2.09C520.92,388.31,521.75,389.14,522.56,390Z"/><circle class="cls-12" cx="512.74" cy="389.53" r="1.85"/><circle class="cls-12" cx="399.47" cy="395.89" r="1.85"/><circle class="cls-12" cx="407.68" cy="395.47" r="1.85"/><circle class="cls-12" cx="443.74" cy="387.92" r="1.85"/><circle class="cls-12" cx="451.92" cy="387.5" r="1.85"/><circle class="cls-12" cx="460.12" cy="387.06" r="1.85"/><circle class="cls-12" cx="468.29" cy="386.64" r="1.85"/><circle class="cls-12" cx="476.5" cy="386.22" r="1.85"/><circle class="cls-12" cx="484.67" cy="385.8" r="1.85"/><circle class="cls-12" cx="492.87" cy="385.36" r="1.85"/><circle class="cls-12" cx="501.05" cy="384.94" r="1.85"/><circle class="cls-12" cx="509.25" cy="384.52" r="1.85"/><circle class="cls-12" cx="435.54" cy="388.34" r="1.85"/><circle class="cls-12" cx="427.36" cy="388.76" r="1.85"/><circle class="cls-12" cx="402.69" cy="390.1" r="1.85"/><circle class="cls-12" cx="410.87" cy="389.68" r="1.85"/><circle class="cls-12" cx="419.07" cy="389.23" r="1.85"/><circle class="cls-12" cx="457.64" cy="404.27" r="1.85"/><circle class="cls-12" cx="465.85" cy="403.85" r="1.85"/><circle class="cls-12" cx="474.02" cy="403.4" r="1.85"/><circle class="cls-12" cx="482.22" cy="402.99" r="1.85"/><circle class="cls-12" cx="490.4" cy="402.57" r="1.85"/><circle class="cls-12" cx="498.6" cy="402.15" r="1.85"/><circle class="cls-12" cx="506.78" cy="401.7" r="1.85"/><circle class="cls-12" cx="514.98" cy="401.29" r="1.85"/><circle class="cls-12" cx="523.15" cy="400.87" r="1.85"/><circle class="cls-12" cx="449.47" cy="404.69" r="1.85"/><circle class="cls-12" cx="441.27" cy="405.1" r="1.85"/><circle class="cls-12" cx="433.87" cy="405.82" r="1.85"/><path class="cls-12" d="M532.31,400.72a1.84,1.84,0,1,1-2.18-2.36l.12,0Z"/><circle class="cls-12" cx="392.73" cy="407.82" r="1.85"/><circle class="cls-12" cx="400.9" cy="407.37" r="1.85"/><circle class="cls-12" cx="409.11" cy="406.95" r="1.85"/><circle class="cls-12" cx="417.28" cy="406.54" r="1.85"/><circle class="cls-12" cx="425.49" cy="406.12" r="1.85"/><circle class="cls-12" cx="461.52" cy="398.54" r="1.85"/><circle class="cls-12" cx="469.73" cy="398.12" r="1.85"/><circle class="cls-12" cx="477.93" cy="397.71" r="1.85"/><circle class="cls-12" cx="486.1" cy="397.29" r="1.85"/><circle class="cls-12" cx="494.31" cy="396.84" r="1.85"/><circle class="cls-12" cx="502.48" cy="396.42" r="1.85"/><circle class="cls-12" cx="510.68" cy="396.01" r="1.85"/><circle class="cls-12" cx="518.86" cy="395.59" r="1.85"/><path class="cls-12" d="M528.46,396.33a1.68,1.68,0,0,1-1,.6,1.83,1.83,0,0,1-2.24-1.34,1.87,1.87,0,0,1,.72-2C526.85,394.57,527.69,395.47,528.46,396.33Z"/><circle class="cls-12" cx="453.35" cy="398.99" r="1.85"/><circle class="cls-12" cx="445.14" cy="399.41" r="1.85"/><circle class="cls-12" cx="395.92" cy="402" r="1.85"/><circle class="cls-12" cx="404.13" cy="401.58" r="1.85"/><circle class="cls-12" cx="412.3" cy="401.14" r="1.85"/><circle class="cls-12" cx="420.5" cy="400.72" r="1.85"/><circle class="cls-12" cx="428.68" cy="400.3" r="1.85"/><circle class="cls-12" cx="436.88" cy="399.88" r="1.85"/><circle class="cls-12" cx="459.55" cy="415.9" r="1.85"/><circle class="cls-12" cx="467.76" cy="415.49" r="1.85"/><circle class="cls-12" cx="475.93" cy="415.04" r="1.85"/><circle class="cls-12" cx="484.13" cy="414.62" r="1.85"/><circle class="cls-12" cx="492.31" cy="414.2" r="1.85"/><circle class="cls-12" cx="500.51" cy="413.79" r="1.85"/><circle class="cls-12" cx="508.69" cy="413.34" r="1.85"/><circle class="cls-12" cx="516.89" cy="412.92" r="1.85"/><circle class="cls-12" cx="525.06" cy="412.5" r="1.85"/><circle class="cls-12" cx="451.38" cy="416.32" r="1.85"/><circle class="cls-12" cx="443.18" cy="416.74" r="1.85"/><circle class="cls-12" cx="435.78" cy="417.45" r="1.85"/><path class="cls-12" d="M533.36,410.18c-.66,1-1.38,2-2.12,3a2,2,0,0,1-.57-.93A1.85,1.85,0,0,1,532,410,1.89,1.89,0,0,1,533.36,410.18Z"/><circle class="cls-12" cx="386.44" cy="419.87" r="1.85"/><circle class="cls-12" cx="394.64" cy="419.42" r="1.85"/><circle class="cls-12" cx="402.81" cy="419.01" r="1.85"/><circle class="cls-12" cx="411.02" cy="418.59" r="1.85"/><circle class="cls-12" cx="419.19" cy="418.17" r="1.85"/><circle class="cls-12" cx="427.39" cy="417.72" r="1.85"/><circle class="cls-12" cx="463.46" cy="410.18" r="1.85"/><circle class="cls-12" cx="471.63" cy="409.76" r="1.85"/><circle class="cls-12" cx="479.84" cy="409.34" r="1.85"/><circle class="cls-12" cx="488.01" cy="408.89" r="1.85"/><circle class="cls-12" cx="496.22" cy="408.48" r="1.85"/><circle class="cls-12" cx="504.39" cy="408.06" r="1.85"/><circle class="cls-12" cx="512.59" cy="407.64" r="1.85"/><circle class="cls-12" cx="520.77" cy="407.19" r="1.85"/><circle class="cls-12" cx="528.97" cy="406.78" r="1.85"/><circle class="cls-12" cx="455.26" cy="410.59" r="1.85"/><circle class="cls-12" cx="447.05" cy="411.04" r="1.85"/><circle class="cls-12" cx="389.66" cy="414.05" r="1.85"/><circle class="cls-12" cx="397.83" cy="413.64" r="1.85"/><circle class="cls-12" cx="406.04" cy="413.22" r="1.85"/><circle class="cls-12" cx="414.21" cy="412.77" r="1.85"/><circle class="cls-12" cx="422.41" cy="412.35" r="1.85"/><circle class="cls-12" cx="430.59" cy="411.94" r="1.85"/><circle class="cls-12" cx="438.79" cy="411.52" r="1.85"/><circle class="cls-12" cx="452.1" cy="427.84" r="1.85"/><circle class="cls-12" cx="460.3" cy="427.42" r="1.85"/><circle class="cls-12" cx="468.47" cy="427" r="1.85"/><circle class="cls-12" cx="476.68" cy="426.55" r="1.85"/><circle class="cls-12" cx="484.85" cy="426.14" r="1.85"/><circle class="cls-12" cx="493.05" cy="425.72" r="1.85"/><circle class="cls-12" cx="501.23" cy="425.3" r="1.85"/><circle class="cls-12" cx="509.43" cy="424.85" r="1.85"/><circle class="cls-12" cx="517.63" cy="424.44" r="1.85"/><circle class="cls-12" cx="443.92" cy="428.25" r="1.85"/><circle class="cls-12" cx="435.72" cy="428.7" r="1.85"/><circle class="cls-12" cx="428.32" cy="429.39" r="1.85"/><circle class="cls-12" cx="387.18" cy="431.39" r="1.85"/><circle class="cls-12" cx="395.36" cy="430.97" r="1.85"/><circle class="cls-12" cx="403.56" cy="430.52" r="1.85"/><circle class="cls-12" cx="411.73" cy="430.1" r="1.85"/><circle class="cls-12" cx="419.94" cy="429.69" r="1.85"/><circle class="cls-12" cx="456" cy="422.14" r="1.85"/><circle class="cls-12" cx="464.18" cy="421.69" r="1.85"/><circle class="cls-12" cx="472.38" cy="421.27" r="1.85"/><circle class="cls-12" cx="480.55" cy="420.86" r="1.85"/><circle class="cls-12" cx="488.76" cy="420.44" r="1.85"/><circle class="cls-12" cx="496.93" cy="419.99" r="1.85"/><circle class="cls-12" cx="505.14" cy="419.57" r="1.85"/><circle class="cls-12" cx="513.31" cy="419.16" r="1.85"/><circle class="cls-12" cx="521.51" cy="418.74" r="1.85"/><circle class="cls-12" cx="447.8" cy="422.56" r="1.85"/><circle class="cls-12" cx="439.63" cy="422.97" r="1.85"/><path class="cls-12" d="M382.29,427.84h-.12c.3-1.08.63-2.21.95-3.43a1.79,1.79,0,0,1,.9,1.49A1.84,1.84,0,0,1,382.29,427.84Z"/><circle class="cls-12" cx="390.37" cy="425.57" r="1.85"/><circle class="cls-12" cx="398.58" cy="425.15" r="1.85"/><circle class="cls-12" cx="406.75" cy="424.73" r="1.85"/><circle class="cls-12" cx="414.95" cy="424.29" r="1.85"/><circle class="cls-12" cx="423.13" cy="423.87" r="1.85"/><circle class="cls-12" cx="431.33" cy="423.45" r="1.85"/><circle class="cls-12" cx="453.53" cy="439.8" r="1.85"/><circle class="cls-12" cx="461.7" cy="439.35" r="1.85"/><circle class="cls-12" cx="469.9" cy="438.93" r="1.85"/><circle class="cls-12" cx="478.08" cy="438.52" r="1.85"/><circle class="cls-12" cx="486.28" cy="438.1" r="1.85"/><circle class="cls-12" cx="494.46" cy="437.65" r="1.85"/><circle class="cls-12" cx="502.66" cy="437.23" r="1.85"/><circle class="cls-12" cx="510.83" cy="436.82" r="1.85"/><circle class="cls-12" cx="519.04" cy="436.4" r="1.85"/><circle class="cls-12" cx="445.32" cy="440.22" r="1.85"/><circle class="cls-12" cx="437.15" cy="440.63" r="1.85"/><circle class="cls-12" cx="429.72" cy="441.35" r="1.85"/><circle class="cls-12" cx="526.43" cy="435.68" r="1.85"/><path class="cls-12" d="M397.32,444.66a1.16,1.16,0,0,1-.47.09,1.78,1.78,0,0,1-1.52-.69C396,444.27,396.64,444.45,397.32,444.66Z"/><path class="cls-12" d="M398.61,442.81a1.81,1.81,0,0,1-1.29,1.85h0c-.68-.18-1.34-.39-2-.6h0a1.86,1.86,0,0,1-.42-1.07,1.84,1.84,0,0,1,1.73-1.94A1.88,1.88,0,0,1,398.61,442.81Z"/><circle class="cls-12" cx="404.96" cy="442.48" r="1.85"/><circle class="cls-12" cx="413.17" cy="442.07" r="1.85"/><circle class="cls-12" cx="421.34" cy="441.62" r="1.85"/><circle class="cls-12" cx="457.41" cy="434.07" r="1.85"/><circle class="cls-12" cx="465.61" cy="433.65" r="1.85"/><circle class="cls-12" cx="473.78" cy="433.24" r="1.85"/><circle class="cls-12" cx="481.99" cy="432.79" r="1.85"/><circle class="cls-12" cx="490.16" cy="432.37" r="1.85"/><circle class="cls-12" cx="498.36" cy="431.95" r="1.85"/><circle class="cls-12" cx="506.54" cy="431.54" r="1.85"/><circle class="cls-12" cx="514.74" cy="431.09" r="1.85"/><circle class="cls-12" cx="522.91" cy="430.67" r="1.85"/><circle class="cls-12" cx="449.2" cy="434.49" r="1.85"/><circle class="cls-12" cx="441.03" cy="434.94" r="1.85"/><path class="cls-12" d="M385.45,437.86a1.87,1.87,0,0,1-.68,1.55,28.93,28.93,0,0,1-2.9-2,1.88,1.88,0,0,1,1.67-1.31A1.85,1.85,0,0,1,385.45,437.86Z"/><circle class="cls-12" cx="391.81" cy="437.53" r="1.85"/><circle class="cls-12" cx="399.98" cy="437.08" r="1.85"/><circle class="cls-12" cx="408.18" cy="436.67" r="1.85"/><circle class="cls-12" cx="416.36" cy="436.25" r="1.85"/><circle class="cls-12" cx="424.56" cy="435.83" r="1.85"/><circle class="cls-12" cx="432.73" cy="435.38" r="1.85"/><circle class="cls-12" cx="470.8" cy="450.6" r="1.85"/><circle class="cls-12" cx="479" cy="450.15" r="1.85"/><circle class="cls-12" cx="487.18" cy="449.73" r="1.85"/><circle class="cls-12" cx="495.38" cy="449.31" r="1.85"/><circle class="cls-12" cx="503.55" cy="448.9" r="1.85"/><circle class="cls-12" cx="511.76" cy="448.45" r="1.85"/><circle class="cls-12" cx="519.93" cy="448.03" r="1.85"/><circle class="cls-12" cx="528.14" cy="447.61" r="1.85"/><circle class="cls-12" cx="462.63" cy="451.02" r="1.85"/><circle class="cls-12" cx="454.42" cy="451.43" r="1.85"/><circle class="cls-12" cx="447.02" cy="452.15" r="1.85"/><circle class="cls-12" cx="438.64" cy="452.42" r="1.85"/><circle class="cls-12" cx="474.71" cy="444.87" r="1.85"/><circle class="cls-12" cx="482.88" cy="444.45" r="1.85"/><circle class="cls-12" cx="491.08" cy="444" r="1.85"/><circle class="cls-12" cx="499.26" cy="443.59" r="1.85"/><circle class="cls-12" cx="507.46" cy="443.17" r="1.85"/><circle class="cls-12" cx="515.64" cy="442.75" r="1.85"/><circle class="cls-12" cx="523.84" cy="442.3" r="1.85"/><circle class="cls-12" cx="532.01" cy="441.89" r="1.85"/><circle class="cls-12" cx="466.5" cy="445.29" r="1.85"/><circle class="cls-12" cx="458.33" cy="445.71" r="1.85"/><path class="cls-12" d="M419.13,447.88c-1.25-.06-2.47-.12-3.67-.21a1.86,1.86,0,0,1,1.73-1.61,1.84,1.84,0,0,1,1.94,1.73Z"/><path class="cls-12" d="M427.31,447.38a1.72,1.72,0,0,1-.06.56c-1.23,0-2.39,0-3.55,0a1.77,1.77,0,0,1-.06-.42,1.83,1.83,0,0,1,1.73-1.93A1.88,1.88,0,0,1,427.31,447.38Z"/><circle class="cls-12" cx="433.66" cy="447.05" r="1.85"/><circle class="cls-12" cx="441.83" cy="446.63" r="1.85"/><circle class="cls-12" cx="450.04" cy="446.18" r="1.85"/><circle class="cls-12" cx="472.95" cy="462.77" r="1.85"/><circle class="cls-12" cx="481.15" cy="462.35" r="1.85"/><circle class="cls-12" cx="489.32" cy="461.93" r="1.85"/><circle class="cls-12" cx="497.53" cy="461.52" r="1.85"/><circle class="cls-12" cx="505.7" cy="461.07" r="1.85"/><circle class="cls-12" cx="513.91" cy="460.65" r="1.85"/><circle class="cls-12" cx="464.77" cy="463.22" r="1.85"/><circle class="cls-12" cx="456.57" cy="463.63" r="1.85"/><circle class="cls-12" cx="449.17" cy="464.35" r="1.85"/><circle class="cls-12" cx="476.86" cy="457.07" r="1.85"/><circle class="cls-12" cx="485.03" cy="456.65" r="1.85"/><circle class="cls-12" cx="493.23" cy="456.21" r="1.85"/><circle class="cls-12" cx="501.41" cy="455.79" r="1.85"/><circle class="cls-12" cx="509.61" cy="455.37" r="1.85"/><circle class="cls-12" cx="517.78" cy="454.95" r="1.85"/><circle class="cls-12" cx="468.65" cy="457.49" r="1.85"/><circle class="cls-12" cx="460.48" cy="457.91" r="1.85"/><circle class="cls-12" cx="443.98" cy="458.8" r="1.85"/><circle class="cls-12" cx="452.18" cy="458.38" r="1.85"/><circle class="cls-12" cx="472.95" cy="475.72" r="1.85"/><circle class="cls-12" cx="481.15" cy="475.27" r="1.85"/><circle class="cls-12" cx="489.32" cy="474.85" r="1.85"/><circle class="cls-12" cx="497.53" cy="474.43" r="1.85"/><circle class="cls-12" cx="505.7" cy="474.02" r="1.85"/><circle class="cls-12" cx="464.77" cy="475.57" r="1.85"/><circle class="cls-12" cx="476.86" cy="469.99" r="1.85"/><circle class="cls-12" cx="485.03" cy="469.57" r="1.85"/><circle class="cls-12" cx="493.23" cy="469.15" r="1.85"/><circle class="cls-12" cx="501.41" cy="468.71" r="1.85"/><circle class="cls-12" cx="509.61" cy="468.29" r="1.85"/><circle class="cls-12" cx="468.65" cy="470.41" r="1.85"/><circle class="cls-12" cx="460.48" cy="470.85" r="1.85"/></g></g><path id="BLANKET" class="cls-15" d="M468,518.17s18.46-78,86-87,266.45,1.76,312.57,13.57S956.13,483,956.4,518l-243,.15Z"/><g id="HEAD-5" data-name="HEAD"><g id="NECK-3" data-name="NECK"><path id="NECK-4" data-name="NECK" class="cls-21" d="M440.61,346.31s.57,12.29-9.22,26.7c0,0,19.6,8.62,41.53.29,0,0-13.13-4.38-8.09-27Z"/><path id="SHADOW-7" data-name="SHADOW" class="cls-27" d="M466.77,368a2.59,2.59,0,0,1-.8.66c-3.2,1.4-15.25,2.06-22.59-10.14-1.85-3.07-2.29-8.77-2.74-11.76v-.44h24.22C462.36,357.31,464.21,364,466.77,368Z"/></g><path id="HAIR-3" data-name="HAIR" class="cls-11" d="M472.56,332.79c-.06-1.64-1-6.5-3.58-3.93-2.86,2.83-12.59,2.65-17.15-.42-3.94-2.66-6.51,0-6.75,5.22a10,10,0,0,1-3.6,7.31l-4.6-1.32s-7.55-21.12,7.28-26.31c13.6-4.77,25.57,4.57,27,8.86C472.32,325.81,472.56,332.79,472.56,332.79Z"/><path id="HEAD-6" data-name="HEAD" class="cls-21" d="M472.56,346.52c-2,15.09-5.58,14.28-7.76,15.24-3.19,1.37-13.42-.12-17.72-4.12-1.55-1.46-5.25-8.2-6.29-10.11v.06s-5.52-5.58-4.51-7.64c1.62-3.34,4.72.12,5.37.9a10,10,0,0,0,3.46-7.16c.24-5.22,2.81-7.88,6.75-5.22,4.56,3.07,14.29,3.25,17.15.42,1.79-1.79,3,.35,3.52,2.32A126.8,126.8,0,0,1,472.56,346.52Z"/></g><g id="HANDS-2" data-name="HANDS"><g id="LEFT_HAND-3" data-name="LEFT HAND"><path id="HAND-4" data-name="HAND" class="cls-21" d="M531.18,457.61a2,2,0,0,1-2.9.71c-1.31-.77-3.93-2.95-5.6-3.76,2.47,2.87,4.92,5.91,4.92,5.91a9.15,9.15,0,0,1-5.67,2.54c-1.76.18-5.1-2.9-8-4.54s-6,1.73-10.15,3c-3.1.92-7.63-2.78-9.66-4.66C486.79,463,461.7,482.37,432.23,485c-35.47,3.17-36.73-40.45-36.73-40.45,20.59,4.72,35.59,3.28,35.59,3.28l2.75,4.18c38.9-6.18,57.3-5.76,62.58-5.43,7.31,0,18.86,2.36,21.07,2.8a20.51,20.51,0,0,1,7.6,2.48C526.64,453,531.18,457.61,531.18,457.61Z"/><path class="cls-32" d="M525.24,461.19s-6.41-7.52-8-8l-6.51-2.06"/><path class="cls-32" d="M523,462.23s-5.9-6.29-7.51-6.8L509,453.37"/><path id="SHADOW-8" data-name="SHADOW" class="cls-27" d="M433.84,452s-19.3-1.19-36.07,6.17a63.22,63.22,0,0,1-2.27-13.63c20.59,4.71,35.59,3.28,35.59,3.28Z"/><path class="cls-33" d="M434,451s-7.4-12.44-10.38-25.3"/></g><g id="RIGHT_HAND-3" data-name="RIGHT HAND"><path id="HAND-5" data-name="HAND" class="cls-34" d="M637.59,432s-.78,5.28-1.14,6.21-5.13,8.65-8.14,9.87-15.84-1.1-18.38-1.52l-.5-.09c-10.59-.06-56.59.54-69.54-3.82-8-2.68-24.22-14.26-24.79-19.87,0,0,13-4.14,19.78-15.3,0,0,10.86,13,14,12.71,15.84-1.25,43.85,11,57.39,16.5,0,0,0,0,.06-.06,4.18-4.27,12.59-7.58,13.9-7.52l8.09.33c0,.06,0,2.56-1.7,3.67-1.13.74-5.46.35-5.85,2.14s1.7,2.93,2.84,3.08c2.71.32,8,.15,9.63-4.18C634.63,430.55,637.59,432,637.59,432Z"/><path id="SHADOW-9" data-name="SHADOW" class="cls-27" d="M514.17,423.09s14.62-5,20.68-15.63l3.22,3.7s-13.07,9.43-13.9,22C524.2,433.24,516,427.42,514.17,423.09Z"/><g id="DRIP-2" data-name="DRIP"><path class="cls-14" d="M554.8,293.24V424.11c0,5.1-2.74,6.44-4.74,6.44h-.45c-3.19,0-5.57-2.86-5.57-4.83"/><polygon class="cls-13" points="540.25 429.98 548.24 423.96 543.41 420.44 535.68 426.17 540.25 429.98"/></g><path class="cls-33" d="M506.3,411.88a64.13,64.13,0,0,0,22,25.74"/></g></g></g><g id="FRONT_BEDSIDE" data-name="FRONT BEDSIDE"><path class="cls-12" d="M956.13,518.17H713.42v-.63A32.52,32.52,0,0,1,745.93,485H923.58a32.52,32.52,0,0,1,32.52,32.52v.63Z"/><path class="cls-29" d="M923.31,409.58H746.2a32.82,32.82,0,0,0-32.81,32.81v75.78H956.1V442.39A32.77,32.77,0,0,0,923.31,409.58Z"/><line class="cls-29" x1="712.37" y1="456.41" x2="956.13" y2="456.41"/><rect class="cls-8" x="723.32" y="518.17" width="241.57" height="30.31"/><rect class="cls-8" x="257.71" y="518.17" width="465.61" height="30.31"/></g></g><g id="LIFE_SUPPORT" data-name="LIFE SUPPORT"><polygon class="cls-2" points="93.88 402.9 93.88 389.89 187.16 389.89 187.16 391.5 93.88 402.9"/><path class="cls-14" d="M80.93,601.63v3.49a4.3,4.3,0,0,1-4.29,4.3h0a9.75,9.75,0,0,0-9.76,9.75v1"/><circle class="cls-9" cx="77.56" cy="619.8" r="7.79"/><path class="cls-14" d="M124,601.63v3.49a4.3,4.3,0,0,1-4.3,4.3h0a9.74,9.74,0,0,0-9.75,9.75v1"/><circle class="cls-9" cx="120.64" cy="619.8" r="7.79"/><path class="cls-14" d="M202.53,601.63v3.49a4.29,4.29,0,0,0,4.29,4.3h0a9.75,9.75,0,0,1,9.76,9.75v1"/><circle class="cls-9" cx="205.93" cy="619.8" r="7.79" transform="translate(-60.07 23.31) rotate(-5.65)"/><path class="cls-8" d="M164.79,601.37H69.39a11.53,11.53,0,0,1-11.52-11.52V414.41A11.52,11.52,0,0,1,69.39,402.9h95.4a11.52,11.52,0,0,1,11.51,11.51V589.85A11.53,11.53,0,0,1,164.79,601.37Z"/><path class="cls-8" d="M211.65,601.37H116.28a11.53,11.53,0,0,1-11.51-11.52V414.41a11.52,11.52,0,0,1,11.51-11.51h95.4a11.52,11.52,0,0,1,11.52,11.51V589.85A11.57,11.57,0,0,1,211.65,601.37Z"/><path class="cls-8" d="M213.89,467.09H114.37a5.13,5.13,0,0,1-5.13-5.13V415.72a5.13,5.13,0,0,1,5.13-5.13h99.52a5.13,5.13,0,0,1,5.13,5.13V462A5.08,5.08,0,0,1,213.89,467.09Z"/><path class="cls-12" d="M178.54,442.9H144.32a2.09,2.09,0,0,1-2.08-2.09v-.3a2.08,2.08,0,0,1,2.08-2.08h34.22a2.09,2.09,0,0,1,2.09,2.08v.3A2.08,2.08,0,0,1,178.54,442.9Z"/><path class="cls-9" d="M181.23,440.66H147a2.06,2.06,0,0,1-2.06-2.05h0a2.06,2.06,0,0,1,2.06-2.06h34.25a2.05,2.05,0,0,1,2.05,2.06h0A2,2,0,0,1,181.23,440.66Z"/><path class="cls-8" d="M213.89,530H114.37a5.13,5.13,0,0,1-5.13-5.13V478.58a5.13,5.13,0,0,1,5.13-5.13h99.52a5.13,5.13,0,0,1,5.13,5.13v46.24A5.09,5.09,0,0,1,213.89,530Z"/><path class="cls-12" d="M178.54,505.76H144.32a2.09,2.09,0,0,1-2.08-2.09v-.3a2.09,2.09,0,0,1,2.08-2.09h34.22a2.1,2.1,0,0,1,2.09,2.09v.3A2.08,2.08,0,0,1,178.54,505.76Z"/><path class="cls-9" d="M181.23,503.55H147a2.07,2.07,0,0,1-2.06-2.06h0a2.07,2.07,0,0,1,2.06-2.06h34.25a2.06,2.06,0,0,1,2.05,2.06h0A2,2,0,0,1,181.23,503.55Z"/><path class="cls-8" d="M213.89,592.83H114.37a5.13,5.13,0,0,1-5.13-5.13V541.46a5.13,5.13,0,0,1,5.13-5.13h99.52a5.13,5.13,0,0,1,5.13,5.13V587.7A5.08,5.08,0,0,1,213.89,592.83Z"/><path class="cls-12" d="M178.54,568.64H144.32a2.09,2.09,0,0,1-2.08-2.09v-.3a2.08,2.08,0,0,1,2.08-2.08h34.22a2.09,2.09,0,0,1,2.09,2.08v.3A2.08,2.08,0,0,1,178.54,568.64Z"/><path class="cls-9" d="M181.23,566.4H147a2.06,2.06,0,0,1-2.06-2.06h0a2.06,2.06,0,0,1,2.06-2.05h34.25a2.05,2.05,0,0,1,2.05,2.05h0A2,2,0,0,1,181.23,566.4Z"/><path class="cls-9" d="M197.28,347.29h10.88a37.9,37.9,0,0,1,37.89,37.89v88.54A27.32,27.32,0,0,0,273.38,501H406.12c18.65-.48,30.16-20.64,21.45-37.14l-8.44-15.72"/><rect class="cls-14" x="93.88" y="389.89" width="93.28" height="13.01"/><path class="cls-8" d="M111.6,389.89H73.68a4.33,4.33,0,0,1-4.32-4.33V311.85a4.32,4.32,0,0,1,4.32-4.32H111.6Z"/><path class="cls-8" d="M205.93,389.89H110.67a6.93,6.93,0,0,1-6.56-4.77l-23.57-72.7a3.74,3.74,0,0,1,3.55-4.89h95.26a6.92,6.92,0,0,1,6.56,4.77L209.48,385A3.73,3.73,0,0,1,205.93,389.89Z"/><path class="cls-17" d="M169.8,365.79H109.63a4.37,4.37,0,0,1-4.15-3L90.6,316.83a2.37,2.37,0,0,1,2.24-3.1H153a4.35,4.35,0,0,1,4.14,3L172,362.68A2.37,2.37,0,0,1,169.8,365.79Z"/><polyline class="cls-35" points="152.44 366 147.78 351.62 168.79 351.62"/><path class="cls-2" d="M185.1,366.08h-.41a8.86,8.86,0,0,1-7.64-4.92h0c-2.12-4.26.27-8.62,4.74-8.62h.42a8.9,8.9,0,0,1,7.64,4.92h0C192,361.7,189.58,366.08,185.1,366.08Z"/><path class="cls-26" d="M187.28,365.31h-.42a8.88,8.88,0,0,1-7.63-4.92h0c-2.12-4.27.27-8.62,4.74-8.62h.42a8.86,8.86,0,0,1,7.63,4.92h0C194.17,360.92,191.76,365.31,187.28,365.31Z"/><path class="cls-2" d="M170.46,319.73h-6.92a.51.51,0,0,1-.48-.36l-1.7-5.28a.27.27,0,0,1,.27-.36h6.92a.49.49,0,0,1,.47.36l1.71,5.28A.29.29,0,0,1,170.46,319.73Z"/><path class="cls-2" d="M181.37,319.73h-6.92a.51.51,0,0,1-.47-.36l-1.7-5.28a.27.27,0,0,1,.26-.36h6.93a.51.51,0,0,1,.47.36l1.7,5.28A.28.28,0,0,1,181.37,319.73Z"/><path class="cls-2" d="M173.23,328.74h-6.92a.51.51,0,0,1-.48-.36l-1.7-5.28a.27.27,0,0,1,.27-.36h6.92a.51.51,0,0,1,.48.36l1.7,5.28A.3.3,0,0,1,173.23,328.74Z"/><path class="cls-2" d="M184.15,328.74h-6.92a.51.51,0,0,1-.48-.36l-1.7-5.28a.27.27,0,0,1,.27-.36h6.92a.51.51,0,0,1,.48.36l1.7,5.28A.3.3,0,0,1,184.15,328.74Z"/><path class="cls-2" d="M176.51,338.52h-6.92a.51.51,0,0,1-.48-.36l-1.7-5.28a.27.27,0,0,1,.27-.36h6.92a.51.51,0,0,1,.48.36l1.7,5.28A.27.27,0,0,1,176.51,338.52Z"/><path class="cls-2" d="M187.43,338.52h-6.92a.51.51,0,0,1-.48-.36l-1.7-5.28a.27.27,0,0,1,.27-.36h6.92a.51.51,0,0,1,.48.36l1.7,5.28A.28.28,0,0,1,187.43,338.52Z"/><path class="cls-2" d="M179.85,348.72h-6.92a.5.5,0,0,1-.47-.35l-1.7-5.28a.26.26,0,0,1,.26-.36h6.92a.51.51,0,0,1,.48.36l1.7,5.28A.28.28,0,0,1,179.85,348.72Z"/><path class="cls-2" d="M190.77,348.72h-6.92a.52.52,0,0,1-.48-.35l-1.7-5.29a.26.26,0,0,1,.27-.35h6.89a.52.52,0,0,1,.48.35l1.7,5.29A.26.26,0,0,1,190.77,348.72Z"/><polyline class="cls-35" points="93.25 326.23 99.22 326.23 100.74 320.86 104.08 331.09 104.17 325.99 111.57 325.93 113.09 320.86 116.43 331.09 116.52 325.99 123.92 325.93 125.44 320.86 128.78 331.09 128.87 325.99 136.27 325.93 137.79 320.86 141.13 331.09 141.22 325.99 148.32 325.93 149.84 320.86 153.18 331.09 153.27 325.99 160.1 325.93"/><polyline class="cls-36" points="164.34 337.71 162.04 341.41 160.61 339.33 160.61 343.77 157.63 337.71 156.76 343.77 153.84 337.71 151.54 341.41 150.14 339.33 150.14 343.77 147.13 337.71 144.26 343.77 141.37 337.71 139.07 341.41 137.64 339.33 137.64 343.77 134.66 337.71 133.79 343.77 130.87 337.71 128.57 341.41 127.17 339.33 127.17 343.77 124.16 337.71 124.16 341.41 122.16 339.21 121 343.77 118.1 337.71 115.81 341.41 114.37 339.33 114.37 343.77 111.39 337.71 110.53 343.77 107.6 337.71 105.31 341.41 103.9 339.33 103.9 343.77 100.89 337.71 97.7 340.52"/><path class="cls-37" d="M153.3,354.63H157a.64.64,0,0,1,.6.48l.75,3.19"/><line class="cls-37" x1="158.52" y1="359.25" x2="159.33" y2="362.86"/><path class="cls-37" d="M164.07,354.63H160.4a.36.36,0,0,0-.35.48l.74,3.19"/><path class="cls-37" d="M165.56,362.92h-3.22a.63.63,0,0,1-.59-.47l-.75-3.2a.36.36,0,0,1,.36-.47h3.22a.65.65,0,0,1,.57.44l.74,3.26A.33.33,0,0,1,165.56,362.92Z"/><path class="cls-37" d="M133.7,354.36H130a.36.36,0,0,0-.36.48l.74,3.19"/><path class="cls-37" d="M131,358.54h3.22a.64.64,0,0,1,.57.45l.74,3.25a.34.34,0,0,1-.35.44h-3.79"/><line class="cls-37" x1="120.43" y1="354.63" x2="121.29" y2="358.3"/><line class="cls-37" x1="121.5" y1="359.25" x2="122.34" y2="362.86"/><path class="cls-37" d="M123.8,358.3l-.75-3.19a.36.36,0,0,1,.36-.48h3.37"/><path class="cls-37" d="M128,358l-.6-2.92c0-.48-.39-.48-.66-.48h-3.37"/><path class="cls-37" d="M128.16,359.22l.74,3.26a.34.34,0,0,1-.36.44h-3.22a.62.62,0,0,1-.59-.47l-.75-3.2"/><line class="cls-35" x1="147.78" y1="351.62" x2="101.61" y2="351.62"/></g><circle class="cls-11" cx="1051.65" cy="200.61" r="1.55"/><circle class="cls-11" cx="1064.5" cy="200.61" r="1.55"/><circle class="cls-11" cx="710.38" cy="220.06" r="1.19"/><circle class="cls-11" cx="699.01" cy="220.06" r="1.19"/><polyline class="cls-38" points="1057.58 199.24 1055.43 208.16 1059.02 208.16"/><circle class="cls-11" cx="470.17" cy="339.45" r="1.55"/><circle class="cls-11" cx="457.35" cy="339.45" r="1.55"/><polyline class="cls-38" points="464.24 338.04 466.41 347.98 462.81 347.98"/><path class="cls-38" d="M456.33,350.48s2.72,2.72,8,2"/><path class="cls-38" d="M1057.61,214a5.48,5.48,0,0,0,6.21-3.13"/><line class="cls-39" x1="702.38" y1="220.84" x2="701.22" y2="226.92"/><path class="cls-39" d="M702.38,231a5.72,5.72,0,0,0,5.94-1.52"/><path class="cls-1" d="M1216.07,340.68l.85-.61c33.61,67.93,59.39,135,39.17,192.24-26.65,73.49-128.34,131.41-231.44,153.94-102.39,23.06-205.49,11.8-298.77,1.61-94-10.19-178.14-18.24-258.79-46.66-81.36-28.43-159.91-76.71-220.22-145.9-59.61-69.72-101.69-160.91-72.24-235.46,13.74-35,42.91-66.45,80.51-94.46"/></g></g></svg>